M48
; DRILL file {KiCad (6.0.8)} date ven. 28 oct. 2022 15:06:32
; FORMAT={-:-/ absolute / inch / decimal}
; #@! TF.CreationDate,2022-10-28T15:06:32+02:00
; #@! TF.GenerationSoftware,Kicad,Pcbnew,(6.0.8)
; #@! TF.FileFunction,Plated,1,2,PTH
FMAT,2
INCH
; #@! TA.AperFunction,Plated,PTH,ViaDrill
T1C0.0118
; #@! TA.AperFunction,Plated,PTH,ComponentDrill
T2C0.0394
; #@! TA.AperFunction,Plated,PTH,ComponentDrill
T3C0.0433
; #@! TA.AperFunction,Plated,PTH,ComponentDrill
T4C0.0480
; #@! TA.AperFunction,Plated,PTH,ComponentDrill
T5C0.0559
; #@! TA.AperFunction,Plated,PTH,ComponentDrill
T6C0.0563
%
G90
G05
T1
X1.113Y-2.219
X1.1575Y-1.315
X1.3228Y-1.9409
X1.4213Y-1.5906
X1.4764Y-1.7874
X1.5315Y-2.3386
X1.5512Y-1.1181
X1.5827Y-1.626
X1.5984Y-1.3937
X1.6693Y-1.9252
X1.6772Y-1.3268
X1.7047Y-1.2402
X1.7283Y-1.9252
X1.7559Y-1.5551
X1.7559Y-2.2402
X1.7874Y-1.4134
X1.8307Y-1.622
X1.9055Y-1.0591
X1.9055Y-1.4134
X1.9115Y-2.4746
X1.9449Y-1.2756
X2.0433Y-2.0984
X2.063Y-1.5315
X2.1024Y-2.0039
X2.126Y-1.4173
X2.1299Y-1.2638
X2.1811Y-2.0827
X2.189Y-1.6181
X2.189Y-2.189
X2.1969Y-1.937
X2.2126Y-1.7953
X2.2205Y-1.3937
X2.2598Y-2.0827
X2.2795Y-1.2756
X2.2795Y-1.5118
X2.315Y-1.685
X2.315Y-2.0433
X2.3583Y-1.4488
X2.3976Y-2.3976
X2.4055Y-1.9409
X2.4134Y-2.1024
X2.437Y-1.1378
T2
X1.2559Y-2.0128
X1.3543Y-2.0128
X1.4528Y-2.0128
X2.6929Y-1.7874
X2.7913Y-1.7874
T4
X2.8504Y-1.5512
X2.8504Y-2.0236
T5
X2.7283Y-1.5512
X2.7283Y-2.0236
T6
X2.4016Y-1.5512
X2.4016Y-2.0236
T3
G00X1.1654Y-1.7313
M15
G01X1.1654Y-1.7037
M16
G05
G00X1.5433Y-1.7313
M15
G01X1.5433Y-1.7037
M16
G05
T0
M30
