%TF.GenerationSoftware,KiCad,Pcbnew,(6.0.8)*%
%TF.CreationDate,2022-10-28T15:06:34+02:00*%
%TF.ProjectId,eurorack_nvlp_1u,6575726f-7261-4636-9b5f-6e766c705f31,rev?*%
%TF.SameCoordinates,Original*%
%TF.FileFunction,Legend,Bot*%
%TF.FilePolarity,Positive*%
%FSLAX46Y46*%
G04 Gerber Fmt 4.6, Leading zero omitted, Abs format (unit mm)*
G04 Created by KiCad (PCBNEW (6.0.8)) date 2022-10-28 15:06:34*
%MOMM*%
%LPD*%
G01*
G04 APERTURE LIST*
%ADD10C,0.150000*%
%ADD11C,0.120000*%
G04 APERTURE END LIST*
D10*
X68685714Y-48971428D02*
X67923809Y-48971428D01*
X68304761Y-49352380D02*
X68304761Y-48590476D01*
X66971428Y-48352380D02*
X67447619Y-48352380D01*
X67495238Y-48828571D01*
X67447619Y-48780952D01*
X67352380Y-48733333D01*
X67114285Y-48733333D01*
X67019047Y-48780952D01*
X66971428Y-48828571D01*
X66923809Y-48923809D01*
X66923809Y-49161904D01*
X66971428Y-49257142D01*
X67019047Y-49304761D01*
X67114285Y-49352380D01*
X67352380Y-49352380D01*
X67447619Y-49304761D01*
X67495238Y-49257142D01*
X66638095Y-48352380D02*
X66304761Y-49352380D01*
X65971428Y-48352380D01*
X73161904Y-48400000D02*
X73257142Y-48352380D01*
X73400000Y-48352380D01*
X73542857Y-48400000D01*
X73638095Y-48495238D01*
X73685714Y-48590476D01*
X73733333Y-48780952D01*
X73733333Y-48923809D01*
X73685714Y-49114285D01*
X73638095Y-49209523D01*
X73542857Y-49304761D01*
X73400000Y-49352380D01*
X73304761Y-49352380D01*
X73161904Y-49304761D01*
X73114285Y-49257142D01*
X73114285Y-48923809D01*
X73304761Y-48923809D01*
X72685714Y-49352380D02*
X72685714Y-48352380D01*
X72114285Y-49352380D01*
X72114285Y-48352380D01*
X71638095Y-49352380D02*
X71638095Y-48352380D01*
X71400000Y-48352380D01*
X71257142Y-48400000D01*
X71161904Y-48495238D01*
X71114285Y-48590476D01*
X71066666Y-48780952D01*
X71066666Y-48923809D01*
X71114285Y-49114285D01*
X71161904Y-49209523D01*
X71257142Y-49304761D01*
X71400000Y-49352380D01*
X71638095Y-49352380D01*
X65019047Y-62852380D02*
X65019047Y-63566666D01*
X65066666Y-63709523D01*
X65161904Y-63804761D01*
X65304761Y-63852380D01*
X65400000Y-63852380D01*
X64066666Y-63852380D02*
X64542857Y-63852380D01*
X64542857Y-62852380D01*
X63161904Y-63757142D02*
X63209523Y-63804761D01*
X63352380Y-63852380D01*
X63447619Y-63852380D01*
X63590476Y-63804761D01*
X63685714Y-63709523D01*
X63733333Y-63614285D01*
X63780952Y-63423809D01*
X63780952Y-63280952D01*
X63733333Y-63090476D01*
X63685714Y-62995238D01*
X63590476Y-62900000D01*
X63447619Y-62852380D01*
X63352380Y-62852380D01*
X63209523Y-62900000D01*
X63161904Y-62947619D01*
X62447619Y-62852380D02*
X62447619Y-63566666D01*
X62495238Y-63709523D01*
X62590476Y-63804761D01*
X62733333Y-63852380D01*
X62828571Y-63852380D01*
X61495238Y-63852380D02*
X61971428Y-63852380D01*
X61971428Y-62852380D01*
X60590476Y-63757142D02*
X60638095Y-63804761D01*
X60780952Y-63852380D01*
X60876190Y-63852380D01*
X61019047Y-63804761D01*
X61114285Y-63709523D01*
X61161904Y-63614285D01*
X61209523Y-63423809D01*
X61209523Y-63280952D01*
X61161904Y-63090476D01*
X61114285Y-62995238D01*
X61019047Y-62900000D01*
X60876190Y-62852380D01*
X60780952Y-62852380D01*
X60638095Y-62900000D01*
X60590476Y-62947619D01*
X59876190Y-62852380D02*
X59876190Y-63566666D01*
X59923809Y-63709523D01*
X60019047Y-63804761D01*
X60161904Y-63852380D01*
X60257142Y-63852380D01*
X58923809Y-63852380D02*
X59400000Y-63852380D01*
X59400000Y-62852380D01*
X58019047Y-63757142D02*
X58066666Y-63804761D01*
X58209523Y-63852380D01*
X58304761Y-63852380D01*
X58447619Y-63804761D01*
X58542857Y-63709523D01*
X58590476Y-63614285D01*
X58638095Y-63423809D01*
X58638095Y-63280952D01*
X58590476Y-63090476D01*
X58542857Y-62995238D01*
X58447619Y-62900000D01*
X58304761Y-62852380D01*
X58209523Y-62852380D01*
X58066666Y-62900000D01*
X58019047Y-62947619D01*
X57304761Y-62852380D02*
X57304761Y-63566666D01*
X57352380Y-63709523D01*
X57447619Y-63804761D01*
X57590476Y-63852380D01*
X57685714Y-63852380D01*
X56352380Y-63852380D02*
X56828571Y-63852380D01*
X56828571Y-62852380D01*
X55447619Y-63757142D02*
X55495238Y-63804761D01*
X55638095Y-63852380D01*
X55733333Y-63852380D01*
X55876190Y-63804761D01*
X55971428Y-63709523D01*
X56019047Y-63614285D01*
X56066666Y-63423809D01*
X56066666Y-63280952D01*
X56019047Y-63090476D01*
X55971428Y-62995238D01*
X55876190Y-62900000D01*
X55733333Y-62852380D01*
X55638095Y-62852380D01*
X55495238Y-62900000D01*
X55447619Y-62947619D01*
D11*
%TO.C,J103*%
X69150000Y-47850000D02*
X69150000Y-47100000D01*
X65550000Y-48150000D02*
X65550000Y-46900000D01*
X69150000Y-47100000D02*
X70150000Y-47100000D01*
X70150000Y-47850000D02*
X69150000Y-47850000D01*
X66600000Y-45600000D02*
X66600000Y-42650000D01*
X73450000Y-47100000D02*
X73450000Y-47850000D01*
X65850000Y-45600000D02*
X66600000Y-45600000D01*
X67650000Y-47100000D02*
X67650000Y-47850000D01*
X72700000Y-45600000D02*
X72700000Y-42650000D01*
X70150000Y-47100000D02*
X70150000Y-47850000D01*
X65850000Y-47850000D02*
X65850000Y-47100000D01*
X65840000Y-47860000D02*
X65840000Y-41890000D01*
X66800000Y-48150000D02*
X65550000Y-48150000D01*
X73460000Y-41890000D02*
X73460000Y-47860000D01*
X72700000Y-42650000D02*
X69650000Y-42650000D01*
X66600000Y-42650000D02*
X69650000Y-42650000D01*
X65850000Y-47100000D02*
X67650000Y-47100000D01*
X73450000Y-45600000D02*
X72700000Y-45600000D01*
X73450000Y-47850000D02*
X71650000Y-47850000D01*
X71650000Y-47100000D02*
X73450000Y-47100000D01*
X73460000Y-47860000D02*
X65840000Y-47860000D01*
X65840000Y-41890000D02*
X73460000Y-41890000D01*
X67650000Y-47850000D02*
X65850000Y-47850000D01*
X71650000Y-47850000D02*
X71650000Y-47100000D01*
%TD*%
M02*
