%TF.GenerationSoftware,KiCad,Pcbnew,(6.0.8)*%
%TF.CreationDate,2022-10-28T15:06:33+02:00*%
%TF.ProjectId,eurorack_nvlp_1u,6575726f-7261-4636-9b5f-6e766c705f31,rev?*%
%TF.SameCoordinates,Original*%
%TF.FileFunction,Copper,L1,Top*%
%TF.FilePolarity,Positive*%
%FSLAX46Y46*%
G04 Gerber Fmt 4.6, Leading zero omitted, Abs format (unit mm)*
G04 Created by KiCad (PCBNEW (6.0.8)) date 2022-10-28 15:06:33*
%MOMM*%
%LPD*%
G01*
G04 APERTURE LIST*
G04 Aperture macros list*
%AMRoundRect*
0 Rectangle with rounded corners*
0 $1 Rounding radius*
0 $2 $3 $4 $5 $6 $7 $8 $9 X,Y pos of 4 corners*
0 Add a 4 corners polygon primitive as box body*
4,1,4,$2,$3,$4,$5,$6,$7,$8,$9,$2,$3,0*
0 Add four circle primitives for the rounded corners*
1,1,$1+$1,$2,$3*
1,1,$1+$1,$4,$5*
1,1,$1+$1,$6,$7*
1,1,$1+$1,$8,$9*
0 Add four rect primitives between the rounded corners*
20,1,$1+$1,$2,$3,$4,$5,0*
20,1,$1+$1,$4,$5,$6,$7,0*
20,1,$1+$1,$6,$7,$8,$9,0*
20,1,$1+$1,$8,$9,$2,$3,0*%
G04 Aperture macros list end*
%TA.AperFunction,SMDPad,CuDef*%
%ADD10RoundRect,0.250000X0.375000X0.625000X-0.375000X0.625000X-0.375000X-0.625000X0.375000X-0.625000X0*%
%TD*%
%TA.AperFunction,SMDPad,CuDef*%
%ADD11RoundRect,0.218750X0.218750X0.381250X-0.218750X0.381250X-0.218750X-0.381250X0.218750X-0.381250X0*%
%TD*%
%TA.AperFunction,SMDPad,CuDef*%
%ADD12RoundRect,0.225000X0.250000X-0.225000X0.250000X0.225000X-0.250000X0.225000X-0.250000X-0.225000X0*%
%TD*%
%TA.AperFunction,SMDPad,CuDef*%
%ADD13RoundRect,0.225000X-0.250000X0.225000X-0.250000X-0.225000X0.250000X-0.225000X0.250000X0.225000X0*%
%TD*%
%TA.AperFunction,ComponentPad*%
%ADD14R,1.830000X1.930000*%
%TD*%
%TA.AperFunction,ComponentPad*%
%ADD15C,2.130000*%
%TD*%
%TA.AperFunction,SMDPad,CuDef*%
%ADD16C,1.500000*%
%TD*%
%TA.AperFunction,SMDPad,CuDef*%
%ADD17RoundRect,0.218750X-0.026517X0.335876X-0.335876X0.026517X0.026517X-0.335876X0.335876X-0.026517X0*%
%TD*%
%TA.AperFunction,SMDPad,CuDef*%
%ADD18RoundRect,0.225000X-0.225000X-0.250000X0.225000X-0.250000X0.225000X0.250000X-0.225000X0.250000X0*%
%TD*%
%TA.AperFunction,SMDPad,CuDef*%
%ADD19RoundRect,0.150000X0.587500X0.150000X-0.587500X0.150000X-0.587500X-0.150000X0.587500X-0.150000X0*%
%TD*%
%TA.AperFunction,SMDPad,CuDef*%
%ADD20RoundRect,0.200000X-0.275000X0.200000X-0.275000X-0.200000X0.275000X-0.200000X0.275000X0.200000X0*%
%TD*%
%TA.AperFunction,SMDPad,CuDef*%
%ADD21RoundRect,0.125000X-0.625000X-0.125000X0.625000X-0.125000X0.625000X0.125000X-0.625000X0.125000X0*%
%TD*%
%TA.AperFunction,SMDPad,CuDef*%
%ADD22RoundRect,0.125000X-0.125000X-0.625000X0.125000X-0.625000X0.125000X0.625000X-0.125000X0.625000X0*%
%TD*%
%TA.AperFunction,ComponentPad*%
%ADD23O,2.720000X3.240000*%
%TD*%
%TA.AperFunction,ComponentPad*%
%ADD24R,1.800000X1.800000*%
%TD*%
%TA.AperFunction,ComponentPad*%
%ADD25C,1.800000*%
%TD*%
%TA.AperFunction,SMDPad,CuDef*%
%ADD26RoundRect,0.150000X0.150000X-0.512500X0.150000X0.512500X-0.150000X0.512500X-0.150000X-0.512500X0*%
%TD*%
%TA.AperFunction,SMDPad,CuDef*%
%ADD27RoundRect,0.200000X0.275000X-0.200000X0.275000X0.200000X-0.275000X0.200000X-0.275000X-0.200000X0*%
%TD*%
%TA.AperFunction,SMDPad,CuDef*%
%ADD28RoundRect,0.218750X-0.256250X0.218750X-0.256250X-0.218750X0.256250X-0.218750X0.256250X0.218750X0*%
%TD*%
%TA.AperFunction,SMDPad,CuDef*%
%ADD29RoundRect,0.150000X-0.825000X-0.150000X0.825000X-0.150000X0.825000X0.150000X-0.825000X0.150000X0*%
%TD*%
%TA.AperFunction,ComponentPad*%
%ADD30RoundRect,0.250000X-0.600000X-0.750000X0.600000X-0.750000X0.600000X0.750000X-0.600000X0.750000X0*%
%TD*%
%TA.AperFunction,ComponentPad*%
%ADD31O,1.700000X2.000000*%
%TD*%
%TA.AperFunction,ViaPad*%
%ADD32C,0.700000*%
%TD*%
%TA.AperFunction,Conductor*%
%ADD33C,0.500000*%
%TD*%
%TA.AperFunction,Conductor*%
%ADD34C,0.400000*%
%TD*%
%TA.AperFunction,Conductor*%
%ADD35C,0.300000*%
%TD*%
G04 APERTURE END LIST*
D10*
%TO.P,F101,1*%
%TO.N,Net-(F101-Pad1)*%
X62900000Y-45400000D03*
%TO.P,F101,2*%
%TO.N,+5V*%
X60100000Y-45400000D03*
%TD*%
D11*
%TO.P,FB101,1*%
%TO.N,Net-(J103-Pad1)*%
X66562500Y-45400000D03*
%TO.P,FB101,2*%
%TO.N,Net-(F101-Pad1)*%
X64437500Y-45400000D03*
%TD*%
D12*
%TO.P,C105,1*%
%TO.N,/nRST*%
X41400000Y-38175000D03*
%TO.P,C105,2*%
%TO.N,GND*%
X41400000Y-36625000D03*
%TD*%
D13*
%TO.P,C104,1*%
%TO.N,+3.3V*%
X57400000Y-50625000D03*
%TO.P,C104,2*%
%TO.N,GND*%
X57400000Y-52175000D03*
%TD*%
D14*
%TO.P,J101,S*%
%TO.N,GND*%
X72400000Y-39400000D03*
D15*
%TO.P,J101,T*%
%TO.N,Net-(J101-PadT)*%
X61000000Y-39400000D03*
%TO.P,J101,TN*%
%TO.N,unconnected-(J101-PadTN)*%
X69300000Y-39400000D03*
%TD*%
D16*
%TO.P,TP103,1,1*%
%TO.N,GND*%
X50400000Y-33400000D03*
%TD*%
D14*
%TO.P,J102,S*%
%TO.N,GND*%
X72400000Y-51400000D03*
D15*
%TO.P,J102,T*%
%TO.N,Net-(J102-PadT)*%
X61000000Y-51400000D03*
%TO.P,J102,TN*%
%TO.N,unconnected-(J102-PadTN)*%
X69300000Y-51400000D03*
%TD*%
D17*
%TO.P,L101,1*%
%TO.N,+3.3V*%
X38956847Y-34843153D03*
%TO.P,L101,2*%
%TO.N,+3.3VA*%
X37843153Y-35956847D03*
%TD*%
D18*
%TO.P,C109,1*%
%TO.N,/POT_ENV*%
X34625000Y-53400000D03*
%TO.P,C109,2*%
%TO.N,GND*%
X36175000Y-53400000D03*
%TD*%
D16*
%TO.P,TP102,1,1*%
%TO.N,/SYS_SWCLK*%
X57400000Y-41400000D03*
%TD*%
D12*
%TO.P,C111,1*%
%TO.N,+5V*%
X54600000Y-57175000D03*
%TO.P,C111,2*%
%TO.N,GND*%
X54600000Y-55625000D03*
%TD*%
D13*
%TO.P,C102,1*%
%TO.N,+3.3VA*%
X42400000Y-46625000D03*
%TO.P,C102,2*%
%TO.N,GND*%
X42400000Y-48175000D03*
%TD*%
%TO.P,C106,1*%
%TO.N,+3.3V*%
X55400000Y-50625000D03*
%TO.P,C106,2*%
%TO.N,GND*%
X55400000Y-52175000D03*
%TD*%
D16*
%TO.P,TP101,1,1*%
%TO.N,+3.3V*%
X43400000Y-41400000D03*
%TD*%
D19*
%TO.P,Q101,1,B*%
%TO.N,Net-(Q101-Pad1)*%
X44400000Y-33400000D03*
%TO.P,Q101,2,E*%
%TO.N,GND*%
X44400000Y-31500000D03*
%TO.P,Q101,3,C*%
%TO.N,/GATE*%
X42525000Y-32450000D03*
%TD*%
D16*
%TO.P,TP105,1,1*%
%TO.N,/nRST*%
X43400000Y-44400000D03*
%TD*%
D20*
%TO.P,R103,1*%
%TO.N,Net-(J101-PadT)*%
X46400000Y-31575000D03*
%TO.P,R103,2*%
%TO.N,Net-(Q101-Pad1)*%
X46400000Y-33225000D03*
%TD*%
D12*
%TO.P,C107,1*%
%TO.N,+3.3V*%
X45400000Y-38175000D03*
%TO.P,C107,2*%
%TO.N,GND*%
X45400000Y-36625000D03*
%TD*%
D13*
%TO.P,C110,1*%
%TO.N,+5V*%
X44600000Y-54625000D03*
%TO.P,C110,2*%
%TO.N,GND*%
X44600000Y-56175000D03*
%TD*%
D18*
%TO.P,C103,1*%
%TO.N,+5V*%
X55625000Y-38400000D03*
%TO.P,C103,2*%
%TO.N,GND*%
X57175000Y-38400000D03*
%TD*%
D21*
%TO.P,U101,1,VDD*%
%TO.N,+3.3V*%
X46225000Y-42600000D03*
%TO.P,U101,2,PF0*%
%TO.N,unconnected-(U101-Pad2)*%
X46225000Y-43400000D03*
%TO.P,U101,3,PF1*%
%TO.N,unconnected-(U101-Pad3)*%
X46225000Y-44200000D03*
%TO.P,U101,4,NRST*%
%TO.N,/nRST*%
X46225000Y-45000000D03*
%TO.P,U101,5,VDDA*%
%TO.N,+3.3VA*%
X46225000Y-45800000D03*
%TO.P,U101,6,PA0*%
%TO.N,/POT_ENV*%
X46225000Y-46600000D03*
%TO.P,U101,7,PA1*%
%TO.N,unconnected-(U101-Pad7)*%
X46225000Y-47400000D03*
%TO.P,U101,8,PA2*%
%TO.N,/GATE*%
X46225000Y-48200000D03*
D22*
%TO.P,U101,9,PA3*%
%TO.N,/DAC_SPI_nSS*%
X47600000Y-49575000D03*
%TO.P,U101,10,PA4*%
%TO.N,unconnected-(U101-Pad10)*%
X48400000Y-49575000D03*
%TO.P,U101,11,PA5*%
%TO.N,/DAC_SPI_SCK*%
X49200000Y-49575000D03*
%TO.P,U101,12,PA6*%
%TO.N,unconnected-(U101-Pad12)*%
X50000000Y-49575000D03*
%TO.P,U101,13,PA7*%
%TO.N,/DAC_SPI_MOSI*%
X50800000Y-49575000D03*
%TO.P,U101,14,PB0*%
%TO.N,unconnected-(U101-Pad14)*%
X51600000Y-49575000D03*
%TO.P,U101,15,PB1*%
%TO.N,/DAC_SPI_nLDAC*%
X52400000Y-49575000D03*
%TO.P,U101,16,VSS*%
%TO.N,GND*%
X53200000Y-49575000D03*
D21*
%TO.P,U101,17,VDD*%
%TO.N,+3.3V*%
X54575000Y-48200000D03*
%TO.P,U101,18,PA8*%
%TO.N,unconnected-(U101-Pad18)*%
X54575000Y-47400000D03*
%TO.P,U101,19,PA9*%
%TO.N,unconnected-(U101-Pad19)*%
X54575000Y-46600000D03*
%TO.P,U101,20,PA10*%
%TO.N,unconnected-(U101-Pad20)*%
X54575000Y-45800000D03*
%TO.P,U101,21,PA11*%
%TO.N,unconnected-(U101-Pad21)*%
X54575000Y-45000000D03*
%TO.P,U101,22,PA12*%
%TO.N,unconnected-(U101-Pad22)*%
X54575000Y-44200000D03*
%TO.P,U101,23,PA13*%
%TO.N,/SYS_SWDIO*%
X54575000Y-43400000D03*
%TO.P,U101,24,PA14*%
%TO.N,/SYS_SWCLK*%
X54575000Y-42600000D03*
D22*
%TO.P,U101,25,PA15*%
%TO.N,unconnected-(U101-Pad25)*%
X53200000Y-41225000D03*
%TO.P,U101,26,PB3*%
%TO.N,unconnected-(U101-Pad26)*%
X52400000Y-41225000D03*
%TO.P,U101,27,PB4*%
%TO.N,/LED*%
X51600000Y-41225000D03*
%TO.P,U101,28,PB5*%
%TO.N,unconnected-(U101-Pad28)*%
X50800000Y-41225000D03*
%TO.P,U101,29,PB6*%
%TO.N,unconnected-(U101-Pad29)*%
X50000000Y-41225000D03*
%TO.P,U101,30,PB7*%
%TO.N,unconnected-(U101-Pad30)*%
X49200000Y-41225000D03*
%TO.P,U101,31,BOOT0*%
%TO.N,/BOOT0*%
X48400000Y-41225000D03*
%TO.P,U101,32,VSS*%
%TO.N,GND*%
X47600000Y-41225000D03*
%TD*%
D18*
%TO.P,C108,1*%
%TO.N,+3.3V*%
X55625000Y-32400000D03*
%TO.P,C108,2*%
%TO.N,GND*%
X57175000Y-32400000D03*
%TD*%
D13*
%TO.P,C101,1*%
%TO.N,+3.3VA*%
X43900000Y-46625000D03*
%TO.P,C101,2*%
%TO.N,GND*%
X43900000Y-48175000D03*
%TD*%
D23*
%TO.P,RV101,*%
%TO.N,*%
X39200000Y-43625000D03*
X29600000Y-43625000D03*
D24*
%TO.P,RV101,1,1*%
%TO.N,+3.3VA*%
X31900000Y-51125000D03*
D25*
%TO.P,RV101,2,2*%
%TO.N,/POT_ENV*%
X34400000Y-51125000D03*
%TO.P,RV101,3,3*%
%TO.N,GND*%
X36900000Y-51125000D03*
%TD*%
D26*
%TO.P,U103,1,IN*%
%TO.N,+5V*%
X55450000Y-36537500D03*
%TO.P,U103,2,GND*%
%TO.N,GND*%
X56400000Y-36537500D03*
%TO.P,U103,3,STBY*%
%TO.N,+5V*%
X57350000Y-36537500D03*
%TO.P,U103,4,NC*%
%TO.N,unconnected-(U103-Pad4)*%
X57350000Y-34262500D03*
%TO.P,U103,5,OUT*%
%TO.N,+3.3V*%
X55450000Y-34262500D03*
%TD*%
D16*
%TO.P,TP104,1,1*%
%TO.N,/SYS_SWDIO*%
X57400000Y-44400000D03*
%TD*%
D27*
%TO.P,R104,1*%
%TO.N,+3.3V*%
X40400000Y-33275000D03*
%TO.P,R104,2*%
%TO.N,/GATE*%
X40400000Y-31625000D03*
%TD*%
%TO.P,R101,1*%
%TO.N,/BOOT0*%
X48400000Y-38225000D03*
%TO.P,R101,2*%
%TO.N,GND*%
X48400000Y-36575000D03*
%TD*%
D28*
%TO.P,D101,1,K*%
%TO.N,Net-(D101-Pad1)*%
X50400000Y-36612500D03*
%TO.P,D101,2,A*%
%TO.N,/LED*%
X50400000Y-38187500D03*
%TD*%
D29*
%TO.P,U102,1,Vdd*%
%TO.N,+5V*%
X47125000Y-54495000D03*
%TO.P,U102,2,~{CS}*%
%TO.N,/DAC_SPI_nSS*%
X47125000Y-55765000D03*
%TO.P,U102,3,SCK*%
%TO.N,/DAC_SPI_SCK*%
X47125000Y-57035000D03*
%TO.P,U102,4,SDI*%
%TO.N,/DAC_SPI_MOSI*%
X47125000Y-58305000D03*
%TO.P,U102,5,~{LDAC}*%
%TO.N,/DAC_SPI_nLDAC*%
X52075000Y-58305000D03*
%TO.P,U102,6,Vref*%
%TO.N,+5V*%
X52075000Y-57035000D03*
%TO.P,U102,7,Vss*%
%TO.N,GND*%
X52075000Y-55765000D03*
%TO.P,U102,8,Vout*%
%TO.N,Net-(J102-PadT)*%
X52075000Y-54495000D03*
%TD*%
D20*
%TO.P,R102,1*%
%TO.N,Net-(D101-Pad1)*%
X52400000Y-36575000D03*
%TO.P,R102,2*%
%TO.N,GND*%
X52400000Y-38225000D03*
%TD*%
D30*
%TO.P,J103,1,Pin_1*%
%TO.N,Net-(J103-Pad1)*%
X68400000Y-45400000D03*
D31*
%TO.P,J103,2,Pin_2*%
%TO.N,GND*%
X70900000Y-45400000D03*
%TD*%
D32*
%TO.N,GND*%
X46500000Y-41200000D03*
X39400000Y-28400000D03*
X45400000Y-35900000D03*
X52400000Y-38900000D03*
X59900000Y-36800000D03*
X60900000Y-60900000D03*
X55600000Y-55600000D03*
X49400000Y-32400000D03*
X43300000Y-31500000D03*
X57400000Y-52900000D03*
X42400000Y-48900000D03*
X48552980Y-62853752D03*
X33600000Y-49300000D03*
X55400000Y-52900000D03*
X61900000Y-28900000D03*
X57900000Y-38400000D03*
X54000000Y-36000000D03*
X55800000Y-49200000D03*
X53400000Y-50900000D03*
X57900000Y-32400000D03*
X44600000Y-39500000D03*
X48400000Y-35900000D03*
X36100000Y-40400000D03*
X56400000Y-35400000D03*
X48400000Y-26900000D03*
X44600000Y-56900000D03*
X55600000Y-41100000D03*
X43900000Y-48900000D03*
X56200000Y-45600000D03*
X29400000Y-33400000D03*
X28269205Y-56363576D03*
X61300000Y-53400000D03*
X51900000Y-53300000D03*
X42600000Y-33700000D03*
X40200000Y-41300000D03*
X58800000Y-42800000D03*
X61100000Y-49300000D03*
X37500000Y-45400000D03*
X58800000Y-51900000D03*
X54100000Y-32100000D03*
X40600000Y-35400000D03*
X38900000Y-59400000D03*
%TD*%
D33*
%TO.N,+3.3V*%
X55450000Y-32575000D02*
X55625000Y-32400000D01*
X45400000Y-38175000D02*
X46125000Y-38175000D01*
X43400000Y-41400000D02*
X43400000Y-38400000D01*
X40400000Y-33400000D02*
X40400000Y-33275000D01*
X46125000Y-38175000D02*
X46900000Y-37400000D01*
X44600000Y-42600000D02*
X43400000Y-41400000D01*
X43400000Y-38400000D02*
X43400000Y-36275000D01*
X55450000Y-34262500D02*
X55450000Y-32575000D01*
X54575000Y-48200000D02*
X54575000Y-49700000D01*
X47900000Y-34900000D02*
X54812500Y-34900000D01*
X45400000Y-38175000D02*
X43625000Y-38175000D01*
X46225000Y-42600000D02*
X44600000Y-42600000D01*
X57400000Y-50625000D02*
X55400000Y-50625000D01*
X53200000Y-48200000D02*
X47600000Y-42600000D01*
X46900000Y-35900000D02*
X47900000Y-34900000D01*
X46900000Y-37400000D02*
X46900000Y-35900000D01*
X54575000Y-48200000D02*
X53200000Y-48200000D01*
X43625000Y-38175000D02*
X43400000Y-38400000D01*
X47600000Y-42600000D02*
X46225000Y-42600000D01*
X54812500Y-34900000D02*
X55450000Y-34262500D01*
X43400000Y-36275000D02*
X40400000Y-33275000D01*
X38956847Y-34843153D02*
X40400000Y-33400000D01*
X54575000Y-49700000D02*
X55400000Y-50525000D01*
%TO.N,+3.3VA*%
X44725000Y-45800000D02*
X43900000Y-46625000D01*
X34200000Y-46625000D02*
X34187500Y-46612500D01*
X36725000Y-46625000D02*
X34200000Y-46625000D01*
X34900000Y-38900000D02*
X34900000Y-39900000D01*
X34700000Y-46100000D02*
X35000000Y-46400000D01*
X34700000Y-46100000D02*
X34187500Y-46612500D01*
X31900000Y-48900000D02*
X34187500Y-46612500D01*
X37843153Y-35956847D02*
X34900000Y-38900000D01*
X46225000Y-45800000D02*
X44725000Y-45800000D01*
X43900000Y-46625000D02*
X42400000Y-46625000D01*
X34900000Y-45900000D02*
X34700000Y-46100000D01*
X34900000Y-45900000D02*
X35625000Y-46625000D01*
X42400000Y-46625000D02*
X36725000Y-46625000D01*
X34900000Y-39900000D02*
X34900000Y-45900000D01*
X31900000Y-51125000D02*
X31900000Y-48900000D01*
X35625000Y-46625000D02*
X36725000Y-46625000D01*
%TO.N,GND*%
X45400000Y-36625000D02*
X45400000Y-35900000D01*
X49400000Y-32400000D02*
X50400000Y-33400000D01*
X52400000Y-38900000D02*
X52400000Y-38225000D01*
X48400000Y-35900000D02*
X48400000Y-36575000D01*
X42400000Y-48900000D02*
X42400000Y-48175000D01*
X43300000Y-31500000D02*
X44400000Y-31500000D01*
X44600000Y-56900000D02*
X44600000Y-56175000D01*
X56400000Y-35400000D02*
X56400000Y-36537500D01*
X54460000Y-55765000D02*
X54600000Y-55625000D01*
X53200000Y-49575000D02*
X53200000Y-50700000D01*
X36175000Y-51850000D02*
X36900000Y-51125000D01*
X57400000Y-52900000D02*
X57400000Y-52175000D01*
X36175000Y-53400000D02*
X36175000Y-51850000D01*
X57900000Y-38400000D02*
X57175000Y-38400000D01*
X54600000Y-55625000D02*
X55375000Y-55625000D01*
X57900000Y-32400000D02*
X57175000Y-32400000D01*
X52075000Y-55765000D02*
X54460000Y-55765000D01*
X55400000Y-52900000D02*
X55400000Y-52075000D01*
X53200000Y-50700000D02*
X53400000Y-50900000D01*
%TO.N,+5V*%
X58037500Y-36537500D02*
X57350000Y-36537500D01*
X56400000Y-39900000D02*
X55625000Y-39125000D01*
X62900000Y-49400000D02*
X60000000Y-46500000D01*
X58900000Y-37400000D02*
X58037500Y-36537500D01*
X43600000Y-60400000D02*
X42600000Y-59400000D01*
X60000000Y-41000000D02*
X58900000Y-39900000D01*
X54460000Y-57035000D02*
X54600000Y-57175000D01*
X55450000Y-36537500D02*
X55450000Y-38225000D01*
X55450000Y-38225000D02*
X55625000Y-38400000D01*
X44730000Y-54495000D02*
X44600000Y-54625000D01*
X54600000Y-57175000D02*
X60100000Y-57175000D01*
X52075000Y-57035000D02*
X54460000Y-57035000D01*
X54600000Y-57175000D02*
X54600000Y-59400000D01*
X42600000Y-55400000D02*
X43375000Y-54625000D01*
X43375000Y-54625000D02*
X44600000Y-54625000D01*
X42600000Y-59400000D02*
X42600000Y-55400000D01*
X60125000Y-57175000D02*
X62900000Y-54400000D01*
X62900000Y-54400000D02*
X62900000Y-49400000D01*
X55625000Y-39125000D02*
X55625000Y-38400000D01*
X47125000Y-54495000D02*
X44730000Y-54495000D01*
X60000000Y-46500000D02*
X60000000Y-45400000D01*
X53600000Y-60400000D02*
X43600000Y-60400000D01*
X58900000Y-39900000D02*
X56400000Y-39900000D01*
X54600000Y-59400000D02*
X53600000Y-60400000D01*
X58900000Y-39900000D02*
X58900000Y-37400000D01*
X60000000Y-45400000D02*
X60000000Y-41000000D01*
%TO.N,/nRST*%
X41400000Y-42400000D02*
X43400000Y-44400000D01*
X46225000Y-45000000D02*
X44000000Y-45000000D01*
X41400000Y-38175000D02*
X41400000Y-42400000D01*
X44000000Y-45000000D02*
X43400000Y-44400000D01*
%TO.N,/POT_ENV*%
X34625000Y-51350000D02*
X34400000Y-51125000D01*
D34*
X46225000Y-46600000D02*
X45200000Y-46600000D01*
X44900000Y-49400000D02*
X39400000Y-54900000D01*
X35400000Y-54900000D02*
X34625000Y-54125000D01*
X45200000Y-46600000D02*
X44900000Y-46900000D01*
X44900000Y-46900000D02*
X44900000Y-49400000D01*
D33*
X34625000Y-53400000D02*
X34625000Y-51350000D01*
D34*
X34625000Y-54125000D02*
X34625000Y-53400000D01*
X35400000Y-54900000D02*
X39400000Y-54900000D01*
D33*
%TO.N,Net-(F101-Pad1)*%
X64337500Y-45400000D02*
X62800000Y-45400000D01*
%TO.N,Net-(J103-Pad1)*%
X66462500Y-45400000D02*
X68400000Y-45400000D01*
%TO.N,Net-(J102-PadT)*%
X52075000Y-54495000D02*
X57895000Y-54495000D01*
X57905000Y-54495000D02*
X61000000Y-51400000D01*
%TO.N,/BOOT0*%
X48400000Y-38225000D02*
X48400000Y-41225000D01*
%TO.N,/SYS_SWCLK*%
X54575000Y-42600000D02*
X56200000Y-42600000D01*
X56200000Y-42600000D02*
X57400000Y-41400000D01*
%TO.N,/SYS_SWDIO*%
X54575000Y-43400000D02*
X56400000Y-43400000D01*
X56400000Y-43400000D02*
X57400000Y-44400000D01*
D35*
%TO.N,/DAC_SPI_MOSI*%
X50000000Y-56900000D02*
X50000000Y-53000000D01*
X50800000Y-52200000D02*
X50150000Y-52850000D01*
X50000000Y-53000000D02*
X50150000Y-52850000D01*
X47125000Y-58305000D02*
X48595000Y-58305000D01*
X50800000Y-49575000D02*
X50800000Y-52200000D01*
X48595000Y-58305000D02*
X50000000Y-56900000D01*
%TO.N,/DAC_SPI_SCK*%
X48165000Y-57035000D02*
X49200000Y-56000000D01*
X47125000Y-57035000D02*
X48165000Y-57035000D01*
X49200000Y-56000000D02*
X49200000Y-52700000D01*
X49200000Y-52700000D02*
X49200000Y-49575000D01*
%TO.N,/DAC_SPI_nSS*%
X47600000Y-52000000D02*
X48600000Y-53000000D01*
X48600000Y-55400000D02*
X48235000Y-55765000D01*
X48600000Y-53000000D02*
X48600000Y-55400000D01*
X47600000Y-49575000D02*
X47600000Y-52000000D01*
X48235000Y-55765000D02*
X47125000Y-55765000D01*
%TO.N,/DAC_SPI_nLDAC*%
X51000000Y-58300000D02*
X50600000Y-57900000D01*
X52070000Y-58300000D02*
X51000000Y-58300000D01*
X50600000Y-53300000D02*
X52400000Y-51500000D01*
X50600000Y-57900000D02*
X50600000Y-53300000D01*
X52075000Y-58305000D02*
X52070000Y-58300000D01*
X52400000Y-51500000D02*
X52400000Y-49575000D01*
D33*
%TO.N,Net-(D101-Pad1)*%
X50437500Y-36575000D02*
X50400000Y-36612500D01*
X52400000Y-36575000D02*
X50437500Y-36575000D01*
%TO.N,/LED*%
X50400000Y-38900000D02*
X50400000Y-38187500D01*
X51600000Y-41225000D02*
X51600000Y-40100000D01*
X51600000Y-40100000D02*
X50400000Y-38900000D01*
%TO.N,Net-(J101-PadT)*%
X49400000Y-30900000D02*
X48725000Y-31575000D01*
X48725000Y-31575000D02*
X46400000Y-31575000D01*
X61000000Y-39400000D02*
X61000000Y-32500000D01*
X61000000Y-32500000D02*
X59400000Y-30900000D01*
X59400000Y-30900000D02*
X49400000Y-30900000D01*
%TO.N,Net-(Q101-Pad1)*%
X46225000Y-33400000D02*
X46400000Y-33225000D01*
X44400000Y-33400000D02*
X46225000Y-33400000D01*
%TO.N,/GATE*%
X33400000Y-45400000D02*
X33400000Y-37850000D01*
X29400000Y-49400000D02*
X33400000Y-45400000D01*
X46225000Y-48200000D02*
X46225000Y-49575000D01*
X40625000Y-31625000D02*
X41450000Y-32450000D01*
X41450000Y-32450000D02*
X42525000Y-32450000D01*
X39900000Y-55900000D02*
X32400000Y-55900000D01*
X32400000Y-55900000D02*
X29400000Y-52900000D01*
X33400000Y-37850000D02*
X39625000Y-31625000D01*
X39625000Y-31625000D02*
X40400000Y-31625000D01*
X40400000Y-31625000D02*
X40625000Y-31625000D01*
X29400000Y-52900000D02*
X29400000Y-49400000D01*
X46225000Y-49575000D02*
X39900000Y-55900000D01*
%TD*%
%TA.AperFunction,Conductor*%
%TO.N,GND*%
G36*
X73370018Y-25910000D02*
G01*
X73384851Y-25912310D01*
X73384855Y-25912310D01*
X73393724Y-25913691D01*
X73408981Y-25911696D01*
X73434302Y-25910953D01*
X73603285Y-25923039D01*
X73621064Y-25925596D01*
X73811392Y-25966999D01*
X73828641Y-25972063D01*
X74011150Y-26040136D01*
X74027502Y-26047604D01*
X74198458Y-26140952D01*
X74213582Y-26150672D01*
X74369514Y-26267402D01*
X74383100Y-26279175D01*
X74520825Y-26416900D01*
X74532598Y-26430486D01*
X74649328Y-26586418D01*
X74659048Y-26601542D01*
X74752396Y-26772498D01*
X74759864Y-26788850D01*
X74827937Y-26971359D01*
X74833001Y-26988607D01*
X74874404Y-27178936D01*
X74876962Y-27196721D01*
X74888540Y-27358601D01*
X74887793Y-27376565D01*
X74887692Y-27384845D01*
X74886309Y-27393724D01*
X74887474Y-27402630D01*
X74890436Y-27425283D01*
X74891500Y-27441621D01*
X74891500Y-63000633D01*
X74890000Y-63020018D01*
X74887690Y-63034851D01*
X74887690Y-63034855D01*
X74886309Y-63043724D01*
X74888136Y-63057693D01*
X74888304Y-63058976D01*
X74889047Y-63084305D01*
X74876962Y-63253279D01*
X74874404Y-63271064D01*
X74872986Y-63277586D01*
X74833001Y-63461392D01*
X74827937Y-63478641D01*
X74759864Y-63661150D01*
X74752396Y-63677502D01*
X74659048Y-63848458D01*
X74649328Y-63863582D01*
X74532598Y-64019514D01*
X74520825Y-64033100D01*
X74383100Y-64170825D01*
X74369514Y-64182598D01*
X74213582Y-64299328D01*
X74198458Y-64309048D01*
X74027502Y-64402396D01*
X74011150Y-64409864D01*
X73828641Y-64477937D01*
X73811393Y-64483001D01*
X73621064Y-64524404D01*
X73603285Y-64526961D01*
X73441395Y-64538540D01*
X73423435Y-64537793D01*
X73415155Y-64537692D01*
X73406276Y-64536309D01*
X73374714Y-64540436D01*
X73358379Y-64541500D01*
X27449367Y-64541500D01*
X27429982Y-64540000D01*
X27415149Y-64537690D01*
X27415145Y-64537690D01*
X27406276Y-64536309D01*
X27391019Y-64538304D01*
X27365698Y-64539047D01*
X27196715Y-64526961D01*
X27178936Y-64524404D01*
X26988607Y-64483001D01*
X26971359Y-64477937D01*
X26788850Y-64409864D01*
X26772498Y-64402396D01*
X26601542Y-64309048D01*
X26586418Y-64299328D01*
X26430486Y-64182598D01*
X26416900Y-64170825D01*
X26279175Y-64033100D01*
X26267402Y-64019514D01*
X26150672Y-63863582D01*
X26140952Y-63848458D01*
X26047604Y-63677502D01*
X26040136Y-63661150D01*
X25972063Y-63478641D01*
X25966999Y-63461392D01*
X25927014Y-63277586D01*
X25925596Y-63271064D01*
X25923038Y-63253278D01*
X25911719Y-63095012D01*
X25912805Y-63072245D01*
X25912334Y-63072203D01*
X25912770Y-63067345D01*
X25913576Y-63062552D01*
X25913729Y-63050000D01*
X25909773Y-63022376D01*
X25908500Y-63004514D01*
X25908500Y-62182703D01*
X30790743Y-62182703D01*
X30828268Y-62467734D01*
X30904129Y-62745036D01*
X30905813Y-62748984D01*
X31014807Y-63004514D01*
X31016923Y-63009476D01*
X31164561Y-63256161D01*
X31344313Y-63480528D01*
X31552851Y-63678423D01*
X31786317Y-63846186D01*
X31790112Y-63848195D01*
X31790113Y-63848196D01*
X31811869Y-63859715D01*
X32040392Y-63980712D01*
X32310373Y-64079511D01*
X32591264Y-64140755D01*
X32619841Y-64143004D01*
X32814282Y-64158307D01*
X32814291Y-64158307D01*
X32816739Y-64158500D01*
X32972271Y-64158500D01*
X32974407Y-64158354D01*
X32974418Y-64158354D01*
X33182548Y-64144165D01*
X33182554Y-64144164D01*
X33186825Y-64143873D01*
X33191020Y-64143004D01*
X33191022Y-64143004D01*
X33327584Y-64114723D01*
X33468342Y-64085574D01*
X33739343Y-63989607D01*
X33994812Y-63857750D01*
X33998313Y-63855289D01*
X33998317Y-63855287D01*
X34112417Y-63775096D01*
X34230023Y-63692441D01*
X34440622Y-63496740D01*
X34622713Y-63274268D01*
X34772927Y-63029142D01*
X34888483Y-62765898D01*
X34967244Y-62489406D01*
X35007751Y-62204784D01*
X35007845Y-62186951D01*
X35007867Y-62182703D01*
X65790743Y-62182703D01*
X65828268Y-62467734D01*
X65904129Y-62745036D01*
X65905813Y-62748984D01*
X66014807Y-63004514D01*
X66016923Y-63009476D01*
X66164561Y-63256161D01*
X66344313Y-63480528D01*
X66552851Y-63678423D01*
X66786317Y-63846186D01*
X66790112Y-63848195D01*
X66790113Y-63848196D01*
X66811869Y-63859715D01*
X67040392Y-63980712D01*
X67310373Y-64079511D01*
X67591264Y-64140755D01*
X67619841Y-64143004D01*
X67814282Y-64158307D01*
X67814291Y-64158307D01*
X67816739Y-64158500D01*
X67972271Y-64158500D01*
X67974407Y-64158354D01*
X67974418Y-64158354D01*
X68182548Y-64144165D01*
X68182554Y-64144164D01*
X68186825Y-64143873D01*
X68191020Y-64143004D01*
X68191022Y-64143004D01*
X68327584Y-64114723D01*
X68468342Y-64085574D01*
X68739343Y-63989607D01*
X68994812Y-63857750D01*
X68998313Y-63855289D01*
X68998317Y-63855287D01*
X69112417Y-63775096D01*
X69230023Y-63692441D01*
X69440622Y-63496740D01*
X69622713Y-63274268D01*
X69772927Y-63029142D01*
X69888483Y-62765898D01*
X69967244Y-62489406D01*
X70007751Y-62204784D01*
X70007845Y-62186951D01*
X70009235Y-61921583D01*
X70009235Y-61921576D01*
X70009257Y-61917297D01*
X69971732Y-61632266D01*
X69895871Y-61354964D01*
X69812683Y-61159933D01*
X69784763Y-61094476D01*
X69784761Y-61094472D01*
X69783077Y-61090524D01*
X69677979Y-60914918D01*
X69637643Y-60847521D01*
X69637640Y-60847517D01*
X69635439Y-60843839D01*
X69455687Y-60619472D01*
X69247149Y-60421577D01*
X69013683Y-60253814D01*
X68991843Y-60242250D01*
X68968654Y-60229972D01*
X68759608Y-60119288D01*
X68489627Y-60020489D01*
X68208736Y-59959245D01*
X68177685Y-59956801D01*
X67985718Y-59941693D01*
X67985709Y-59941693D01*
X67983261Y-59941500D01*
X67827729Y-59941500D01*
X67825593Y-59941646D01*
X67825582Y-59941646D01*
X67617452Y-59955835D01*
X67617446Y-59955836D01*
X67613175Y-59956127D01*
X67608980Y-59956996D01*
X67608978Y-59956996D01*
X67539501Y-59971384D01*
X67331658Y-60014426D01*
X67060657Y-60110393D01*
X66805188Y-60242250D01*
X66801687Y-60244711D01*
X66801683Y-60244713D01*
X66791594Y-60251804D01*
X66569977Y-60407559D01*
X66359378Y-60603260D01*
X66177287Y-60825732D01*
X66027073Y-61070858D01*
X66025347Y-61074791D01*
X66025346Y-61074792D01*
X65988581Y-61158546D01*
X65911517Y-61334102D01*
X65832756Y-61610594D01*
X65792249Y-61895216D01*
X65792227Y-61899505D01*
X65792226Y-61899512D01*
X65790765Y-62178417D01*
X65790743Y-62182703D01*
X35007867Y-62182703D01*
X35009235Y-61921583D01*
X35009235Y-61921576D01*
X35009257Y-61917297D01*
X34971732Y-61632266D01*
X34895871Y-61354964D01*
X34812683Y-61159933D01*
X34784763Y-61094476D01*
X34784761Y-61094472D01*
X34783077Y-61090524D01*
X34677979Y-60914918D01*
X34637643Y-60847521D01*
X34637640Y-60847517D01*
X34635439Y-60843839D01*
X34455687Y-60619472D01*
X34247149Y-60421577D01*
X34013683Y-60253814D01*
X33991843Y-60242250D01*
X33968654Y-60229972D01*
X33759608Y-60119288D01*
X33489627Y-60020489D01*
X33208736Y-59959245D01*
X33177685Y-59956801D01*
X32985718Y-59941693D01*
X32985709Y-59941693D01*
X32983261Y-59941500D01*
X32827729Y-59941500D01*
X32825593Y-59941646D01*
X32825582Y-59941646D01*
X32617452Y-59955835D01*
X32617446Y-59955836D01*
X32613175Y-59956127D01*
X32608980Y-59956996D01*
X32608978Y-59956996D01*
X32539501Y-59971384D01*
X32331658Y-60014426D01*
X32060657Y-60110393D01*
X31805188Y-60242250D01*
X31801687Y-60244711D01*
X31801683Y-60244713D01*
X31791594Y-60251804D01*
X31569977Y-60407559D01*
X31359378Y-60603260D01*
X31177287Y-60825732D01*
X31027073Y-61070858D01*
X31025347Y-61074791D01*
X31025346Y-61074792D01*
X30988581Y-61158546D01*
X30911517Y-61334102D01*
X30832756Y-61610594D01*
X30792249Y-61895216D01*
X30792227Y-61899505D01*
X30792226Y-61899512D01*
X30790765Y-62178417D01*
X30790743Y-62182703D01*
X25908500Y-62182703D01*
X25908500Y-52873349D01*
X28636801Y-52873349D01*
X28637394Y-52880641D01*
X28637394Y-52880644D01*
X28641085Y-52926018D01*
X28641500Y-52936233D01*
X28641500Y-52944293D01*
X28641925Y-52947937D01*
X28644789Y-52972507D01*
X28645222Y-52976882D01*
X28647679Y-53007082D01*
X28651140Y-53049637D01*
X28653396Y-53056601D01*
X28654587Y-53062560D01*
X28655971Y-53068415D01*
X28656818Y-53075681D01*
X28681735Y-53144327D01*
X28683152Y-53148455D01*
X28705649Y-53217899D01*
X28709445Y-53224154D01*
X28711951Y-53229628D01*
X28714670Y-53235058D01*
X28717167Y-53241937D01*
X28721180Y-53248057D01*
X28721180Y-53248058D01*
X28757186Y-53302976D01*
X28759523Y-53306680D01*
X28797405Y-53369107D01*
X28801121Y-53373315D01*
X28801122Y-53373316D01*
X28804803Y-53377484D01*
X28804776Y-53377508D01*
X28807429Y-53380500D01*
X28810132Y-53383733D01*
X28814144Y-53389852D01*
X28819456Y-53394884D01*
X28870383Y-53443128D01*
X28872825Y-53445506D01*
X31816230Y-56388911D01*
X31828616Y-56403323D01*
X31837149Y-56414918D01*
X31837154Y-56414923D01*
X31841492Y-56420818D01*
X31847070Y-56425557D01*
X31847073Y-56425560D01*
X31881768Y-56455035D01*
X31889284Y-56461965D01*
X31894980Y-56467661D01*
X31897841Y-56469924D01*
X31897846Y-56469929D01*
X31917266Y-56485293D01*
X31920667Y-56488082D01*
X31976285Y-56535333D01*
X31982798Y-56538659D01*
X31987837Y-56542020D01*
X31992979Y-56545196D01*
X31998716Y-56549734D01*
X32064875Y-56580655D01*
X32068769Y-56582558D01*
X32133808Y-56615769D01*
X32140917Y-56617508D01*
X32146551Y-56619604D01*
X32152321Y-56621523D01*
X32158950Y-56624622D01*
X32166113Y-56626112D01*
X32166116Y-56626113D01*
X32216830Y-56636661D01*
X32230435Y-56639491D01*
X32234701Y-56640457D01*
X32305610Y-56657808D01*
X32311212Y-56658156D01*
X32311215Y-56658156D01*
X32316764Y-56658500D01*
X32316762Y-56658535D01*
X32320734Y-56658775D01*
X32324955Y-56659152D01*
X32332115Y-56660641D01*
X32409542Y-56658546D01*
X32412950Y-56658500D01*
X39832930Y-56658500D01*
X39851880Y-56659933D01*
X39866115Y-56662099D01*
X39866119Y-56662099D01*
X39873349Y-56663199D01*
X39880641Y-56662606D01*
X39880644Y-56662606D01*
X39926018Y-56658915D01*
X39936233Y-56658500D01*
X39944293Y-56658500D01*
X39961680Y-56656473D01*
X39972507Y-56655211D01*
X39976882Y-56654778D01*
X40042339Y-56649454D01*
X40042342Y-56649453D01*
X40049637Y-56648860D01*
X40056601Y-56646604D01*
X40062560Y-56645413D01*
X40068415Y-56644029D01*
X40075681Y-56643182D01*
X40144327Y-56618265D01*
X40148455Y-56616848D01*
X40210936Y-56596607D01*
X40210938Y-56596606D01*
X40217899Y-56594351D01*
X40224154Y-56590555D01*
X40229628Y-56588049D01*
X40235058Y-56585330D01*
X40241937Y-56582833D01*
X40280643Y-56557456D01*
X40302976Y-56542814D01*
X40306680Y-56540477D01*
X40369107Y-56502595D01*
X40377484Y-56495197D01*
X40377508Y-56495224D01*
X40380500Y-56492571D01*
X40383733Y-56489868D01*
X40389852Y-56485856D01*
X40443128Y-56429617D01*
X40445506Y-56427175D01*
X41624362Y-55248319D01*
X41686674Y-55214293D01*
X41757489Y-55219358D01*
X41814325Y-55261905D01*
X41839411Y-55334006D01*
X41841454Y-55409520D01*
X41841500Y-55412928D01*
X41841500Y-59332930D01*
X41840067Y-59351880D01*
X41836801Y-59373349D01*
X41837394Y-59380641D01*
X41837394Y-59380644D01*
X41841085Y-59426018D01*
X41841500Y-59436233D01*
X41841500Y-59444293D01*
X41841925Y-59447937D01*
X41844789Y-59472507D01*
X41845222Y-59476882D01*
X41845328Y-59478178D01*
X41851140Y-59549637D01*
X41853396Y-59556601D01*
X41854587Y-59562560D01*
X41855971Y-59568415D01*
X41856818Y-59575681D01*
X41881735Y-59644327D01*
X41883152Y-59648455D01*
X41905649Y-59717899D01*
X41909445Y-59724154D01*
X41911951Y-59729628D01*
X41914670Y-59735058D01*
X41917167Y-59741937D01*
X41921180Y-59748057D01*
X41921180Y-59748058D01*
X41957186Y-59802976D01*
X41959523Y-59806680D01*
X41997405Y-59869107D01*
X42001121Y-59873315D01*
X42001122Y-59873316D01*
X42004803Y-59877484D01*
X42004776Y-59877508D01*
X42007429Y-59880500D01*
X42010132Y-59883733D01*
X42014144Y-59889852D01*
X42019456Y-59894884D01*
X42070383Y-59943128D01*
X42072825Y-59945506D01*
X43016230Y-60888911D01*
X43028616Y-60903323D01*
X43037149Y-60914918D01*
X43037154Y-60914923D01*
X43041492Y-60920818D01*
X43047070Y-60925557D01*
X43047073Y-60925560D01*
X43081768Y-60955035D01*
X43089284Y-60961965D01*
X43094980Y-60967661D01*
X43097841Y-60969924D01*
X43097846Y-60969929D01*
X43117266Y-60985293D01*
X43120667Y-60988082D01*
X43176285Y-61035333D01*
X43182805Y-61038662D01*
X43187852Y-61042028D01*
X43192976Y-61045193D01*
X43198717Y-61049735D01*
X43205348Y-61052834D01*
X43205351Y-61052836D01*
X43252330Y-61074792D01*
X43260949Y-61078820D01*
X43264830Y-61080634D01*
X43268776Y-61082562D01*
X43333808Y-61115769D01*
X43340914Y-61117508D01*
X43346564Y-61119609D01*
X43352321Y-61121524D01*
X43358950Y-61124622D01*
X43430435Y-61139491D01*
X43434701Y-61140457D01*
X43505610Y-61157808D01*
X43511212Y-61158156D01*
X43511215Y-61158156D01*
X43516764Y-61158500D01*
X43516762Y-61158535D01*
X43520734Y-61158775D01*
X43524955Y-61159152D01*
X43532115Y-61160641D01*
X43609542Y-61158546D01*
X43612950Y-61158500D01*
X53532930Y-61158500D01*
X53551880Y-61159933D01*
X53566115Y-61162099D01*
X53566119Y-61162099D01*
X53573349Y-61163199D01*
X53580641Y-61162606D01*
X53580644Y-61162606D01*
X53626018Y-61158915D01*
X53636233Y-61158500D01*
X53644293Y-61158500D01*
X53661680Y-61156473D01*
X53672507Y-61155211D01*
X53676882Y-61154778D01*
X53742339Y-61149454D01*
X53742342Y-61149453D01*
X53749637Y-61148860D01*
X53756601Y-61146604D01*
X53762560Y-61145413D01*
X53768415Y-61144029D01*
X53775681Y-61143182D01*
X53844327Y-61118265D01*
X53848455Y-61116848D01*
X53910936Y-61096607D01*
X53910938Y-61096606D01*
X53917899Y-61094351D01*
X53924154Y-61090555D01*
X53929628Y-61088049D01*
X53935058Y-61085330D01*
X53941937Y-61082833D01*
X53948058Y-61078820D01*
X54002976Y-61042814D01*
X54006680Y-61040477D01*
X54069107Y-61002595D01*
X54077484Y-60995197D01*
X54077508Y-60995224D01*
X54080500Y-60992571D01*
X54083733Y-60989868D01*
X54089852Y-60985856D01*
X54143128Y-60929617D01*
X54145506Y-60927175D01*
X55088911Y-59983770D01*
X55103323Y-59971384D01*
X55114918Y-59962851D01*
X55114923Y-59962846D01*
X55120818Y-59958508D01*
X55125557Y-59952930D01*
X55125560Y-59952927D01*
X55155035Y-59918232D01*
X55161965Y-59910716D01*
X55167661Y-59905020D01*
X55169924Y-59902159D01*
X55169929Y-59902154D01*
X55185293Y-59882734D01*
X55188082Y-59879333D01*
X55230592Y-59829296D01*
X55230594Y-59829294D01*
X55235333Y-59823715D01*
X55238662Y-59817195D01*
X55242028Y-59812148D01*
X55245193Y-59807024D01*
X55249735Y-59801283D01*
X55280637Y-59735164D01*
X55282565Y-59731218D01*
X55312442Y-59672708D01*
X55312443Y-59672706D01*
X55315769Y-59666192D01*
X55317508Y-59659086D01*
X55319609Y-59653436D01*
X55321524Y-59647679D01*
X55324622Y-59641050D01*
X55339491Y-59569565D01*
X55340461Y-59565282D01*
X55341172Y-59562376D01*
X55357808Y-59494390D01*
X55358500Y-59483236D01*
X55358535Y-59483238D01*
X55358775Y-59479266D01*
X55359152Y-59475045D01*
X55360641Y-59467885D01*
X55358546Y-59390458D01*
X55358500Y-59387050D01*
X55358500Y-58059500D01*
X55378502Y-57991379D01*
X55432158Y-57944886D01*
X55484500Y-57933500D01*
X60057930Y-57933500D01*
X60076880Y-57934933D01*
X60091115Y-57937099D01*
X60091119Y-57937099D01*
X60098349Y-57938199D01*
X60105641Y-57937606D01*
X60105644Y-57937606D01*
X60213374Y-57928843D01*
X60274637Y-57923860D01*
X60281596Y-57921606D01*
X60281599Y-57921605D01*
X60435933Y-57871608D01*
X60435936Y-57871607D01*
X60442899Y-57869351D01*
X60449154Y-57865555D01*
X60449157Y-57865554D01*
X60589314Y-57780504D01*
X60589318Y-57780501D01*
X60594107Y-57777595D01*
X60598306Y-57773886D01*
X60598311Y-57773883D01*
X60601019Y-57771491D01*
X60601023Y-57771488D01*
X60602484Y-57770197D01*
X63388911Y-54983770D01*
X63403323Y-54971384D01*
X63414918Y-54962851D01*
X63414923Y-54962846D01*
X63420818Y-54958508D01*
X63425557Y-54952930D01*
X63425560Y-54952927D01*
X63455035Y-54918232D01*
X63461965Y-54910716D01*
X63467661Y-54905020D01*
X63469924Y-54902159D01*
X63469929Y-54902154D01*
X63485285Y-54882744D01*
X63488074Y-54879342D01*
X63530596Y-54829291D01*
X63530597Y-54829290D01*
X63535333Y-54823715D01*
X63538661Y-54817198D01*
X63542027Y-54812150D01*
X63545190Y-54807028D01*
X63549735Y-54801284D01*
X63580664Y-54735105D01*
X63582563Y-54731221D01*
X63615769Y-54666192D01*
X63617510Y-54659077D01*
X63619613Y-54653422D01*
X63621522Y-54647683D01*
X63624622Y-54641050D01*
X63639491Y-54569565D01*
X63640461Y-54565282D01*
X63657808Y-54494390D01*
X63658500Y-54483236D01*
X63658535Y-54483238D01*
X63658775Y-54479266D01*
X63659152Y-54475045D01*
X63660641Y-54467885D01*
X63658546Y-54390458D01*
X63658500Y-54387050D01*
X63658500Y-51468278D01*
X64416408Y-51468278D01*
X64417064Y-51473398D01*
X64417064Y-51473400D01*
X64422944Y-51519302D01*
X64447750Y-51712936D01*
X64449235Y-51717887D01*
X64449236Y-51717890D01*
X64498751Y-51882930D01*
X64518630Y-51949191D01*
X64520899Y-51953823D01*
X64520900Y-51953825D01*
X64561553Y-52036808D01*
X64627144Y-52170697D01*
X64630143Y-52174902D01*
X64630144Y-52174903D01*
X64733467Y-52319756D01*
X64770379Y-52371505D01*
X64774024Y-52375162D01*
X64774025Y-52375164D01*
X64832133Y-52433475D01*
X64944488Y-52546223D01*
X65144795Y-52690158D01*
X65149431Y-52692449D01*
X65149434Y-52692451D01*
X65203731Y-52719286D01*
X65365921Y-52799445D01*
X65395606Y-52808464D01*
X65596974Y-52869645D01*
X65596980Y-52869646D01*
X65601926Y-52871149D01*
X65697041Y-52883671D01*
X65843152Y-52902907D01*
X65843158Y-52902907D01*
X65846474Y-52903344D01*
X65849825Y-52903426D01*
X65849826Y-52903426D01*
X65916635Y-52905059D01*
X65916640Y-52905059D01*
X65920000Y-52905141D01*
X66017060Y-52897161D01*
X66160678Y-52885354D01*
X66160684Y-52885353D01*
X66165829Y-52884930D01*
X66296241Y-52852173D01*
X66400044Y-52826100D01*
X66400048Y-52826099D01*
X66405055Y-52824841D01*
X66409788Y-52822783D01*
X66409791Y-52822782D01*
X66626519Y-52728546D01*
X66626522Y-52728544D01*
X66631256Y-52726486D01*
X66838355Y-52592508D01*
X66845707Y-52585819D01*
X67016968Y-52429982D01*
X67016969Y-52429980D01*
X67020790Y-52426504D01*
X67023989Y-52422453D01*
X67023993Y-52422449D01*
X67170462Y-52236987D01*
X67170464Y-52236983D01*
X67173664Y-52232932D01*
X67292869Y-52016992D01*
X67301344Y-51993062D01*
X67373480Y-51789357D01*
X67373481Y-51789353D01*
X67375206Y-51784482D01*
X67377554Y-51771304D01*
X67394557Y-51675844D01*
X67418461Y-51541646D01*
X67420192Y-51400000D01*
X67721634Y-51400000D01*
X67741066Y-51646911D01*
X67742220Y-51651718D01*
X67742221Y-51651724D01*
X67759469Y-51723566D01*
X67798885Y-51887742D01*
X67800778Y-51892313D01*
X67800779Y-51892315D01*
X67885110Y-52095906D01*
X67893666Y-52116563D01*
X68023075Y-52327740D01*
X68183927Y-52516073D01*
X68372260Y-52676925D01*
X68583437Y-52806334D01*
X68588007Y-52808227D01*
X68588011Y-52808229D01*
X68807685Y-52899221D01*
X68812258Y-52901115D01*
X68897170Y-52921501D01*
X69048276Y-52957779D01*
X69048282Y-52957780D01*
X69053089Y-52958934D01*
X69300000Y-52978366D01*
X69546911Y-52958934D01*
X69551718Y-52957780D01*
X69551724Y-52957779D01*
X69702830Y-52921501D01*
X69787742Y-52901115D01*
X69792315Y-52899221D01*
X70011989Y-52808229D01*
X70011993Y-52808227D01*
X70016563Y-52806334D01*
X70227740Y-52676925D01*
X70416073Y-52516073D01*
X70576925Y-52327740D01*
X70706334Y-52116563D01*
X70734592Y-52048342D01*
X70779141Y-51993062D01*
X70846504Y-51970641D01*
X70915295Y-51988199D01*
X70963674Y-52040162D01*
X70977001Y-52096561D01*
X70977001Y-52409669D01*
X70977371Y-52416490D01*
X70982895Y-52467352D01*
X70986521Y-52482604D01*
X71031676Y-52603054D01*
X71040214Y-52618649D01*
X71116715Y-52720724D01*
X71129276Y-52733285D01*
X71231351Y-52809786D01*
X71246946Y-52818324D01*
X71367394Y-52863478D01*
X71382649Y-52867105D01*
X71433514Y-52872631D01*
X71440328Y-52873000D01*
X72127885Y-52873000D01*
X72143124Y-52868525D01*
X72144329Y-52867135D01*
X72146000Y-52859452D01*
X72146000Y-52854884D01*
X72654000Y-52854884D01*
X72658475Y-52870123D01*
X72659865Y-52871328D01*
X72667548Y-52872999D01*
X73359669Y-52872999D01*
X73366490Y-52872629D01*
X73417352Y-52867105D01*
X73432604Y-52863479D01*
X73553054Y-52818324D01*
X73568649Y-52809786D01*
X73670724Y-52733285D01*
X73683285Y-52720724D01*
X73759786Y-52618649D01*
X73768324Y-52603054D01*
X73813478Y-52482606D01*
X73817105Y-52467351D01*
X73822631Y-52416486D01*
X73823000Y-52409672D01*
X73823000Y-51672115D01*
X73818525Y-51656876D01*
X73817135Y-51655671D01*
X73809452Y-51654000D01*
X72672115Y-51654000D01*
X72656876Y-51658475D01*
X72655671Y-51659865D01*
X72654000Y-51667548D01*
X72654000Y-52854884D01*
X72146000Y-52854884D01*
X72146000Y-51127885D01*
X72654000Y-51127885D01*
X72658475Y-51143124D01*
X72659865Y-51144329D01*
X72667548Y-51146000D01*
X73804884Y-51146000D01*
X73820123Y-51141525D01*
X73821328Y-51140135D01*
X73822999Y-51132452D01*
X73822999Y-50390331D01*
X73822629Y-50383510D01*
X73817105Y-50332648D01*
X73813479Y-50317396D01*
X73768324Y-50196946D01*
X73759786Y-50181351D01*
X73683285Y-50079276D01*
X73670724Y-50066715D01*
X73568649Y-49990214D01*
X73553054Y-49981676D01*
X73432606Y-49936522D01*
X73417351Y-49932895D01*
X73366486Y-49927369D01*
X73359672Y-49927000D01*
X72672115Y-49927000D01*
X72656876Y-49931475D01*
X72655671Y-49932865D01*
X72654000Y-49940548D01*
X72654000Y-51127885D01*
X72146000Y-51127885D01*
X72146000Y-49945116D01*
X72141525Y-49929877D01*
X72140135Y-49928672D01*
X72132452Y-49927001D01*
X71440331Y-49927001D01*
X71433510Y-49927371D01*
X71382648Y-49932895D01*
X71367396Y-49936521D01*
X71246946Y-49981676D01*
X71231351Y-49990214D01*
X71129276Y-50066715D01*
X71116715Y-50079276D01*
X71040214Y-50181351D01*
X71031676Y-50196946D01*
X70986522Y-50317394D01*
X70982895Y-50332649D01*
X70977369Y-50383514D01*
X70977000Y-50390328D01*
X70977000Y-50703438D01*
X70956998Y-50771559D01*
X70903342Y-50818052D01*
X70833068Y-50828156D01*
X70768488Y-50798662D01*
X70734591Y-50751656D01*
X70708229Y-50688011D01*
X70708227Y-50688007D01*
X70706334Y-50683437D01*
X70576925Y-50472260D01*
X70416073Y-50283927D01*
X70227740Y-50123075D01*
X70016563Y-49993666D01*
X70011993Y-49991773D01*
X70011989Y-49991771D01*
X69792315Y-49900779D01*
X69792313Y-49900778D01*
X69787742Y-49898885D01*
X69702830Y-49878499D01*
X69551724Y-49842221D01*
X69551718Y-49842220D01*
X69546911Y-49841066D01*
X69300000Y-49821634D01*
X69053089Y-49841066D01*
X69048282Y-49842220D01*
X69048276Y-49842221D01*
X68897170Y-49878499D01*
X68812258Y-49898885D01*
X68807687Y-49900778D01*
X68807685Y-49900779D01*
X68588011Y-49991771D01*
X68588007Y-49991773D01*
X68583437Y-49993666D01*
X68372260Y-50123075D01*
X68183927Y-50283927D01*
X68023075Y-50472260D01*
X67893666Y-50683437D01*
X67891773Y-50688007D01*
X67891771Y-50688011D01*
X67800779Y-50907685D01*
X67798885Y-50912258D01*
X67781385Y-50985150D01*
X67742221Y-51148276D01*
X67742220Y-51148282D01*
X67741066Y-51153089D01*
X67721634Y-51400000D01*
X67420192Y-51400000D01*
X67420726Y-51356301D01*
X67421412Y-51300177D01*
X67421412Y-51300175D01*
X67421475Y-51295007D01*
X67384165Y-51051187D01*
X67307534Y-50816734D01*
X67228522Y-50664953D01*
X67196029Y-50602535D01*
X67196028Y-50602534D01*
X67193640Y-50597946D01*
X67144662Y-50532712D01*
X67048647Y-50404832D01*
X67048645Y-50404829D01*
X67045542Y-50400697D01*
X66867216Y-50230286D01*
X66797477Y-50182713D01*
X66683277Y-50104812D01*
X66663452Y-50091288D01*
X66439722Y-49987436D01*
X66418953Y-49981676D01*
X66270651Y-49940548D01*
X66202035Y-49921519D01*
X65956774Y-49895308D01*
X65951622Y-49895605D01*
X65951618Y-49895605D01*
X65749586Y-49907255D01*
X65710525Y-49909507D01*
X65705479Y-49910644D01*
X65705473Y-49910645D01*
X65590650Y-49936522D01*
X65469901Y-49963734D01*
X65465119Y-49965676D01*
X65465115Y-49965677D01*
X65246153Y-50054588D01*
X65246151Y-50054589D01*
X65241366Y-50056532D01*
X65031055Y-50185411D01*
X65027149Y-50188795D01*
X65027147Y-50188796D01*
X65007772Y-50205579D01*
X64844618Y-50346908D01*
X64687061Y-50536687D01*
X64684459Y-50541139D01*
X64684456Y-50541144D01*
X64565220Y-50745192D01*
X64562615Y-50749650D01*
X64474623Y-50980079D01*
X64473592Y-50985147D01*
X64473591Y-50985150D01*
X64449302Y-51104535D01*
X64425447Y-51221785D01*
X64425257Y-51226960D01*
X64425257Y-51226962D01*
X64417284Y-51444395D01*
X64416408Y-51468278D01*
X63658500Y-51468278D01*
X63658500Y-49467063D01*
X63659933Y-49448114D01*
X63662097Y-49433886D01*
X63663198Y-49426651D01*
X63658915Y-49373990D01*
X63658500Y-49363777D01*
X63658500Y-49355707D01*
X63658078Y-49352087D01*
X63658077Y-49352069D01*
X63655208Y-49327461D01*
X63654775Y-49323086D01*
X63654586Y-49320755D01*
X63648860Y-49250363D01*
X63646604Y-49243399D01*
X63645413Y-49237440D01*
X63644029Y-49231585D01*
X63643182Y-49224319D01*
X63618265Y-49155673D01*
X63616848Y-49151545D01*
X63596607Y-49089064D01*
X63596606Y-49089062D01*
X63594351Y-49082101D01*
X63590555Y-49075846D01*
X63588049Y-49070372D01*
X63585330Y-49064942D01*
X63582833Y-49058063D01*
X63542809Y-48997016D01*
X63540472Y-48993312D01*
X63505509Y-48935693D01*
X63505505Y-48935688D01*
X63502595Y-48930892D01*
X63495197Y-48922516D01*
X63495223Y-48922493D01*
X63492574Y-48919503D01*
X63489866Y-48916264D01*
X63485856Y-48910148D01*
X63480549Y-48905121D01*
X63480546Y-48905117D01*
X63429617Y-48856872D01*
X63427175Y-48854494D01*
X61143465Y-46570784D01*
X61109439Y-46508472D01*
X61114504Y-46437657D01*
X61125301Y-46415572D01*
X61128107Y-46411021D01*
X61154055Y-46368925D01*
X61163274Y-46353970D01*
X61163275Y-46353967D01*
X61167115Y-46347738D01*
X61204491Y-46235053D01*
X61220632Y-46186389D01*
X61220632Y-46186387D01*
X61222797Y-46179861D01*
X61224336Y-46164847D01*
X61231177Y-46098070D01*
X61233500Y-46075400D01*
X61766500Y-46075400D01*
X61766837Y-46078646D01*
X61766837Y-46078650D01*
X61775781Y-46164847D01*
X61777474Y-46181166D01*
X61779655Y-46187702D01*
X61779655Y-46187704D01*
X61795786Y-46236055D01*
X61833450Y-46348946D01*
X61926522Y-46499348D01*
X62051697Y-46624305D01*
X62057927Y-46628145D01*
X62057928Y-46628146D01*
X62195090Y-46712694D01*
X62202262Y-46717115D01*
X62281196Y-46743296D01*
X62363611Y-46770632D01*
X62363613Y-46770632D01*
X62370139Y-46772797D01*
X62376975Y-46773497D01*
X62376978Y-46773498D01*
X62420031Y-46777909D01*
X62474600Y-46783500D01*
X63325400Y-46783500D01*
X63328646Y-46783163D01*
X63328650Y-46783163D01*
X63424308Y-46773238D01*
X63424312Y-46773237D01*
X63431166Y-46772526D01*
X63437702Y-46770345D01*
X63437704Y-46770345D01*
X63569806Y-46726272D01*
X63598946Y-46716550D01*
X63749348Y-46623478D01*
X63801950Y-46570784D01*
X63868121Y-46504498D01*
X63930404Y-46470419D01*
X63996961Y-46473923D01*
X64063735Y-46496071D01*
X64063737Y-46496071D01*
X64070269Y-46498238D01*
X64170428Y-46508500D01*
X64704572Y-46508500D01*
X64707818Y-46508163D01*
X64707822Y-46508163D01*
X64751094Y-46503673D01*
X64805982Y-46497978D01*
X64966849Y-46444308D01*
X65111055Y-46355071D01*
X65230864Y-46235053D01*
X65239276Y-46221407D01*
X65265666Y-46178593D01*
X65319849Y-46090692D01*
X65323843Y-46078650D01*
X65371072Y-45936262D01*
X65371072Y-45936260D01*
X65373238Y-45929731D01*
X65374712Y-45915344D01*
X65401554Y-45849617D01*
X65459669Y-45808836D01*
X65530607Y-45805948D01*
X65591845Y-45841870D01*
X65623941Y-45905198D01*
X65625383Y-45915186D01*
X65627022Y-45930982D01*
X65680692Y-46091849D01*
X65769929Y-46236055D01*
X65889947Y-46355864D01*
X65896177Y-46359704D01*
X65896178Y-46359705D01*
X65927514Y-46379020D01*
X66034308Y-46444849D01*
X66041256Y-46447154D01*
X66041257Y-46447154D01*
X66188738Y-46496072D01*
X66188740Y-46496072D01*
X66195269Y-46498238D01*
X66295428Y-46508500D01*
X66829572Y-46508500D01*
X66832818Y-46508163D01*
X66832822Y-46508163D01*
X66876094Y-46503673D01*
X66930982Y-46497978D01*
X66995845Y-46476338D01*
X67066792Y-46473752D01*
X67127877Y-46509936D01*
X67142863Y-46529557D01*
X67201522Y-46624348D01*
X67326697Y-46749305D01*
X67332927Y-46753145D01*
X67332928Y-46753146D01*
X67470090Y-46837694D01*
X67477262Y-46842115D01*
X67520701Y-46856523D01*
X67638611Y-46895632D01*
X67638613Y-46895632D01*
X67645139Y-46897797D01*
X67651975Y-46898497D01*
X67651978Y-46898498D01*
X67695031Y-46902909D01*
X67749600Y-46908500D01*
X69050400Y-46908500D01*
X69053646Y-46908163D01*
X69053650Y-46908163D01*
X69149308Y-46898238D01*
X69149312Y-46898237D01*
X69156166Y-46897526D01*
X69162702Y-46895345D01*
X69162704Y-46895345D01*
X69304439Y-46848058D01*
X69323946Y-46841550D01*
X69474348Y-46748478D01*
X69599305Y-46623303D01*
X69689353Y-46477220D01*
X69742124Y-46429727D01*
X69812196Y-46418303D01*
X69877320Y-46446577D01*
X69887782Y-46456364D01*
X69993234Y-46566906D01*
X70001186Y-46573941D01*
X70177525Y-46705141D01*
X70186562Y-46710745D01*
X70382484Y-46810357D01*
X70392335Y-46814357D01*
X70602240Y-46879534D01*
X70612624Y-46881817D01*
X70628043Y-46883861D01*
X70642207Y-46881665D01*
X70646000Y-46868478D01*
X70646000Y-46866192D01*
X71154000Y-46866192D01*
X71157973Y-46879723D01*
X71168580Y-46881248D01*
X71286421Y-46856523D01*
X71296617Y-46853463D01*
X71501029Y-46772737D01*
X71510561Y-46768006D01*
X71698462Y-46653984D01*
X71707052Y-46647720D01*
X71873052Y-46503673D01*
X71880472Y-46496042D01*
X72019826Y-46326089D01*
X72025850Y-46317322D01*
X72134576Y-46126318D01*
X72139041Y-46116654D01*
X72214031Y-45910059D01*
X72216802Y-45899792D01*
X72256123Y-45682345D01*
X72257056Y-45674116D01*
X72257268Y-45669624D01*
X72253525Y-45656876D01*
X72252135Y-45655671D01*
X72244452Y-45654000D01*
X71172115Y-45654000D01*
X71156876Y-45658475D01*
X71155671Y-45659865D01*
X71154000Y-45667548D01*
X71154000Y-46866192D01*
X70646000Y-46866192D01*
X70646000Y-45127885D01*
X71154000Y-45127885D01*
X71158475Y-45143124D01*
X71159865Y-45144329D01*
X71167548Y-45146000D01*
X72235970Y-45146000D01*
X72250648Y-45141690D01*
X72252711Y-45129807D01*
X72243876Y-45025675D01*
X72242086Y-45015203D01*
X72186870Y-44802465D01*
X72183335Y-44792425D01*
X72093063Y-44592030D01*
X72087894Y-44582744D01*
X71965150Y-44400425D01*
X71958481Y-44392130D01*
X71806772Y-44233100D01*
X71798814Y-44226059D01*
X71622475Y-44094859D01*
X71613438Y-44089255D01*
X71417516Y-43989643D01*
X71407665Y-43985643D01*
X71197760Y-43920466D01*
X71187376Y-43918183D01*
X71171957Y-43916139D01*
X71157793Y-43918335D01*
X71154000Y-43931522D01*
X71154000Y-45127885D01*
X70646000Y-45127885D01*
X70646000Y-43933808D01*
X70642027Y-43920277D01*
X70631420Y-43918752D01*
X70513579Y-43943477D01*
X70503383Y-43946537D01*
X70298971Y-44027263D01*
X70289439Y-44031994D01*
X70101538Y-44146016D01*
X70092948Y-44152280D01*
X69926948Y-44296327D01*
X69919530Y-44303956D01*
X69893609Y-44335569D01*
X69834949Y-44375564D01*
X69763979Y-44377496D01*
X69703230Y-44340752D01*
X69689030Y-44321982D01*
X69676518Y-44301762D01*
X69598478Y-44175652D01*
X69473303Y-44050695D01*
X69439170Y-44029655D01*
X69328968Y-43961725D01*
X69328966Y-43961724D01*
X69322738Y-43957885D01*
X69203498Y-43918335D01*
X69161389Y-43904368D01*
X69161387Y-43904368D01*
X69154861Y-43902203D01*
X69148025Y-43901503D01*
X69148022Y-43901502D01*
X69104969Y-43897091D01*
X69050400Y-43891500D01*
X67749600Y-43891500D01*
X67746354Y-43891837D01*
X67746350Y-43891837D01*
X67650692Y-43901762D01*
X67650688Y-43901763D01*
X67643834Y-43902474D01*
X67637298Y-43904655D01*
X67637296Y-43904655D01*
X67505194Y-43948728D01*
X67476054Y-43958450D01*
X67325652Y-44051522D01*
X67200695Y-44176697D01*
X67196855Y-44182927D01*
X67196854Y-44182928D01*
X67194895Y-44186106D01*
X67158300Y-44245475D01*
X67143003Y-44270291D01*
X67090231Y-44317784D01*
X67020159Y-44329208D01*
X66996079Y-44323769D01*
X66948321Y-44307928D01*
X66936262Y-44303928D01*
X66936260Y-44303928D01*
X66929731Y-44301762D01*
X66829572Y-44291500D01*
X66295428Y-44291500D01*
X66292182Y-44291837D01*
X66292178Y-44291837D01*
X66258397Y-44295342D01*
X66194018Y-44302022D01*
X66033151Y-44355692D01*
X65888945Y-44444929D01*
X65769136Y-44564947D01*
X65765296Y-44571177D01*
X65765295Y-44571178D01*
X65758166Y-44582744D01*
X65680151Y-44709308D01*
X65677846Y-44716256D01*
X65677846Y-44716257D01*
X65637777Y-44837061D01*
X65626762Y-44870269D01*
X65626061Y-44877113D01*
X65625288Y-44884656D01*
X65598446Y-44950383D01*
X65540331Y-44991164D01*
X65469393Y-44994052D01*
X65408155Y-44958130D01*
X65376059Y-44894802D01*
X65374617Y-44884814D01*
X65373690Y-44875876D01*
X65373689Y-44875872D01*
X65372978Y-44869018D01*
X65319308Y-44708151D01*
X65230071Y-44563945D01*
X65110053Y-44444136D01*
X65078829Y-44424889D01*
X65038451Y-44400000D01*
X64965692Y-44355151D01*
X64922281Y-44340752D01*
X64811262Y-44303928D01*
X64811260Y-44303928D01*
X64804731Y-44301762D01*
X64704572Y-44291500D01*
X64170428Y-44291500D01*
X64167182Y-44291837D01*
X64167178Y-44291837D01*
X64133397Y-44295342D01*
X64069018Y-44302022D01*
X63997307Y-44325947D01*
X63926359Y-44328531D01*
X63868415Y-44295596D01*
X63753488Y-44180870D01*
X63753483Y-44180866D01*
X63748303Y-44175695D01*
X63735563Y-44167842D01*
X63603968Y-44086725D01*
X63603966Y-44086724D01*
X63597738Y-44082885D01*
X63500688Y-44050695D01*
X63436389Y-44029368D01*
X63436387Y-44029368D01*
X63429861Y-44027203D01*
X63423025Y-44026503D01*
X63423022Y-44026502D01*
X63379969Y-44022091D01*
X63325400Y-44016500D01*
X62474600Y-44016500D01*
X62471354Y-44016837D01*
X62471350Y-44016837D01*
X62375692Y-44026762D01*
X62375688Y-44026763D01*
X62368834Y-44027474D01*
X62362298Y-44029655D01*
X62362296Y-44029655D01*
X62283733Y-44055866D01*
X62201054Y-44083450D01*
X62050652Y-44176522D01*
X61925695Y-44301697D01*
X61921855Y-44307927D01*
X61921854Y-44307928D01*
X61839778Y-44441080D01*
X61832885Y-44452262D01*
X61830581Y-44459209D01*
X61793443Y-44571178D01*
X61777203Y-44620139D01*
X61776503Y-44626975D01*
X61776502Y-44626978D01*
X61772141Y-44669540D01*
X61766500Y-44724600D01*
X61766500Y-46075400D01*
X61233500Y-46075400D01*
X61233500Y-44724600D01*
X61233163Y-44721350D01*
X61223238Y-44625692D01*
X61223237Y-44625688D01*
X61222526Y-44618834D01*
X61216243Y-44600000D01*
X61168868Y-44458002D01*
X61166550Y-44451054D01*
X61073478Y-44300652D01*
X60948303Y-44175695D01*
X60935563Y-44167842D01*
X60818384Y-44095611D01*
X60770890Y-44042838D01*
X60758500Y-43988351D01*
X60758500Y-41095666D01*
X60778502Y-41027545D01*
X60832158Y-40981052D01*
X60894385Y-40970054D01*
X61000000Y-40978366D01*
X61246911Y-40958934D01*
X61251718Y-40957780D01*
X61251724Y-40957779D01*
X61402830Y-40921501D01*
X61487742Y-40901115D01*
X61492315Y-40899221D01*
X61711989Y-40808229D01*
X61711993Y-40808227D01*
X61716563Y-40806334D01*
X61927740Y-40676925D01*
X62092716Y-40536022D01*
X62112317Y-40519281D01*
X62116073Y-40516073D01*
X62276925Y-40327740D01*
X62406334Y-40116563D01*
X62416584Y-40091819D01*
X62499221Y-39892315D01*
X62499222Y-39892313D01*
X62501115Y-39887742D01*
X62529293Y-39770372D01*
X62557779Y-39651724D01*
X62557780Y-39651718D01*
X62558934Y-39646911D01*
X62572992Y-39468278D01*
X64416408Y-39468278D01*
X64447750Y-39712936D01*
X64449235Y-39717887D01*
X64449236Y-39717890D01*
X64498751Y-39882930D01*
X64518630Y-39949191D01*
X64520899Y-39953823D01*
X64520900Y-39953825D01*
X64551845Y-40016992D01*
X64627144Y-40170697D01*
X64630143Y-40174902D01*
X64630144Y-40174903D01*
X64671536Y-40232932D01*
X64770379Y-40371505D01*
X64774024Y-40375162D01*
X64774025Y-40375164D01*
X64824401Y-40425716D01*
X64944488Y-40546223D01*
X65144795Y-40690158D01*
X65149431Y-40692449D01*
X65149434Y-40692451D01*
X65222467Y-40728546D01*
X65365921Y-40799445D01*
X65398716Y-40809409D01*
X65596974Y-40869645D01*
X65596980Y-40869646D01*
X65601926Y-40871149D01*
X65697041Y-40883671D01*
X65843152Y-40902907D01*
X65843158Y-40902907D01*
X65846474Y-40903344D01*
X65849825Y-40903426D01*
X65849826Y-40903426D01*
X65916635Y-40905059D01*
X65916640Y-40905059D01*
X65920000Y-40905141D01*
X66017060Y-40897161D01*
X66160678Y-40885354D01*
X66160684Y-40885353D01*
X66165829Y-40884930D01*
X66285448Y-40854884D01*
X66400044Y-40826100D01*
X66400048Y-40826099D01*
X66405055Y-40824841D01*
X66409788Y-40822783D01*
X66409791Y-40822782D01*
X66626519Y-40728546D01*
X66626522Y-40728544D01*
X66631256Y-40726486D01*
X66838355Y-40592508D01*
X66849283Y-40582565D01*
X67016968Y-40429982D01*
X67016969Y-40429980D01*
X67020790Y-40426504D01*
X67023989Y-40422453D01*
X67023993Y-40422449D01*
X67170462Y-40236987D01*
X67170464Y-40236983D01*
X67173664Y-40232932D01*
X67292869Y-40016992D01*
X67295350Y-40009988D01*
X67373480Y-39789357D01*
X67373481Y-39789353D01*
X67375206Y-39784482D01*
X67377720Y-39770372D01*
X67407624Y-39602484D01*
X67418461Y-39541646D01*
X67420192Y-39400000D01*
X67721634Y-39400000D01*
X67741066Y-39646911D01*
X67742220Y-39651718D01*
X67742221Y-39651724D01*
X67770707Y-39770372D01*
X67798885Y-39887742D01*
X67800778Y-39892313D01*
X67800779Y-39892315D01*
X67883417Y-40091819D01*
X67893666Y-40116563D01*
X68023075Y-40327740D01*
X68183927Y-40516073D01*
X68187683Y-40519281D01*
X68207284Y-40536022D01*
X68372260Y-40676925D01*
X68583437Y-40806334D01*
X68588007Y-40808227D01*
X68588011Y-40808229D01*
X68807685Y-40899221D01*
X68812258Y-40901115D01*
X68897170Y-40921501D01*
X69048276Y-40957779D01*
X69048282Y-40957780D01*
X69053089Y-40958934D01*
X69300000Y-40978366D01*
X69546911Y-40958934D01*
X69551718Y-40957780D01*
X69551724Y-40957779D01*
X69702830Y-40921501D01*
X69787742Y-40901115D01*
X69792315Y-40899221D01*
X70011989Y-40808229D01*
X70011993Y-40808227D01*
X70016563Y-40806334D01*
X70227740Y-40676925D01*
X70392716Y-40536022D01*
X70412317Y-40519281D01*
X70416073Y-40516073D01*
X70576925Y-40327740D01*
X70706334Y-40116563D01*
X70734592Y-40048342D01*
X70779141Y-39993062D01*
X70846504Y-39970641D01*
X70915295Y-39988199D01*
X70963674Y-40040162D01*
X70977001Y-40096561D01*
X70977001Y-40409669D01*
X70977371Y-40416490D01*
X70982895Y-40467352D01*
X70986521Y-40482604D01*
X71031676Y-40603054D01*
X71040214Y-40618649D01*
X71116715Y-40720724D01*
X71129276Y-40733285D01*
X71231351Y-40809786D01*
X71246946Y-40818324D01*
X71367394Y-40863478D01*
X71382649Y-40867105D01*
X71433514Y-40872631D01*
X71440328Y-40873000D01*
X72127885Y-40873000D01*
X72143124Y-40868525D01*
X72144329Y-40867135D01*
X72146000Y-40859452D01*
X72146000Y-40854884D01*
X72654000Y-40854884D01*
X72658475Y-40870123D01*
X72659865Y-40871328D01*
X72667548Y-40872999D01*
X73359669Y-40872999D01*
X73366490Y-40872629D01*
X73417352Y-40867105D01*
X73432604Y-40863479D01*
X73553054Y-40818324D01*
X73568649Y-40809786D01*
X73670724Y-40733285D01*
X73683285Y-40720724D01*
X73759786Y-40618649D01*
X73768324Y-40603054D01*
X73813478Y-40482606D01*
X73817105Y-40467351D01*
X73822631Y-40416486D01*
X73823000Y-40409672D01*
X73823000Y-39672115D01*
X73818525Y-39656876D01*
X73817135Y-39655671D01*
X73809452Y-39654000D01*
X72672115Y-39654000D01*
X72656876Y-39658475D01*
X72655671Y-39659865D01*
X72654000Y-39667548D01*
X72654000Y-40854884D01*
X72146000Y-40854884D01*
X72146000Y-39127885D01*
X72654000Y-39127885D01*
X72658475Y-39143124D01*
X72659865Y-39144329D01*
X72667548Y-39146000D01*
X73804884Y-39146000D01*
X73820123Y-39141525D01*
X73821328Y-39140135D01*
X73822999Y-39132452D01*
X73822999Y-38390331D01*
X73822629Y-38383510D01*
X73817105Y-38332648D01*
X73813479Y-38317396D01*
X73768324Y-38196946D01*
X73759786Y-38181351D01*
X73683285Y-38079276D01*
X73670724Y-38066715D01*
X73568649Y-37990214D01*
X73553054Y-37981676D01*
X73432606Y-37936522D01*
X73417351Y-37932895D01*
X73366486Y-37927369D01*
X73359672Y-37927000D01*
X72672115Y-37927000D01*
X72656876Y-37931475D01*
X72655671Y-37932865D01*
X72654000Y-37940548D01*
X72654000Y-39127885D01*
X72146000Y-39127885D01*
X72146000Y-37945116D01*
X72141525Y-37929877D01*
X72140135Y-37928672D01*
X72132452Y-37927001D01*
X71440331Y-37927001D01*
X71433510Y-37927371D01*
X71382648Y-37932895D01*
X71367396Y-37936521D01*
X71246946Y-37981676D01*
X71231351Y-37990214D01*
X71129276Y-38066715D01*
X71116715Y-38079276D01*
X71040214Y-38181351D01*
X71031676Y-38196946D01*
X70986522Y-38317394D01*
X70982895Y-38332649D01*
X70977369Y-38383514D01*
X70977000Y-38390328D01*
X70977000Y-38703438D01*
X70956998Y-38771559D01*
X70903342Y-38818052D01*
X70833068Y-38828156D01*
X70768488Y-38798662D01*
X70734591Y-38751656D01*
X70708229Y-38688011D01*
X70708227Y-38688007D01*
X70706334Y-38683437D01*
X70576925Y-38472260D01*
X70421756Y-38290581D01*
X70419281Y-38287683D01*
X70416073Y-38283927D01*
X70227740Y-38123075D01*
X70016563Y-37993666D01*
X70011993Y-37991773D01*
X70011989Y-37991771D01*
X69792315Y-37900779D01*
X69792313Y-37900778D01*
X69787742Y-37898885D01*
X69702830Y-37878499D01*
X69551724Y-37842221D01*
X69551718Y-37842220D01*
X69546911Y-37841066D01*
X69300000Y-37821634D01*
X69053089Y-37841066D01*
X69048282Y-37842220D01*
X69048276Y-37842221D01*
X68897170Y-37878499D01*
X68812258Y-37898885D01*
X68807687Y-37900778D01*
X68807685Y-37900779D01*
X68588011Y-37991771D01*
X68588007Y-37991773D01*
X68583437Y-37993666D01*
X68372260Y-38123075D01*
X68183927Y-38283927D01*
X68180719Y-38287683D01*
X68178244Y-38290581D01*
X68023075Y-38472260D01*
X67893666Y-38683437D01*
X67891773Y-38688007D01*
X67891771Y-38688011D01*
X67804015Y-38899872D01*
X67798885Y-38912258D01*
X67782413Y-38980869D01*
X67742221Y-39148276D01*
X67742220Y-39148282D01*
X67741066Y-39153089D01*
X67721634Y-39400000D01*
X67420192Y-39400000D01*
X67420252Y-39395070D01*
X67421412Y-39300177D01*
X67421412Y-39300175D01*
X67421475Y-39295007D01*
X67384165Y-39051187D01*
X67307534Y-38816734D01*
X67249449Y-38705153D01*
X67196029Y-38602535D01*
X67196028Y-38602534D01*
X67193640Y-38597946D01*
X67166232Y-38561441D01*
X67048647Y-38404832D01*
X67048645Y-38404829D01*
X67045542Y-38400697D01*
X66867216Y-38230286D01*
X66846818Y-38216371D01*
X66746955Y-38148250D01*
X66663452Y-38091288D01*
X66439722Y-37987436D01*
X66421513Y-37982386D01*
X66270651Y-37940548D01*
X66202035Y-37921519D01*
X65956774Y-37895308D01*
X65951622Y-37895605D01*
X65951618Y-37895605D01*
X65749586Y-37907255D01*
X65710525Y-37909507D01*
X65705479Y-37910644D01*
X65705473Y-37910645D01*
X65590650Y-37936522D01*
X65469901Y-37963734D01*
X65465119Y-37965676D01*
X65465115Y-37965677D01*
X65246153Y-38054588D01*
X65246151Y-38054589D01*
X65241366Y-38056532D01*
X65031055Y-38185411D01*
X65027149Y-38188795D01*
X65027147Y-38188796D01*
X65006905Y-38206330D01*
X64844618Y-38346908D01*
X64687061Y-38536687D01*
X64684459Y-38541139D01*
X64684456Y-38541144D01*
X64581782Y-38716849D01*
X64562615Y-38749650D01*
X64474623Y-38980079D01*
X64473592Y-38985147D01*
X64473591Y-38985150D01*
X64456581Y-39068756D01*
X64425447Y-39221785D01*
X64425257Y-39226960D01*
X64425257Y-39226962D01*
X64416909Y-39454628D01*
X64416408Y-39468278D01*
X62572992Y-39468278D01*
X62578366Y-39400000D01*
X62558934Y-39153089D01*
X62557780Y-39148282D01*
X62557779Y-39148276D01*
X62517587Y-38980869D01*
X62501115Y-38912258D01*
X62495985Y-38899872D01*
X62408229Y-38688011D01*
X62408227Y-38688007D01*
X62406334Y-38683437D01*
X62276925Y-38472260D01*
X62121756Y-38290581D01*
X62119281Y-38287683D01*
X62116073Y-38283927D01*
X61927740Y-38123075D01*
X61818665Y-38056234D01*
X61771034Y-38003586D01*
X61758500Y-37948801D01*
X61758500Y-32567070D01*
X61759933Y-32548120D01*
X61762099Y-32533885D01*
X61762099Y-32533881D01*
X61763199Y-32526651D01*
X61762483Y-32517842D01*
X61758915Y-32473982D01*
X61758500Y-32463767D01*
X61758500Y-32455707D01*
X61755209Y-32427480D01*
X61754778Y-32423121D01*
X61748860Y-32350364D01*
X61746605Y-32343403D01*
X61745418Y-32337463D01*
X61744029Y-32331588D01*
X61743182Y-32324319D01*
X61718264Y-32255670D01*
X61716847Y-32251542D01*
X61696607Y-32189064D01*
X61696606Y-32189062D01*
X61694351Y-32182101D01*
X61690555Y-32175846D01*
X61688049Y-32170372D01*
X61685330Y-32164942D01*
X61682833Y-32158063D01*
X61647756Y-32104562D01*
X61642814Y-32097024D01*
X61640467Y-32093305D01*
X61625536Y-32068699D01*
X61602595Y-32030893D01*
X61595197Y-32022516D01*
X61595224Y-32022492D01*
X61592571Y-32019500D01*
X61589868Y-32016267D01*
X61585856Y-32010148D01*
X61529617Y-31956872D01*
X61527175Y-31954494D01*
X59983770Y-30411089D01*
X59971384Y-30396677D01*
X59962851Y-30385082D01*
X59962846Y-30385077D01*
X59958508Y-30379182D01*
X59952930Y-30374443D01*
X59952927Y-30374440D01*
X59918232Y-30344965D01*
X59910716Y-30338035D01*
X59905021Y-30332340D01*
X59888736Y-30319456D01*
X59882749Y-30314719D01*
X59879345Y-30311928D01*
X59829297Y-30269409D01*
X59829295Y-30269408D01*
X59823715Y-30264667D01*
X59817199Y-30261339D01*
X59812150Y-30257972D01*
X59807021Y-30254805D01*
X59801284Y-30250266D01*
X59735125Y-30219345D01*
X59731225Y-30217439D01*
X59666192Y-30184231D01*
X59659084Y-30182492D01*
X59653441Y-30180393D01*
X59647678Y-30178476D01*
X59641050Y-30175378D01*
X59569583Y-30160513D01*
X59565299Y-30159543D01*
X59530958Y-30151140D01*
X59494390Y-30142192D01*
X59488788Y-30141844D01*
X59488785Y-30141844D01*
X59483236Y-30141500D01*
X59483238Y-30141464D01*
X59479245Y-30141225D01*
X59475053Y-30140851D01*
X59467885Y-30139360D01*
X59404120Y-30141085D01*
X59390479Y-30141454D01*
X59387072Y-30141500D01*
X49467069Y-30141500D01*
X49448121Y-30140067D01*
X49440780Y-30138950D01*
X49433883Y-30137901D01*
X49433881Y-30137901D01*
X49426651Y-30136801D01*
X49419359Y-30137394D01*
X49419356Y-30137394D01*
X49373982Y-30141085D01*
X49363767Y-30141500D01*
X49355707Y-30141500D01*
X49342417Y-30143049D01*
X49327493Y-30144789D01*
X49323118Y-30145222D01*
X49257661Y-30150546D01*
X49257658Y-30150547D01*
X49250363Y-30151140D01*
X49243399Y-30153396D01*
X49237440Y-30154587D01*
X49231585Y-30155971D01*
X49224319Y-30156818D01*
X49155673Y-30181735D01*
X49151545Y-30183152D01*
X49089064Y-30203393D01*
X49089062Y-30203394D01*
X49082101Y-30205649D01*
X49075846Y-30209445D01*
X49070372Y-30211951D01*
X49064942Y-30214670D01*
X49058063Y-30217167D01*
X49051943Y-30221180D01*
X49051942Y-30221180D01*
X48997024Y-30257186D01*
X48993320Y-30259523D01*
X48930893Y-30297405D01*
X48922516Y-30304803D01*
X48922492Y-30304776D01*
X48919500Y-30307429D01*
X48916267Y-30310132D01*
X48910148Y-30314144D01*
X48880951Y-30344965D01*
X48856872Y-30370383D01*
X48854494Y-30372825D01*
X48447724Y-30779595D01*
X48385412Y-30813621D01*
X48358629Y-30816500D01*
X47155743Y-30816500D01*
X47090472Y-30798276D01*
X47057757Y-30778463D01*
X46968699Y-30724528D01*
X46961452Y-30722257D01*
X46961450Y-30722256D01*
X46874083Y-30694877D01*
X46805062Y-30673247D01*
X46731635Y-30666500D01*
X46728737Y-30666500D01*
X46399140Y-30666501D01*
X46068366Y-30666501D01*
X46065508Y-30666764D01*
X46065499Y-30666764D01*
X46029996Y-30670026D01*
X45994938Y-30673247D01*
X45988560Y-30675246D01*
X45988559Y-30675246D01*
X45838550Y-30722256D01*
X45838548Y-30722257D01*
X45831301Y-30724528D01*
X45684619Y-30813361D01*
X45622109Y-30875871D01*
X45559801Y-30909894D01*
X45488985Y-30904830D01*
X45443922Y-30875869D01*
X45399604Y-30831551D01*
X45387178Y-30821911D01*
X45257721Y-30745352D01*
X45243290Y-30739107D01*
X45097435Y-30696731D01*
X45084833Y-30694430D01*
X45056416Y-30692193D01*
X45051486Y-30692000D01*
X44672115Y-30692000D01*
X44656876Y-30696475D01*
X44655671Y-30697865D01*
X44654000Y-30705548D01*
X44654000Y-32289884D01*
X44658475Y-32305123D01*
X44659865Y-32306328D01*
X44667548Y-32307999D01*
X45051484Y-32307999D01*
X45056420Y-32307805D01*
X45084836Y-32305570D01*
X45097431Y-32303270D01*
X45243290Y-32260893D01*
X45257721Y-32254648D01*
X45393249Y-32174498D01*
X45462066Y-32157039D01*
X45529397Y-32179556D01*
X45556540Y-32205203D01*
X45559426Y-32208883D01*
X45563361Y-32215381D01*
X45658885Y-32310905D01*
X45692911Y-32373217D01*
X45687846Y-32444032D01*
X45658885Y-32489095D01*
X45563361Y-32584619D01*
X45559425Y-32591118D01*
X45557754Y-32593249D01*
X45499980Y-32634512D01*
X45458602Y-32641500D01*
X45271254Y-32641500D01*
X45236102Y-32636497D01*
X45097511Y-32596233D01*
X45097507Y-32596232D01*
X45091331Y-32594438D01*
X45084926Y-32593934D01*
X45084921Y-32593933D01*
X45056458Y-32591693D01*
X45056450Y-32591693D01*
X45054002Y-32591500D01*
X43897000Y-32591500D01*
X43828879Y-32571498D01*
X43782386Y-32517842D01*
X43771000Y-32465500D01*
X43771000Y-32434000D01*
X43791002Y-32365879D01*
X43844658Y-32319386D01*
X43897000Y-32308000D01*
X44127885Y-32308000D01*
X44143124Y-32303525D01*
X44144329Y-32302135D01*
X44146000Y-32294452D01*
X44146000Y-31772115D01*
X44141525Y-31756876D01*
X44140135Y-31755671D01*
X44132452Y-31754000D01*
X43517342Y-31754000D01*
X43453203Y-31736453D01*
X43396493Y-31702915D01*
X43376101Y-31690855D01*
X43368490Y-31688644D01*
X43368488Y-31688643D01*
X43283506Y-31663954D01*
X43216331Y-31644438D01*
X43209926Y-31643934D01*
X43209921Y-31643933D01*
X43181458Y-31641693D01*
X43181450Y-31641693D01*
X43179002Y-31641500D01*
X41870998Y-31641500D01*
X41868550Y-31641693D01*
X41868542Y-31641693D01*
X41840079Y-31643933D01*
X41840074Y-31643934D01*
X41833669Y-31644438D01*
X41814913Y-31649887D01*
X41743919Y-31649685D01*
X41690666Y-31617985D01*
X41402806Y-31330125D01*
X41371667Y-31278709D01*
X41355965Y-31228605D01*
X43162561Y-31228605D01*
X43162601Y-31242706D01*
X43169870Y-31246000D01*
X44127885Y-31246000D01*
X44143124Y-31241525D01*
X44144329Y-31240135D01*
X44146000Y-31232452D01*
X44146000Y-30710116D01*
X44141525Y-30694877D01*
X44140135Y-30693672D01*
X44132452Y-30692001D01*
X43748517Y-30692001D01*
X43743580Y-30692195D01*
X43715164Y-30694430D01*
X43702569Y-30696730D01*
X43556710Y-30739107D01*
X43542279Y-30745352D01*
X43412822Y-30821911D01*
X43400396Y-30831551D01*
X43294051Y-30937896D01*
X43284411Y-30950322D01*
X43207852Y-31079779D01*
X43201607Y-31094210D01*
X43162561Y-31228605D01*
X41355965Y-31228605D01*
X41327744Y-31138550D01*
X41327743Y-31138548D01*
X41325472Y-31131301D01*
X41236639Y-30984619D01*
X41115381Y-30863361D01*
X40968699Y-30774528D01*
X40961452Y-30772257D01*
X40961450Y-30772256D01*
X40895164Y-30751483D01*
X40805062Y-30723247D01*
X40731635Y-30716500D01*
X40728737Y-30716500D01*
X40399140Y-30716501D01*
X40068366Y-30716501D01*
X40065508Y-30716764D01*
X40065499Y-30716764D01*
X40029996Y-30720026D01*
X39994938Y-30723247D01*
X39988560Y-30725246D01*
X39988559Y-30725246D01*
X39838550Y-30772256D01*
X39838548Y-30772257D01*
X39831301Y-30774528D01*
X39824805Y-30778462D01*
X39824803Y-30778463D01*
X39716061Y-30844319D01*
X39651595Y-30861114D01*
X39651651Y-30861802D01*
X39598991Y-30866085D01*
X39588777Y-30866500D01*
X39580707Y-30866500D01*
X39577087Y-30866922D01*
X39577069Y-30866923D01*
X39552461Y-30869792D01*
X39548100Y-30870224D01*
X39522981Y-30872267D01*
X39482661Y-30875546D01*
X39482658Y-30875547D01*
X39475363Y-30876140D01*
X39468399Y-30878396D01*
X39462440Y-30879587D01*
X39456585Y-30880971D01*
X39449319Y-30881818D01*
X39380673Y-30906735D01*
X39376545Y-30908152D01*
X39314064Y-30928393D01*
X39314062Y-30928394D01*
X39307101Y-30930649D01*
X39300846Y-30934445D01*
X39295372Y-30936951D01*
X39289942Y-30939670D01*
X39283063Y-30942167D01*
X39276943Y-30946180D01*
X39276942Y-30946180D01*
X39265966Y-30953376D01*
X39222016Y-30982191D01*
X39218327Y-30984518D01*
X39207448Y-30991120D01*
X39160693Y-31019491D01*
X39160688Y-31019495D01*
X39155892Y-31022405D01*
X39147516Y-31029803D01*
X39147493Y-31029777D01*
X39144503Y-31032426D01*
X39141264Y-31035134D01*
X39135148Y-31039144D01*
X39130121Y-31044451D01*
X39130117Y-31044454D01*
X39081872Y-31095383D01*
X39079494Y-31097825D01*
X32911089Y-37266230D01*
X32896677Y-37278616D01*
X32885082Y-37287149D01*
X32885077Y-37287154D01*
X32879182Y-37291492D01*
X32874443Y-37297070D01*
X32874440Y-37297073D01*
X32844965Y-37331768D01*
X32838035Y-37339284D01*
X32832340Y-37344979D01*
X32830060Y-37347861D01*
X32814719Y-37367251D01*
X32811928Y-37370655D01*
X32769409Y-37420703D01*
X32764667Y-37426285D01*
X32761339Y-37432801D01*
X32757972Y-37437850D01*
X32754805Y-37442979D01*
X32750266Y-37448716D01*
X32719345Y-37514875D01*
X32717442Y-37518769D01*
X32684231Y-37583808D01*
X32682492Y-37590916D01*
X32680393Y-37596559D01*
X32678476Y-37602322D01*
X32675378Y-37608950D01*
X32673888Y-37616112D01*
X32673888Y-37616113D01*
X32660514Y-37680412D01*
X32659544Y-37684696D01*
X32642192Y-37755610D01*
X32641500Y-37766764D01*
X32641464Y-37766762D01*
X32641225Y-37770755D01*
X32640851Y-37774947D01*
X32639360Y-37782115D01*
X32639558Y-37789432D01*
X32641454Y-37859521D01*
X32641500Y-37862928D01*
X32641500Y-45033629D01*
X32621498Y-45101750D01*
X32604595Y-45122724D01*
X28911089Y-48816230D01*
X28896677Y-48828616D01*
X28885082Y-48837149D01*
X28885077Y-48837154D01*
X28879182Y-48841492D01*
X28874443Y-48847070D01*
X28874440Y-48847073D01*
X28844965Y-48881768D01*
X28838035Y-48889284D01*
X28832340Y-48894979D01*
X28830060Y-48897861D01*
X28814719Y-48917251D01*
X28811928Y-48920655D01*
X28778565Y-48959926D01*
X28764667Y-48976285D01*
X28761339Y-48982801D01*
X28757972Y-48987850D01*
X28754805Y-48992979D01*
X28750266Y-48998716D01*
X28719345Y-49064875D01*
X28717442Y-49068769D01*
X28684231Y-49133808D01*
X28682492Y-49140916D01*
X28680393Y-49146559D01*
X28678476Y-49152322D01*
X28675378Y-49158950D01*
X28673888Y-49166112D01*
X28673888Y-49166113D01*
X28660514Y-49230412D01*
X28659544Y-49234696D01*
X28642192Y-49305610D01*
X28641500Y-49316764D01*
X28641464Y-49316762D01*
X28641225Y-49320755D01*
X28640851Y-49324947D01*
X28639360Y-49332115D01*
X28640217Y-49363777D01*
X28641454Y-49409521D01*
X28641500Y-49412928D01*
X28641500Y-52832930D01*
X28640067Y-52851880D01*
X28639976Y-52852478D01*
X28638303Y-52863478D01*
X28636801Y-52873349D01*
X25908500Y-52873349D01*
X25908500Y-43953884D01*
X27731500Y-43953884D01*
X27731665Y-43956152D01*
X27731665Y-43956164D01*
X27740003Y-44071075D01*
X27746125Y-44155451D01*
X27747109Y-44159906D01*
X27747109Y-44159909D01*
X27798228Y-44391443D01*
X27804585Y-44420237D01*
X27816718Y-44452262D01*
X27879827Y-44618834D01*
X27900655Y-44673810D01*
X27978241Y-44813492D01*
X28017770Y-44884656D01*
X28032324Y-44910859D01*
X28035096Y-44914491D01*
X28194015Y-45122724D01*
X28196833Y-45126417D01*
X28200099Y-45129610D01*
X28200101Y-45129612D01*
X28212456Y-45141690D01*
X28390736Y-45315970D01*
X28609972Y-45475547D01*
X28849947Y-45601804D01*
X28854248Y-45603323D01*
X28854253Y-45603325D01*
X28985674Y-45649734D01*
X29105634Y-45692096D01*
X29203653Y-45711415D01*
X29367206Y-45743652D01*
X29367212Y-45743653D01*
X29371678Y-45744533D01*
X29376232Y-45744760D01*
X29376234Y-45744760D01*
X29637936Y-45757789D01*
X29637942Y-45757789D01*
X29642505Y-45758016D01*
X29912441Y-45732262D01*
X29916870Y-45731178D01*
X29916877Y-45731177D01*
X30076584Y-45692096D01*
X30175832Y-45667810D01*
X30186950Y-45663307D01*
X30422931Y-45567725D01*
X30422932Y-45567725D01*
X30427160Y-45566012D01*
X30661161Y-45428999D01*
X30872932Y-45259641D01*
X30913760Y-45215935D01*
X31054921Y-45064824D01*
X31054923Y-45064821D01*
X31058037Y-45061488D01*
X31212598Y-44838688D01*
X31214627Y-44834610D01*
X31331346Y-44599997D01*
X31331347Y-44599994D01*
X31333379Y-44595910D01*
X31417847Y-44338240D01*
X31419963Y-44326054D01*
X31463579Y-44074856D01*
X31463580Y-44074848D01*
X31464235Y-44071075D01*
X31465641Y-44042838D01*
X31468422Y-43986971D01*
X31468422Y-43986963D01*
X31468500Y-43985400D01*
X31468500Y-43296116D01*
X31466328Y-43266170D01*
X31457674Y-43146908D01*
X31453875Y-43094549D01*
X31445246Y-43055464D01*
X31396400Y-42834223D01*
X31396399Y-42834219D01*
X31395415Y-42829763D01*
X31336296Y-42673721D01*
X31300963Y-42580460D01*
X31300962Y-42580457D01*
X31299345Y-42576190D01*
X31167676Y-42339141D01*
X31003167Y-42123583D01*
X30964537Y-42085819D01*
X30812531Y-41937224D01*
X30809264Y-41934030D01*
X30709866Y-41861680D01*
X30593721Y-41777141D01*
X30590028Y-41774453D01*
X30350053Y-41648196D01*
X30345752Y-41646677D01*
X30345747Y-41646675D01*
X30167998Y-41583906D01*
X30094366Y-41557904D01*
X29996347Y-41538585D01*
X29832794Y-41506348D01*
X29832788Y-41506347D01*
X29828322Y-41505467D01*
X29823768Y-41505240D01*
X29823766Y-41505240D01*
X29562064Y-41492211D01*
X29562058Y-41492211D01*
X29557495Y-41491984D01*
X29287559Y-41517738D01*
X29283130Y-41518822D01*
X29283123Y-41518823D01*
X29153069Y-41550648D01*
X29024168Y-41582190D01*
X29019933Y-41583905D01*
X29019931Y-41583906D01*
X28777069Y-41682275D01*
X28772840Y-41683988D01*
X28538839Y-41821001D01*
X28327068Y-41990359D01*
X28323947Y-41993700D01*
X28199224Y-42127215D01*
X28141963Y-42188512D01*
X27987402Y-42411312D01*
X27985374Y-42415388D01*
X27985373Y-42415390D01*
X27871584Y-42644115D01*
X27866621Y-42654090D01*
X27782153Y-42911760D01*
X27781373Y-42916251D01*
X27781373Y-42916252D01*
X27737721Y-43167660D01*
X27735765Y-43178925D01*
X27735574Y-43182762D01*
X27734146Y-43211457D01*
X27731500Y-43264600D01*
X27731500Y-43953884D01*
X25908500Y-43953884D01*
X25908500Y-28532703D01*
X30790743Y-28532703D01*
X30828268Y-28817734D01*
X30904129Y-29095036D01*
X31016923Y-29359476D01*
X31164561Y-29606161D01*
X31344313Y-29830528D01*
X31552851Y-30028423D01*
X31786317Y-30196186D01*
X31790112Y-30198195D01*
X31790113Y-30198196D01*
X31811869Y-30209715D01*
X32040392Y-30330712D01*
X32060403Y-30338035D01*
X32260033Y-30411089D01*
X32310373Y-30429511D01*
X32591264Y-30490755D01*
X32619841Y-30493004D01*
X32814282Y-30508307D01*
X32814291Y-30508307D01*
X32816739Y-30508500D01*
X32972271Y-30508500D01*
X32974407Y-30508354D01*
X32974418Y-30508354D01*
X33182548Y-30494165D01*
X33182554Y-30494164D01*
X33186825Y-30493873D01*
X33191020Y-30493004D01*
X33191022Y-30493004D01*
X33327584Y-30464723D01*
X33468342Y-30435574D01*
X33739343Y-30339607D01*
X33994812Y-30207750D01*
X33998313Y-30205289D01*
X33998317Y-30205287D01*
X34112417Y-30125096D01*
X34230023Y-30042441D01*
X34440622Y-29846740D01*
X34622713Y-29624268D01*
X34772927Y-29379142D01*
X34888483Y-29115898D01*
X34967244Y-28839406D01*
X35007751Y-28554784D01*
X35007845Y-28536951D01*
X35007867Y-28532703D01*
X65790743Y-28532703D01*
X65828268Y-28817734D01*
X65904129Y-29095036D01*
X66016923Y-29359476D01*
X66164561Y-29606161D01*
X66344313Y-29830528D01*
X66552851Y-30028423D01*
X66786317Y-30196186D01*
X66790112Y-30198195D01*
X66790113Y-30198196D01*
X66811869Y-30209715D01*
X67040392Y-30330712D01*
X67060403Y-30338035D01*
X67260033Y-30411089D01*
X67310373Y-30429511D01*
X67591264Y-30490755D01*
X67619841Y-30493004D01*
X67814282Y-30508307D01*
X67814291Y-30508307D01*
X67816739Y-30508500D01*
X67972271Y-30508500D01*
X67974407Y-30508354D01*
X67974418Y-30508354D01*
X68182548Y-30494165D01*
X68182554Y-30494164D01*
X68186825Y-30493873D01*
X68191020Y-30493004D01*
X68191022Y-30493004D01*
X68327584Y-30464723D01*
X68468342Y-30435574D01*
X68739343Y-30339607D01*
X68994812Y-30207750D01*
X68998313Y-30205289D01*
X68998317Y-30205287D01*
X69112417Y-30125096D01*
X69230023Y-30042441D01*
X69440622Y-29846740D01*
X69622713Y-29624268D01*
X69772927Y-29379142D01*
X69888483Y-29115898D01*
X69967244Y-28839406D01*
X70007751Y-28554784D01*
X70007845Y-28536951D01*
X70009235Y-28271583D01*
X70009235Y-28271576D01*
X70009257Y-28267297D01*
X69971732Y-27982266D01*
X69895871Y-27704964D01*
X69783077Y-27440524D01*
X69635439Y-27193839D01*
X69455687Y-26969472D01*
X69247149Y-26771577D01*
X69013683Y-26603814D01*
X68991843Y-26592250D01*
X68968654Y-26579972D01*
X68759608Y-26469288D01*
X68489627Y-26370489D01*
X68208736Y-26309245D01*
X68177685Y-26306801D01*
X67985718Y-26291693D01*
X67985709Y-26291693D01*
X67983261Y-26291500D01*
X67827729Y-26291500D01*
X67825593Y-26291646D01*
X67825582Y-26291646D01*
X67617452Y-26305835D01*
X67617446Y-26305836D01*
X67613175Y-26306127D01*
X67608980Y-26306996D01*
X67608978Y-26306996D01*
X67472417Y-26335276D01*
X67331658Y-26364426D01*
X67060657Y-26460393D01*
X66805188Y-26592250D01*
X66801687Y-26594711D01*
X66801683Y-26594713D01*
X66791594Y-26601804D01*
X66569977Y-26757559D01*
X66359378Y-26953260D01*
X66177287Y-27175732D01*
X66027073Y-27420858D01*
X66025347Y-27424791D01*
X66025346Y-27424792D01*
X66021559Y-27433420D01*
X65911517Y-27684102D01*
X65832756Y-27960594D01*
X65792249Y-28245216D01*
X65792227Y-28249505D01*
X65792226Y-28249512D01*
X65790765Y-28528417D01*
X65790743Y-28532703D01*
X35007867Y-28532703D01*
X35009235Y-28271583D01*
X35009235Y-28271576D01*
X35009257Y-28267297D01*
X34971732Y-27982266D01*
X34895871Y-27704964D01*
X34783077Y-27440524D01*
X34635439Y-27193839D01*
X34455687Y-26969472D01*
X34247149Y-26771577D01*
X34013683Y-26603814D01*
X33991843Y-26592250D01*
X33968654Y-26579972D01*
X33759608Y-26469288D01*
X33489627Y-26370489D01*
X33208736Y-26309245D01*
X33177685Y-26306801D01*
X32985718Y-26291693D01*
X32985709Y-26291693D01*
X32983261Y-26291500D01*
X32827729Y-26291500D01*
X32825593Y-26291646D01*
X32825582Y-26291646D01*
X32617452Y-26305835D01*
X32617446Y-26305836D01*
X32613175Y-26306127D01*
X32608980Y-26306996D01*
X32608978Y-26306996D01*
X32472417Y-26335276D01*
X32331658Y-26364426D01*
X32060657Y-26460393D01*
X31805188Y-26592250D01*
X31801687Y-26594711D01*
X31801683Y-26594713D01*
X31791594Y-26601804D01*
X31569977Y-26757559D01*
X31359378Y-26953260D01*
X31177287Y-27175732D01*
X31027073Y-27420858D01*
X31025347Y-27424791D01*
X31025346Y-27424792D01*
X31021559Y-27433420D01*
X30911517Y-27684102D01*
X30832756Y-27960594D01*
X30792249Y-28245216D01*
X30792227Y-28249505D01*
X30792226Y-28249512D01*
X30790765Y-28528417D01*
X30790743Y-28532703D01*
X25908500Y-28532703D01*
X25908500Y-27453250D01*
X25910246Y-27432345D01*
X25912770Y-27417344D01*
X25912770Y-27417341D01*
X25913576Y-27412552D01*
X25913729Y-27400000D01*
X25913040Y-27395186D01*
X25913039Y-27395176D01*
X25912157Y-27389017D01*
X25911206Y-27362172D01*
X25923038Y-27196723D01*
X25925596Y-27178934D01*
X25966999Y-26988607D01*
X25972063Y-26971359D01*
X26040136Y-26788850D01*
X26047604Y-26772498D01*
X26140952Y-26601542D01*
X26150672Y-26586418D01*
X26267402Y-26430486D01*
X26279175Y-26416900D01*
X26416900Y-26279175D01*
X26430486Y-26267402D01*
X26586418Y-26150672D01*
X26601542Y-26140952D01*
X26772498Y-26047604D01*
X26788850Y-26040136D01*
X26971359Y-25972063D01*
X26988608Y-25966999D01*
X27178936Y-25925596D01*
X27196715Y-25923039D01*
X27358605Y-25911460D01*
X27376565Y-25912207D01*
X27384845Y-25912308D01*
X27393724Y-25913691D01*
X27425286Y-25909564D01*
X27441621Y-25908500D01*
X73350633Y-25908500D01*
X73370018Y-25910000D01*
G37*
%TD.AperFunction*%
%TA.AperFunction,Conductor*%
G36*
X43560495Y-55616352D02*
G01*
X43617331Y-55658899D01*
X43642142Y-55725419D01*
X43636056Y-55774075D01*
X43629510Y-55793811D01*
X43626642Y-55807190D01*
X43617328Y-55898097D01*
X43617071Y-55903126D01*
X43621475Y-55918124D01*
X43622865Y-55919329D01*
X43630548Y-55921000D01*
X44728000Y-55921000D01*
X44796121Y-55941002D01*
X44842614Y-55994658D01*
X44854000Y-56047000D01*
X44854000Y-57114885D01*
X44858475Y-57130124D01*
X44859865Y-57131329D01*
X44867548Y-57133000D01*
X44895438Y-57133000D01*
X44901953Y-57132663D01*
X44994057Y-57123106D01*
X45007456Y-57120212D01*
X45156107Y-57070619D01*
X45169286Y-57064445D01*
X45302173Y-56982212D01*
X45313574Y-56973176D01*
X45426327Y-56860226D01*
X45488609Y-56826147D01*
X45559429Y-56831150D01*
X45616302Y-56873647D01*
X45641171Y-56940146D01*
X45641500Y-56949244D01*
X45641500Y-57251502D01*
X45644438Y-57288831D01*
X45690855Y-57448601D01*
X45775547Y-57591807D01*
X45778229Y-57594489D01*
X45803502Y-57658861D01*
X45789600Y-57728484D01*
X45779428Y-57744312D01*
X45775547Y-57748193D01*
X45690855Y-57891399D01*
X45688644Y-57899010D01*
X45688643Y-57899012D01*
X45682079Y-57921605D01*
X45644438Y-58051169D01*
X45643934Y-58057574D01*
X45643933Y-58057579D01*
X45641693Y-58086042D01*
X45641500Y-58088498D01*
X45641500Y-58521502D01*
X45644438Y-58558831D01*
X45690855Y-58718601D01*
X45694892Y-58725427D01*
X45771509Y-58854980D01*
X45771511Y-58854983D01*
X45775547Y-58861807D01*
X45893193Y-58979453D01*
X45900017Y-58983489D01*
X45900020Y-58983491D01*
X45984799Y-59033629D01*
X46036399Y-59064145D01*
X46044010Y-59066356D01*
X46044012Y-59066357D01*
X46096231Y-59081528D01*
X46196169Y-59110562D01*
X46202574Y-59111066D01*
X46202579Y-59111067D01*
X46231042Y-59113307D01*
X46231050Y-59113307D01*
X46233498Y-59113500D01*
X48016502Y-59113500D01*
X48018950Y-59113307D01*
X48018958Y-59113307D01*
X48047421Y-59111067D01*
X48047426Y-59111066D01*
X48053831Y-59110562D01*
X48153769Y-59081528D01*
X48205988Y-59066357D01*
X48205990Y-59066356D01*
X48213601Y-59064145D01*
X48354111Y-58981047D01*
X48418251Y-58963500D01*
X48512944Y-58963500D01*
X48524800Y-58964059D01*
X48524803Y-58964059D01*
X48532537Y-58965788D01*
X48603369Y-58963562D01*
X48607327Y-58963500D01*
X48636432Y-58963500D01*
X48640832Y-58962944D01*
X48652664Y-58962012D01*
X48698831Y-58960562D01*
X48719421Y-58954580D01*
X48738782Y-58950570D01*
X48745770Y-58949688D01*
X48752204Y-58948875D01*
X48752205Y-58948875D01*
X48760064Y-58947882D01*
X48767429Y-58944966D01*
X48767433Y-58944965D01*
X48803021Y-58930874D01*
X48814231Y-58927035D01*
X48858600Y-58914145D01*
X48877065Y-58903225D01*
X48894805Y-58894534D01*
X48914756Y-58886635D01*
X48952129Y-58859482D01*
X48962048Y-58852967D01*
X48994977Y-58833493D01*
X48994981Y-58833490D01*
X49001807Y-58829453D01*
X49016971Y-58814289D01*
X49032005Y-58801448D01*
X49049357Y-58788841D01*
X49078803Y-58753247D01*
X49086792Y-58744468D01*
X49767332Y-58063928D01*
X49829644Y-58029902D01*
X49900459Y-58034967D01*
X49957295Y-58077514D01*
X49973566Y-58106608D01*
X49974114Y-58107991D01*
X49977965Y-58119231D01*
X49990855Y-58163600D01*
X50001775Y-58182065D01*
X50010466Y-58199805D01*
X50018365Y-58219756D01*
X50045516Y-58257126D01*
X50052033Y-58267048D01*
X50071507Y-58299977D01*
X50071510Y-58299981D01*
X50075547Y-58306807D01*
X50090711Y-58321971D01*
X50103551Y-58337004D01*
X50116159Y-58354357D01*
X50122265Y-58359408D01*
X50151753Y-58383803D01*
X50160532Y-58391792D01*
X50476346Y-58707605D01*
X50484336Y-58716385D01*
X50488584Y-58723080D01*
X50515839Y-58748674D01*
X50540273Y-58771619D01*
X50543115Y-58774374D01*
X50563667Y-58794926D01*
X50566801Y-58797357D01*
X50567163Y-58797638D01*
X50576191Y-58805348D01*
X50609867Y-58836972D01*
X50616818Y-58840793D01*
X50616819Y-58840794D01*
X50628655Y-58847301D01*
X50645184Y-58858158D01*
X50655869Y-58866447D01*
X50655871Y-58866448D01*
X50662131Y-58871304D01*
X50704544Y-58889657D01*
X50715181Y-58894868D01*
X50755663Y-58917124D01*
X50763341Y-58919095D01*
X50770715Y-58922015D01*
X50769578Y-58924886D01*
X50813945Y-58950205D01*
X50843193Y-58979453D01*
X50850017Y-58983489D01*
X50850020Y-58983491D01*
X50934799Y-59033629D01*
X50986399Y-59064145D01*
X50994010Y-59066356D01*
X50994012Y-59066357D01*
X51046231Y-59081528D01*
X51146169Y-59110562D01*
X51152574Y-59111066D01*
X51152579Y-59111067D01*
X51181042Y-59113307D01*
X51181050Y-59113307D01*
X51183498Y-59113500D01*
X52966502Y-59113500D01*
X52968950Y-59113307D01*
X52968958Y-59113307D01*
X52997421Y-59111067D01*
X52997426Y-59111066D01*
X53003831Y-59110562D01*
X53103769Y-59081528D01*
X53155988Y-59066357D01*
X53155990Y-59066356D01*
X53163601Y-59064145D01*
X53215201Y-59033629D01*
X53299980Y-58983491D01*
X53299983Y-58983489D01*
X53306807Y-58979453D01*
X53424453Y-58861807D01*
X53428489Y-58854983D01*
X53428491Y-58854980D01*
X53505108Y-58725427D01*
X53509145Y-58718601D01*
X53555562Y-58558831D01*
X53558500Y-58521502D01*
X53558500Y-58088498D01*
X53558307Y-58086042D01*
X53556067Y-58057579D01*
X53556066Y-58057574D01*
X53555562Y-58051169D01*
X53553768Y-58044993D01*
X53553767Y-58044989D01*
X53527522Y-57954652D01*
X53527725Y-57883656D01*
X53566279Y-57824040D01*
X53630944Y-57794732D01*
X53648519Y-57793500D01*
X53660691Y-57793500D01*
X53728812Y-57813502D01*
X53762091Y-57847356D01*
X53762851Y-57846753D01*
X53767394Y-57852485D01*
X53771248Y-57858713D01*
X53796235Y-57883656D01*
X53804518Y-57891925D01*
X53838597Y-57954207D01*
X53841500Y-57981098D01*
X53841500Y-59033629D01*
X53821498Y-59101750D01*
X53804595Y-59122724D01*
X53322724Y-59604595D01*
X53260412Y-59638621D01*
X53233629Y-59641500D01*
X43966371Y-59641500D01*
X43898250Y-59621498D01*
X43877276Y-59604595D01*
X43395405Y-59122724D01*
X43361379Y-59060412D01*
X43358500Y-59033629D01*
X43358500Y-56445438D01*
X43617000Y-56445438D01*
X43617337Y-56451953D01*
X43626894Y-56544057D01*
X43629788Y-56557456D01*
X43679381Y-56706107D01*
X43685555Y-56719286D01*
X43767788Y-56852173D01*
X43776824Y-56863574D01*
X43887429Y-56973986D01*
X43898840Y-56982998D01*
X44031880Y-57065004D01*
X44045061Y-57071151D01*
X44193814Y-57120491D01*
X44207190Y-57123358D01*
X44298097Y-57132672D01*
X44304513Y-57133000D01*
X44327885Y-57133000D01*
X44343124Y-57128525D01*
X44344329Y-57127135D01*
X44346000Y-57119452D01*
X44346000Y-56447115D01*
X44341525Y-56431876D01*
X44340135Y-56430671D01*
X44332452Y-56429000D01*
X43635115Y-56429000D01*
X43619876Y-56433475D01*
X43618671Y-56434865D01*
X43617000Y-56442548D01*
X43617000Y-56445438D01*
X43358500Y-56445438D01*
X43358500Y-55766371D01*
X43378502Y-55698250D01*
X43395405Y-55677276D01*
X43427368Y-55645313D01*
X43489680Y-55611287D01*
X43560495Y-55616352D01*
G37*
%TD.AperFunction*%
%TA.AperFunction,Conductor*%
G36*
X62068658Y-52653434D02*
G01*
X62121981Y-52700308D01*
X62141500Y-52767672D01*
X62141500Y-54033630D01*
X62121498Y-54101751D01*
X62104595Y-54122725D01*
X59847724Y-56379595D01*
X59785412Y-56413621D01*
X59758629Y-56416500D01*
X55587583Y-56416500D01*
X55519462Y-56396498D01*
X55472969Y-56342842D01*
X55462865Y-56272568D01*
X55480323Y-56224384D01*
X55515004Y-56168120D01*
X55521151Y-56154939D01*
X55570491Y-56006186D01*
X55573358Y-55992810D01*
X55582672Y-55901903D01*
X55582929Y-55896874D01*
X55578525Y-55881876D01*
X55577135Y-55880671D01*
X55569452Y-55879000D01*
X53635115Y-55879000D01*
X53619876Y-55883475D01*
X53618671Y-55884865D01*
X53617000Y-55892548D01*
X53617000Y-55893000D01*
X53616621Y-55894292D01*
X53614121Y-55905783D01*
X53613299Y-55905604D01*
X53596998Y-55961121D01*
X53543342Y-56007614D01*
X53491000Y-56019000D01*
X51947000Y-56019000D01*
X51878879Y-55998998D01*
X51832386Y-55945342D01*
X51821000Y-55893000D01*
X51821000Y-55637000D01*
X51841002Y-55568879D01*
X51894658Y-55522386D01*
X51947000Y-55511000D01*
X53536878Y-55511000D01*
X53550409Y-55507027D01*
X53554429Y-55479067D01*
X53583922Y-55414487D01*
X53643649Y-55376104D01*
X53679146Y-55371000D01*
X55564885Y-55371000D01*
X55580124Y-55366525D01*
X55581329Y-55365135D01*
X55584030Y-55352717D01*
X55618055Y-55290405D01*
X55680367Y-55256380D01*
X55707151Y-55253500D01*
X57837930Y-55253500D01*
X57856880Y-55254933D01*
X57871115Y-55257099D01*
X57871119Y-55257099D01*
X57878349Y-55258199D01*
X57885641Y-55257606D01*
X57885645Y-55257606D01*
X57935867Y-55253521D01*
X57936167Y-55253500D01*
X57939293Y-55253500D01*
X57942919Y-55253077D01*
X57942938Y-55253076D01*
X57944443Y-55252900D01*
X57948828Y-55252466D01*
X58054637Y-55243860D01*
X58061596Y-55241606D01*
X58061599Y-55241605D01*
X58215933Y-55191608D01*
X58215936Y-55191607D01*
X58222899Y-55189351D01*
X58229154Y-55185555D01*
X58229157Y-55185554D01*
X58369314Y-55100504D01*
X58369318Y-55100501D01*
X58374107Y-55097595D01*
X58378306Y-55093886D01*
X58378311Y-55093883D01*
X58381019Y-55091491D01*
X58381023Y-55091488D01*
X58382484Y-55090197D01*
X60510187Y-52962494D01*
X60572499Y-52928468D01*
X60628696Y-52929070D01*
X60748276Y-52957779D01*
X60748282Y-52957780D01*
X60753089Y-52958934D01*
X61000000Y-52978366D01*
X61246911Y-52958934D01*
X61251718Y-52957780D01*
X61251724Y-52957779D01*
X61402830Y-52921501D01*
X61487742Y-52901115D01*
X61492315Y-52899221D01*
X61711989Y-52808229D01*
X61711993Y-52808227D01*
X61716563Y-52806334D01*
X61927740Y-52676925D01*
X61933668Y-52671862D01*
X61934661Y-52671417D01*
X61935509Y-52670801D01*
X61935638Y-52670979D01*
X61998457Y-52642830D01*
X62068658Y-52653434D01*
G37*
%TD.AperFunction*%
%TA.AperFunction,Conductor*%
G36*
X35548248Y-47383999D02*
G01*
X35549952Y-47384151D01*
X35557115Y-47385641D01*
X35634542Y-47383546D01*
X35637950Y-47383500D01*
X41412417Y-47383500D01*
X41480538Y-47403502D01*
X41527031Y-47457158D01*
X41537135Y-47527432D01*
X41519677Y-47575616D01*
X41484996Y-47631880D01*
X41478849Y-47645061D01*
X41429509Y-47793814D01*
X41426642Y-47807190D01*
X41417328Y-47898097D01*
X41417071Y-47903126D01*
X41421475Y-47918124D01*
X41422865Y-47919329D01*
X41430548Y-47921000D01*
X44028000Y-47921000D01*
X44096121Y-47941002D01*
X44142614Y-47994658D01*
X44154000Y-48047000D01*
X44154000Y-49091839D01*
X44133998Y-49159960D01*
X44117095Y-49180934D01*
X39143435Y-54154595D01*
X39081123Y-54188621D01*
X39054340Y-54191500D01*
X37152993Y-54191500D01*
X37084872Y-54171498D01*
X37038379Y-54117842D01*
X37028275Y-54047568D01*
X37045733Y-53999384D01*
X37065004Y-53968120D01*
X37071151Y-53954939D01*
X37120491Y-53806186D01*
X37123358Y-53792810D01*
X37132672Y-53701903D01*
X37133000Y-53695487D01*
X37133000Y-53672115D01*
X37128525Y-53656876D01*
X37127135Y-53655671D01*
X37119452Y-53654000D01*
X36047000Y-53654000D01*
X35978879Y-53633998D01*
X35932386Y-53580342D01*
X35921000Y-53528000D01*
X35921000Y-53272000D01*
X35941002Y-53203879D01*
X35994658Y-53157386D01*
X36047000Y-53146000D01*
X37114885Y-53146000D01*
X37130124Y-53141525D01*
X37131329Y-53140135D01*
X37133000Y-53132452D01*
X37133000Y-53104562D01*
X37132663Y-53098047D01*
X37123106Y-53005943D01*
X37120212Y-52992544D01*
X37070619Y-52843893D01*
X37064445Y-52830714D01*
X36991289Y-52712495D01*
X36972451Y-52644043D01*
X36993612Y-52576273D01*
X37048053Y-52530702D01*
X37082422Y-52521213D01*
X37188623Y-52507608D01*
X37198688Y-52505468D01*
X37410557Y-52441905D01*
X37420152Y-52438144D01*
X37618778Y-52340838D01*
X37627636Y-52335559D01*
X37685097Y-52294572D01*
X37693497Y-52283874D01*
X37686510Y-52270721D01*
X36912811Y-51497021D01*
X36898868Y-51489408D01*
X36897034Y-51489539D01*
X36890420Y-51493790D01*
X36110180Y-52274031D01*
X36099707Y-52293211D01*
X36087051Y-52351386D01*
X36036849Y-52401588D01*
X35976464Y-52417000D01*
X35904562Y-52417000D01*
X35898047Y-52417337D01*
X35805943Y-52426894D01*
X35792544Y-52429788D01*
X35643893Y-52479381D01*
X35630715Y-52485555D01*
X35575803Y-52519535D01*
X35507351Y-52538373D01*
X35439582Y-52517212D01*
X35394010Y-52462771D01*
X35383500Y-52412391D01*
X35383500Y-52185805D01*
X35403502Y-52117684D01*
X35420560Y-52096554D01*
X35459580Y-52057670D01*
X35476303Y-52041005D01*
X35550714Y-51937451D01*
X35606709Y-51893803D01*
X35677412Y-51887357D01*
X35737572Y-51917543D01*
X35740555Y-51920242D01*
X35749330Y-51916459D01*
X36527979Y-51137811D01*
X36534356Y-51126132D01*
X37264408Y-51126132D01*
X37264539Y-51127966D01*
X37268790Y-51134580D01*
X38046307Y-51912096D01*
X38058313Y-51918652D01*
X38070052Y-51909684D01*
X38108010Y-51856859D01*
X38113321Y-51848020D01*
X38211318Y-51649737D01*
X38215117Y-51640142D01*
X38279415Y-51428517D01*
X38281594Y-51418436D01*
X38310702Y-51197338D01*
X38311221Y-51190663D01*
X38312744Y-51128364D01*
X38312550Y-51121646D01*
X38294279Y-50899400D01*
X38292596Y-50889238D01*
X38238710Y-50674708D01*
X38235389Y-50664953D01*
X38147193Y-50462118D01*
X38142315Y-50453020D01*
X38069224Y-50340038D01*
X38058538Y-50330835D01*
X38048973Y-50335238D01*
X37272021Y-51112189D01*
X37264408Y-51126132D01*
X36534356Y-51126132D01*
X36535592Y-51123868D01*
X36535461Y-51122034D01*
X36531210Y-51115420D01*
X35753862Y-50338073D01*
X35742331Y-50331776D01*
X35732877Y-50339183D01*
X35666918Y-50365450D01*
X35597229Y-50351887D01*
X35549377Y-50308440D01*
X35547845Y-50306071D01*
X35519764Y-50262665D01*
X35511144Y-50253191D01*
X35453509Y-50189852D01*
X35363887Y-50091358D01*
X35359836Y-50088159D01*
X35359832Y-50088155D01*
X35204790Y-49965711D01*
X36105508Y-49965711D01*
X36112251Y-49978040D01*
X36887189Y-50752979D01*
X36901132Y-50760592D01*
X36902966Y-50760461D01*
X36909580Y-50756210D01*
X37688994Y-49976795D01*
X37696011Y-49963944D01*
X37688237Y-49953274D01*
X37685902Y-49951430D01*
X37677320Y-49945729D01*
X37483678Y-49838833D01*
X37474272Y-49834606D01*
X37265772Y-49760772D01*
X37255809Y-49758140D01*
X37038047Y-49719350D01*
X37027796Y-49718381D01*
X36806616Y-49715679D01*
X36796332Y-49716399D01*
X36577693Y-49749855D01*
X36567666Y-49752244D01*
X36357426Y-49820961D01*
X36347916Y-49824958D01*
X36151725Y-49927089D01*
X36143007Y-49932578D01*
X36113961Y-49954386D01*
X36105508Y-49965711D01*
X35204790Y-49965711D01*
X35186177Y-49951011D01*
X35186172Y-49951008D01*
X35182123Y-49947810D01*
X35177607Y-49945317D01*
X35177604Y-49945315D01*
X34983879Y-49838373D01*
X34983875Y-49838371D01*
X34979355Y-49835876D01*
X34974486Y-49834152D01*
X34974482Y-49834150D01*
X34765903Y-49760288D01*
X34765899Y-49760287D01*
X34761028Y-49758562D01*
X34755935Y-49757655D01*
X34755932Y-49757654D01*
X34538095Y-49718851D01*
X34538089Y-49718850D01*
X34533006Y-49717945D01*
X34460096Y-49717054D01*
X34306581Y-49715179D01*
X34306579Y-49715179D01*
X34301411Y-49715116D01*
X34072464Y-49750150D01*
X33852314Y-49822106D01*
X33847726Y-49824494D01*
X33847722Y-49824496D01*
X33662397Y-49920970D01*
X33646872Y-49929052D01*
X33642739Y-49932155D01*
X33642736Y-49932157D01*
X33461655Y-50068117D01*
X33460976Y-50067213D01*
X33401730Y-50095131D01*
X33331341Y-50085869D01*
X33277132Y-50040022D01*
X33264325Y-50014866D01*
X33253768Y-49986705D01*
X33253767Y-49986703D01*
X33250615Y-49978295D01*
X33163261Y-49861739D01*
X33046705Y-49774385D01*
X32910316Y-49723255D01*
X32848134Y-49716500D01*
X32784500Y-49716500D01*
X32716379Y-49696498D01*
X32669886Y-49642842D01*
X32658500Y-49590500D01*
X32658500Y-49266371D01*
X32678502Y-49198250D01*
X32695405Y-49177276D01*
X33427243Y-48445438D01*
X41417000Y-48445438D01*
X41417337Y-48451953D01*
X41426894Y-48544057D01*
X41429788Y-48557456D01*
X41479381Y-48706107D01*
X41485555Y-48719286D01*
X41567788Y-48852173D01*
X41576824Y-48863574D01*
X41687429Y-48973986D01*
X41698840Y-48982998D01*
X41831880Y-49065004D01*
X41845061Y-49071151D01*
X41993814Y-49120491D01*
X42007190Y-49123358D01*
X42098097Y-49132672D01*
X42104513Y-49133000D01*
X42127885Y-49133000D01*
X42143124Y-49128525D01*
X42144329Y-49127135D01*
X42146000Y-49119452D01*
X42146000Y-49114885D01*
X42654000Y-49114885D01*
X42658475Y-49130124D01*
X42659865Y-49131329D01*
X42667548Y-49133000D01*
X42695438Y-49133000D01*
X42701953Y-49132663D01*
X42794057Y-49123106D01*
X42807456Y-49120212D01*
X42956107Y-49070619D01*
X42969285Y-49064445D01*
X43083602Y-48993704D01*
X43152054Y-48974866D01*
X43216021Y-48993588D01*
X43331880Y-49065004D01*
X43345061Y-49071151D01*
X43493814Y-49120491D01*
X43507190Y-49123358D01*
X43598097Y-49132672D01*
X43604513Y-49133000D01*
X43627885Y-49133000D01*
X43643124Y-49128525D01*
X43644329Y-49127135D01*
X43646000Y-49119452D01*
X43646000Y-48447115D01*
X43641525Y-48431876D01*
X43640135Y-48430671D01*
X43632452Y-48429000D01*
X42672115Y-48429000D01*
X42656876Y-48433475D01*
X42655671Y-48434865D01*
X42654000Y-48442548D01*
X42654000Y-49114885D01*
X42146000Y-49114885D01*
X42146000Y-48447115D01*
X42141525Y-48431876D01*
X42140135Y-48430671D01*
X42132452Y-48429000D01*
X41435115Y-48429000D01*
X41419876Y-48433475D01*
X41418671Y-48434865D01*
X41417000Y-48442548D01*
X41417000Y-48445438D01*
X33427243Y-48445438D01*
X34452276Y-47420405D01*
X34514588Y-47386379D01*
X34541371Y-47383500D01*
X35537048Y-47383500D01*
X35548248Y-47383999D01*
G37*
%TD.AperFunction*%
%TA.AperFunction,Conductor*%
G36*
X58772808Y-40855288D02*
G01*
X58806848Y-40879529D01*
X59204595Y-41277276D01*
X59238621Y-41339588D01*
X59241500Y-41366371D01*
X59241500Y-44133563D01*
X59221498Y-44201684D01*
X59204673Y-44222581D01*
X59185787Y-44241500D01*
X59125695Y-44301697D01*
X59121855Y-44307927D01*
X59121854Y-44307928D01*
X59039778Y-44441080D01*
X59032885Y-44452262D01*
X59030581Y-44459209D01*
X58993443Y-44571178D01*
X58977203Y-44620139D01*
X58976503Y-44626975D01*
X58976502Y-44626978D01*
X58972141Y-44669540D01*
X58966500Y-44724600D01*
X58966500Y-46075400D01*
X58966837Y-46078646D01*
X58966837Y-46078650D01*
X58975781Y-46164847D01*
X58977474Y-46181166D01*
X58979655Y-46187702D01*
X58979655Y-46187704D01*
X58995786Y-46236055D01*
X59033450Y-46348946D01*
X59126522Y-46499348D01*
X59131704Y-46504521D01*
X59218708Y-46591373D01*
X59250061Y-46649911D01*
X59251117Y-46649568D01*
X59251402Y-46650446D01*
X59252126Y-46653765D01*
X59253015Y-46655426D01*
X59253397Y-46656605D01*
X59254589Y-46662572D01*
X59255972Y-46668420D01*
X59256818Y-46675681D01*
X59281735Y-46744327D01*
X59283152Y-46748455D01*
X59303206Y-46810357D01*
X59305649Y-46817899D01*
X59309445Y-46824154D01*
X59311951Y-46829628D01*
X59314670Y-46835058D01*
X59317167Y-46841937D01*
X59321180Y-46848057D01*
X59321180Y-46848058D01*
X59357186Y-46902976D01*
X59359523Y-46906680D01*
X59397405Y-46969107D01*
X59401121Y-46973315D01*
X59401122Y-46973316D01*
X59404803Y-46977484D01*
X59404776Y-46977508D01*
X59407429Y-46980500D01*
X59410132Y-46983733D01*
X59414144Y-46989852D01*
X59445017Y-47019098D01*
X59470383Y-47043128D01*
X59472825Y-47045506D01*
X62104595Y-49677276D01*
X62138621Y-49739588D01*
X62141500Y-49766371D01*
X62141500Y-50032328D01*
X62121498Y-50100449D01*
X62067842Y-50146942D01*
X61997568Y-50157046D01*
X61935634Y-50129027D01*
X61935509Y-50129199D01*
X61934677Y-50128594D01*
X61933668Y-50128138D01*
X61931500Y-50126286D01*
X61931497Y-50126284D01*
X61927740Y-50123075D01*
X61716563Y-49993666D01*
X61711993Y-49991773D01*
X61711989Y-49991771D01*
X61492315Y-49900779D01*
X61492313Y-49900778D01*
X61487742Y-49898885D01*
X61402830Y-49878499D01*
X61251724Y-49842221D01*
X61251718Y-49842220D01*
X61246911Y-49841066D01*
X61000000Y-49821634D01*
X60753089Y-49841066D01*
X60748282Y-49842220D01*
X60748276Y-49842221D01*
X60597170Y-49878499D01*
X60512258Y-49898885D01*
X60507687Y-49900778D01*
X60507685Y-49900779D01*
X60288011Y-49991771D01*
X60288007Y-49991773D01*
X60283437Y-49993666D01*
X60072260Y-50123075D01*
X59883927Y-50283927D01*
X59723075Y-50472260D01*
X59593666Y-50683437D01*
X59591773Y-50688007D01*
X59591771Y-50688011D01*
X59500779Y-50907685D01*
X59498885Y-50912258D01*
X59481385Y-50985150D01*
X59442221Y-51148276D01*
X59442220Y-51148282D01*
X59441066Y-51153089D01*
X59421634Y-51400000D01*
X59441066Y-51646911D01*
X59442220Y-51651718D01*
X59442221Y-51651724D01*
X59470930Y-51771304D01*
X59467383Y-51842212D01*
X59437506Y-51889813D01*
X58547816Y-52779503D01*
X58485504Y-52813529D01*
X58414689Y-52808464D01*
X58357853Y-52765917D01*
X58333042Y-52699397D01*
X58339128Y-52650740D01*
X58370491Y-52556186D01*
X58373358Y-52542810D01*
X58382672Y-52451903D01*
X58382929Y-52446874D01*
X58378525Y-52431876D01*
X58377135Y-52430671D01*
X58369452Y-52429000D01*
X57672115Y-52429000D01*
X57656876Y-52433475D01*
X57655671Y-52434865D01*
X57654000Y-52442548D01*
X57654000Y-53114885D01*
X57658475Y-53130124D01*
X57659865Y-53131329D01*
X57667548Y-53133000D01*
X57695438Y-53133000D01*
X57701953Y-53132663D01*
X57794057Y-53123106D01*
X57807456Y-53120212D01*
X57900588Y-53089141D01*
X57971538Y-53086557D01*
X58032621Y-53122741D01*
X58064446Y-53186205D01*
X58056907Y-53256800D01*
X58029559Y-53297760D01*
X57627724Y-53699595D01*
X57565412Y-53733621D01*
X57538629Y-53736500D01*
X53183754Y-53736500D01*
X53148602Y-53731497D01*
X53010011Y-53691233D01*
X53010007Y-53691232D01*
X53003831Y-53689438D01*
X52997426Y-53688934D01*
X52997421Y-53688933D01*
X52968958Y-53686693D01*
X52968950Y-53686693D01*
X52966502Y-53686500D01*
X51448950Y-53686500D01*
X51380829Y-53666498D01*
X51334336Y-53612842D01*
X51324232Y-53542568D01*
X51353726Y-53477988D01*
X51359855Y-53471405D01*
X52385821Y-52445438D01*
X54417000Y-52445438D01*
X54417337Y-52451953D01*
X54426894Y-52544057D01*
X54429788Y-52557456D01*
X54479381Y-52706107D01*
X54485555Y-52719286D01*
X54567788Y-52852173D01*
X54576824Y-52863574D01*
X54687429Y-52973986D01*
X54698840Y-52982998D01*
X54831880Y-53065004D01*
X54845061Y-53071151D01*
X54993814Y-53120491D01*
X55007190Y-53123358D01*
X55098097Y-53132672D01*
X55104513Y-53133000D01*
X55127885Y-53133000D01*
X55143124Y-53128525D01*
X55144329Y-53127135D01*
X55146000Y-53119452D01*
X55146000Y-53114885D01*
X55654000Y-53114885D01*
X55658475Y-53130124D01*
X55659865Y-53131329D01*
X55667548Y-53133000D01*
X55695438Y-53133000D01*
X55701953Y-53132663D01*
X55794057Y-53123106D01*
X55807456Y-53120212D01*
X55956107Y-53070619D01*
X55969286Y-53064445D01*
X56102173Y-52982212D01*
X56113574Y-52973176D01*
X56223986Y-52862571D01*
X56232998Y-52851160D01*
X56292703Y-52754300D01*
X56345475Y-52706807D01*
X56415547Y-52695383D01*
X56480671Y-52723657D01*
X56507108Y-52754113D01*
X56567793Y-52852179D01*
X56576824Y-52863574D01*
X56687429Y-52973986D01*
X56698840Y-52982998D01*
X56831880Y-53065004D01*
X56845061Y-53071151D01*
X56993814Y-53120491D01*
X57007190Y-53123358D01*
X57098097Y-53132672D01*
X57104513Y-53133000D01*
X57127885Y-53133000D01*
X57143124Y-53128525D01*
X57144329Y-53127135D01*
X57146000Y-53119452D01*
X57146000Y-52447115D01*
X57141525Y-52431876D01*
X57140135Y-52430671D01*
X57132452Y-52429000D01*
X56417000Y-52429000D01*
X56417000Y-52428895D01*
X56375746Y-52430369D01*
X56369453Y-52429000D01*
X55672115Y-52429000D01*
X55656876Y-52433475D01*
X55655671Y-52434865D01*
X55654000Y-52442548D01*
X55654000Y-53114885D01*
X55146000Y-53114885D01*
X55146000Y-52447115D01*
X55141525Y-52431876D01*
X55140135Y-52430671D01*
X55132452Y-52429000D01*
X54435115Y-52429000D01*
X54419876Y-52433475D01*
X54418671Y-52434865D01*
X54417000Y-52442548D01*
X54417000Y-52445438D01*
X52385821Y-52445438D01*
X52807600Y-52023659D01*
X52816381Y-52015669D01*
X52816390Y-52015661D01*
X52823080Y-52011416D01*
X52871621Y-51959725D01*
X52874375Y-51956884D01*
X52894926Y-51936333D01*
X52897638Y-51932837D01*
X52905349Y-51923808D01*
X52908698Y-51920242D01*
X52936972Y-51890133D01*
X52947301Y-51871345D01*
X52958158Y-51854816D01*
X52966447Y-51844131D01*
X52966448Y-51844129D01*
X52971304Y-51837869D01*
X52989657Y-51795456D01*
X52994868Y-51784819D01*
X53017124Y-51744337D01*
X53022457Y-51723566D01*
X53028859Y-51704864D01*
X53037379Y-51685177D01*
X53043440Y-51646911D01*
X53044605Y-51639552D01*
X53047013Y-51627926D01*
X53056529Y-51590865D01*
X53056529Y-51590864D01*
X53058500Y-51583188D01*
X53058500Y-51561742D01*
X53060051Y-51542031D01*
X53062166Y-51528678D01*
X53063406Y-51520849D01*
X53059059Y-51474864D01*
X53058500Y-51463006D01*
X53058500Y-50576867D01*
X53076046Y-50512728D01*
X53099978Y-50472260D01*
X53111018Y-50453593D01*
X53141691Y-50348018D01*
X53153878Y-50306071D01*
X53153878Y-50306070D01*
X53155674Y-50299889D01*
X53158262Y-50267004D01*
X53158307Y-50266438D01*
X53158308Y-50266425D01*
X53158500Y-50263979D01*
X53158499Y-49450999D01*
X53178501Y-49382879D01*
X53232157Y-49336386D01*
X53284499Y-49325000D01*
X53324000Y-49325000D01*
X53392121Y-49345002D01*
X53438614Y-49398658D01*
X53450000Y-49451000D01*
X53450000Y-50804743D01*
X53453973Y-50818274D01*
X53461871Y-50819409D01*
X53570780Y-50787768D01*
X53585217Y-50781520D01*
X53709227Y-50708181D01*
X53721665Y-50698532D01*
X53823532Y-50596665D01*
X53833181Y-50584227D01*
X53906520Y-50460217D01*
X53912768Y-50445778D01*
X53928818Y-50390534D01*
X53967030Y-50330698D01*
X54031526Y-50301020D01*
X54101829Y-50310923D01*
X54138910Y-50336591D01*
X54379595Y-50577276D01*
X54413621Y-50639588D01*
X54416500Y-50666371D01*
X54416500Y-50898732D01*
X54427113Y-51001019D01*
X54429295Y-51007559D01*
X54478537Y-51155153D01*
X54481244Y-51163268D01*
X54485096Y-51169492D01*
X54485096Y-51169493D01*
X54500287Y-51194041D01*
X54571248Y-51308713D01*
X54576430Y-51313886D01*
X54580977Y-51319623D01*
X54579170Y-51321055D01*
X54607902Y-51373575D01*
X54602892Y-51444395D01*
X54579501Y-51480853D01*
X54580552Y-51481683D01*
X54567002Y-51498840D01*
X54484996Y-51631880D01*
X54478849Y-51645061D01*
X54429509Y-51793814D01*
X54426642Y-51807190D01*
X54417328Y-51898097D01*
X54417071Y-51903126D01*
X54421475Y-51918124D01*
X54422865Y-51919329D01*
X54430548Y-51921000D01*
X56383000Y-51921000D01*
X56383000Y-51921105D01*
X56424254Y-51919631D01*
X56430547Y-51921000D01*
X58364885Y-51921000D01*
X58380124Y-51916525D01*
X58381329Y-51915135D01*
X58383000Y-51907452D01*
X58383000Y-51904562D01*
X58382663Y-51898047D01*
X58373106Y-51805943D01*
X58370212Y-51792544D01*
X58320619Y-51643893D01*
X58314445Y-51630714D01*
X58232212Y-51497827D01*
X58218629Y-51480689D01*
X58220559Y-51479159D01*
X58192097Y-51427120D01*
X58197113Y-51356301D01*
X58220799Y-51319383D01*
X58219843Y-51318628D01*
X58224381Y-51312882D01*
X58229552Y-51307702D01*
X58233393Y-51301471D01*
X58315462Y-51168331D01*
X58315463Y-51168329D01*
X58319302Y-51162101D01*
X58373149Y-50999757D01*
X58383500Y-50898732D01*
X58383500Y-50351268D01*
X58372887Y-50248981D01*
X58332867Y-50129027D01*
X58321073Y-50093676D01*
X58321072Y-50093674D01*
X58318756Y-50086732D01*
X58314603Y-50080020D01*
X58232606Y-49947515D01*
X58228752Y-49941287D01*
X58208950Y-49921519D01*
X58112882Y-49825619D01*
X58107702Y-49820448D01*
X58041712Y-49779771D01*
X57968331Y-49734538D01*
X57968329Y-49734537D01*
X57962101Y-49730698D01*
X57799757Y-49676851D01*
X57792920Y-49676151D01*
X57792918Y-49676150D01*
X57751599Y-49671917D01*
X57698732Y-49666500D01*
X57101268Y-49666500D01*
X57098022Y-49666837D01*
X57098018Y-49666837D01*
X57063917Y-49670375D01*
X56998981Y-49677113D01*
X56992440Y-49679295D01*
X56992441Y-49679295D01*
X56843676Y-49728927D01*
X56843674Y-49728928D01*
X56836732Y-49731244D01*
X56830508Y-49735096D01*
X56830507Y-49735096D01*
X56789797Y-49760288D01*
X56691287Y-49821248D01*
X56686113Y-49826431D01*
X56683029Y-49829520D01*
X56680401Y-49830958D01*
X56680377Y-49830977D01*
X56680374Y-49830973D01*
X56620746Y-49863598D01*
X56593858Y-49866500D01*
X56205961Y-49866500D01*
X56137840Y-49846498D01*
X56116943Y-49829673D01*
X56112882Y-49825619D01*
X56107702Y-49820448D01*
X56041712Y-49779771D01*
X55968331Y-49734538D01*
X55968329Y-49734537D01*
X55962101Y-49730698D01*
X55799757Y-49676851D01*
X55792920Y-49676151D01*
X55792918Y-49676150D01*
X55751599Y-49671917D01*
X55698732Y-49666500D01*
X55666371Y-49666500D01*
X55598250Y-49646498D01*
X55577276Y-49629595D01*
X55370405Y-49422724D01*
X55336379Y-49360412D01*
X55333500Y-49333629D01*
X55333500Y-49040512D01*
X55353502Y-48972391D01*
X55407158Y-48925898D01*
X55424347Y-48919515D01*
X55445981Y-48913230D01*
X55445984Y-48913229D01*
X55453593Y-48911018D01*
X55480714Y-48894979D01*
X55584543Y-48833576D01*
X55584547Y-48833573D01*
X55591363Y-48829542D01*
X55704542Y-48716363D01*
X55708573Y-48709547D01*
X55708576Y-48709543D01*
X55781984Y-48585414D01*
X55786018Y-48578593D01*
X55824704Y-48445438D01*
X55828878Y-48431072D01*
X55828879Y-48431069D01*
X55830674Y-48424889D01*
X55831670Y-48412238D01*
X55833307Y-48391438D01*
X55833308Y-48391425D01*
X55833500Y-48388979D01*
X55833499Y-48011022D01*
X55830674Y-47975111D01*
X55828880Y-47968937D01*
X55828879Y-47968930D01*
X55790012Y-47835153D01*
X55790012Y-47764847D01*
X55828877Y-47631075D01*
X55828877Y-47631073D01*
X55830674Y-47624889D01*
X55831670Y-47612238D01*
X55833307Y-47591438D01*
X55833308Y-47591425D01*
X55833500Y-47588979D01*
X55833499Y-47211022D01*
X55830674Y-47175111D01*
X55828880Y-47168937D01*
X55828879Y-47168930D01*
X55790012Y-47035153D01*
X55790012Y-46964847D01*
X55828877Y-46831075D01*
X55828878Y-46831070D01*
X55830674Y-46824889D01*
X55831818Y-46810357D01*
X55833307Y-46791438D01*
X55833308Y-46791425D01*
X55833500Y-46788979D01*
X55833499Y-46411022D01*
X55830674Y-46375111D01*
X55828880Y-46368937D01*
X55828879Y-46368930D01*
X55790012Y-46235153D01*
X55790012Y-46164847D01*
X55828877Y-46031075D01*
X55828878Y-46031070D01*
X55830674Y-46024889D01*
X55831670Y-46012238D01*
X55833307Y-45991438D01*
X55833308Y-45991425D01*
X55833500Y-45988979D01*
X55833499Y-45611022D01*
X55831535Y-45586057D01*
X55831179Y-45581526D01*
X55831178Y-45581523D01*
X55830674Y-45575111D01*
X55828880Y-45568937D01*
X55828879Y-45568930D01*
X55790012Y-45435153D01*
X55790012Y-45364847D01*
X55828877Y-45231075D01*
X55828878Y-45231070D01*
X55830674Y-45224889D01*
X55832040Y-45207527D01*
X55833307Y-45191438D01*
X55833308Y-45191425D01*
X55833500Y-45188979D01*
X55833499Y-44811022D01*
X55830674Y-44775111D01*
X55828880Y-44768937D01*
X55828879Y-44768930D01*
X55790012Y-44635153D01*
X55790012Y-44564847D01*
X55828877Y-44431075D01*
X55828878Y-44431070D01*
X55830674Y-44424889D01*
X55833252Y-44392130D01*
X55833307Y-44391437D01*
X55833307Y-44391426D01*
X55833500Y-44388979D01*
X55833500Y-44284500D01*
X55853502Y-44216379D01*
X55907158Y-44169886D01*
X55959500Y-44158500D01*
X56020316Y-44158500D01*
X56088437Y-44178502D01*
X56134930Y-44232158D01*
X56145837Y-44295481D01*
X56137172Y-44394524D01*
X56136693Y-44400000D01*
X56155885Y-44619371D01*
X56212880Y-44832076D01*
X56237472Y-44884814D01*
X56303618Y-45026666D01*
X56303621Y-45026671D01*
X56305944Y-45031653D01*
X56309100Y-45036160D01*
X56309101Y-45036162D01*
X56417827Y-45191438D01*
X56432251Y-45212038D01*
X56587962Y-45367749D01*
X56592471Y-45370906D01*
X56592473Y-45370908D01*
X56634021Y-45400000D01*
X56768346Y-45494056D01*
X56967924Y-45587120D01*
X57180629Y-45644115D01*
X57400000Y-45663307D01*
X57619371Y-45644115D01*
X57832076Y-45587120D01*
X58031654Y-45494056D01*
X58165979Y-45400000D01*
X58207527Y-45370908D01*
X58207529Y-45370906D01*
X58212038Y-45367749D01*
X58367749Y-45212038D01*
X58382174Y-45191438D01*
X58490899Y-45036162D01*
X58490900Y-45036160D01*
X58494056Y-45031653D01*
X58496379Y-45026671D01*
X58496382Y-45026666D01*
X58562528Y-44884814D01*
X58587120Y-44832076D01*
X58644115Y-44619371D01*
X58663307Y-44400000D01*
X58644115Y-44180629D01*
X58587120Y-43967924D01*
X58508816Y-43800000D01*
X58496382Y-43773334D01*
X58496379Y-43773329D01*
X58494056Y-43768347D01*
X58367749Y-43587962D01*
X58212038Y-43432251D01*
X58031654Y-43305944D01*
X57832076Y-43212880D01*
X57619371Y-43155885D01*
X57400000Y-43136693D01*
X57394525Y-43137172D01*
X57394524Y-43137172D01*
X57283239Y-43146908D01*
X57213635Y-43132919D01*
X57183163Y-43110482D01*
X57061776Y-42989095D01*
X57027750Y-42926783D01*
X57032815Y-42855968D01*
X57061776Y-42810905D01*
X57183163Y-42689518D01*
X57245475Y-42655492D01*
X57283239Y-42653092D01*
X57394524Y-42662828D01*
X57394525Y-42662828D01*
X57400000Y-42663307D01*
X57619371Y-42644115D01*
X57832076Y-42587120D01*
X58031654Y-42494056D01*
X58212038Y-42367749D01*
X58367749Y-42212038D01*
X58494056Y-42031653D01*
X58496379Y-42026671D01*
X58496382Y-42026666D01*
X58582725Y-41841501D01*
X58587120Y-41832076D01*
X58644115Y-41619371D01*
X58663307Y-41400000D01*
X58644115Y-41180629D01*
X58596046Y-41001236D01*
X58597736Y-40930259D01*
X58637530Y-40871463D01*
X58702794Y-40843515D01*
X58772808Y-40855288D01*
G37*
%TD.AperFunction*%
%TA.AperFunction,Conductor*%
G36*
X40506532Y-34470315D02*
G01*
X40551595Y-34499276D01*
X41619441Y-35567122D01*
X41653467Y-35629434D01*
X41653466Y-35667000D01*
X41654000Y-35667000D01*
X41654000Y-36352885D01*
X41658475Y-36368124D01*
X41659865Y-36369329D01*
X41667548Y-36371000D01*
X42371129Y-36371000D01*
X42439250Y-36391002D01*
X42460224Y-36407905D01*
X42604595Y-36552276D01*
X42638621Y-36614588D01*
X42641500Y-36641371D01*
X42641500Y-38312059D01*
X42641001Y-38323260D01*
X42640850Y-38324950D01*
X42639360Y-38332115D01*
X42639558Y-38339430D01*
X42641454Y-38409521D01*
X42641500Y-38412928D01*
X42641500Y-40329198D01*
X42621498Y-40397319D01*
X42596496Y-40425716D01*
X42592471Y-40429094D01*
X42587962Y-40432251D01*
X42432251Y-40587962D01*
X42429094Y-40592470D01*
X42429092Y-40592473D01*
X42387713Y-40651569D01*
X42332256Y-40695897D01*
X42261637Y-40703206D01*
X42198276Y-40671176D01*
X42162291Y-40609974D01*
X42158500Y-40579298D01*
X42158500Y-38981005D01*
X42178502Y-38912884D01*
X42195327Y-38891988D01*
X42224377Y-38862887D01*
X42224381Y-38862882D01*
X42229552Y-38857702D01*
X42233393Y-38851471D01*
X42315462Y-38718331D01*
X42315463Y-38718329D01*
X42319302Y-38712101D01*
X42373149Y-38549757D01*
X42374032Y-38541144D01*
X42380129Y-38481634D01*
X42383500Y-38448732D01*
X42383500Y-37901268D01*
X42382913Y-37895605D01*
X42377373Y-37842221D01*
X42372887Y-37798981D01*
X42333329Y-37680412D01*
X42321073Y-37643676D01*
X42321072Y-37643674D01*
X42318756Y-37636732D01*
X42290531Y-37591120D01*
X42232606Y-37497515D01*
X42228752Y-37491287D01*
X42223570Y-37486114D01*
X42219023Y-37480377D01*
X42220830Y-37478945D01*
X42192098Y-37426425D01*
X42197108Y-37355605D01*
X42220499Y-37319147D01*
X42219448Y-37318317D01*
X42232998Y-37301160D01*
X42315004Y-37168120D01*
X42321151Y-37154939D01*
X42370491Y-37006186D01*
X42373358Y-36992810D01*
X42382672Y-36901903D01*
X42382929Y-36896874D01*
X42378525Y-36881876D01*
X42377135Y-36880671D01*
X42369452Y-36879000D01*
X40435115Y-36879000D01*
X40419876Y-36883475D01*
X40418671Y-36884865D01*
X40417000Y-36892548D01*
X40417000Y-36895438D01*
X40417337Y-36901953D01*
X40426894Y-36994057D01*
X40429788Y-37007456D01*
X40479381Y-37156107D01*
X40485555Y-37169286D01*
X40567788Y-37302173D01*
X40581371Y-37319311D01*
X40579441Y-37320841D01*
X40607903Y-37372880D01*
X40602887Y-37443699D01*
X40579201Y-37480617D01*
X40580157Y-37481372D01*
X40575619Y-37487118D01*
X40570448Y-37492298D01*
X40566608Y-37498528D01*
X40566607Y-37498529D01*
X40485255Y-37630507D01*
X40480698Y-37637899D01*
X40426851Y-37800243D01*
X40426151Y-37807080D01*
X40426150Y-37807082D01*
X40423112Y-37836732D01*
X40416500Y-37901268D01*
X40416500Y-38448732D01*
X40416837Y-38451978D01*
X40416837Y-38451982D01*
X40419814Y-38480671D01*
X40427113Y-38551019D01*
X40429295Y-38557559D01*
X40478537Y-38705153D01*
X40481244Y-38713268D01*
X40485096Y-38719492D01*
X40485096Y-38719493D01*
X40521051Y-38777595D01*
X40571248Y-38858713D01*
X40576430Y-38863886D01*
X40604518Y-38891925D01*
X40638597Y-38954207D01*
X40641500Y-38981098D01*
X40641500Y-41861680D01*
X40621498Y-41929801D01*
X40567842Y-41976294D01*
X40497568Y-41986398D01*
X40432988Y-41956904D01*
X40427443Y-41951801D01*
X40409264Y-41934030D01*
X40309866Y-41861680D01*
X40193721Y-41777141D01*
X40190028Y-41774453D01*
X39950053Y-41648196D01*
X39945752Y-41646677D01*
X39945747Y-41646675D01*
X39767998Y-41583906D01*
X39694366Y-41557904D01*
X39596347Y-41538585D01*
X39432794Y-41506348D01*
X39432788Y-41506347D01*
X39428322Y-41505467D01*
X39423768Y-41505240D01*
X39423766Y-41505240D01*
X39162064Y-41492211D01*
X39162058Y-41492211D01*
X39157495Y-41491984D01*
X38887559Y-41517738D01*
X38883130Y-41518822D01*
X38883123Y-41518823D01*
X38753069Y-41550648D01*
X38624168Y-41582190D01*
X38619933Y-41583905D01*
X38619931Y-41583906D01*
X38377069Y-41682275D01*
X38372840Y-41683988D01*
X38138839Y-41821001D01*
X37927068Y-41990359D01*
X37923947Y-41993700D01*
X37799224Y-42127215D01*
X37741963Y-42188512D01*
X37587402Y-42411312D01*
X37585374Y-42415388D01*
X37585373Y-42415390D01*
X37471584Y-42644115D01*
X37466621Y-42654090D01*
X37382153Y-42911760D01*
X37381373Y-42916251D01*
X37381373Y-42916252D01*
X37337721Y-43167660D01*
X37335765Y-43178925D01*
X37335574Y-43182762D01*
X37334146Y-43211457D01*
X37331500Y-43264600D01*
X37331500Y-43953884D01*
X37331665Y-43956152D01*
X37331665Y-43956164D01*
X37340003Y-44071075D01*
X37346125Y-44155451D01*
X37347109Y-44159906D01*
X37347109Y-44159909D01*
X37398228Y-44391443D01*
X37404585Y-44420237D01*
X37416718Y-44452262D01*
X37479827Y-44618834D01*
X37500655Y-44673810D01*
X37578241Y-44813492D01*
X37617770Y-44884656D01*
X37632324Y-44910859D01*
X37635096Y-44914491D01*
X37794015Y-45122724D01*
X37796833Y-45126417D01*
X37800099Y-45129610D01*
X37800101Y-45129612D01*
X37812456Y-45141690D01*
X37990736Y-45315970D01*
X38209972Y-45475547D01*
X38449947Y-45601804D01*
X38454248Y-45603323D01*
X38454253Y-45603325D01*
X38506260Y-45621690D01*
X38563833Y-45663234D01*
X38589806Y-45729309D01*
X38575933Y-45798937D01*
X38526619Y-45850012D01*
X38464304Y-45866500D01*
X35991371Y-45866500D01*
X35923250Y-45846498D01*
X35902276Y-45829595D01*
X35695405Y-45622724D01*
X35661379Y-45560412D01*
X35658500Y-45533629D01*
X35658500Y-39266371D01*
X35678502Y-39198250D01*
X35695405Y-39177276D01*
X37815809Y-37056872D01*
X37878121Y-37022846D01*
X37904794Y-37019967D01*
X37924110Y-37019950D01*
X37955096Y-37019923D01*
X38074767Y-36991524D01*
X38112975Y-36982457D01*
X38112976Y-36982457D01*
X38120096Y-36980767D01*
X38126633Y-36977487D01*
X38126637Y-36977485D01*
X38265517Y-36907788D01*
X38265521Y-36907785D01*
X38271665Y-36904702D01*
X38276997Y-36900361D01*
X38277000Y-36900359D01*
X38347252Y-36843164D01*
X38347254Y-36843162D01*
X38349744Y-36841135D01*
X38727441Y-36463438D01*
X38791708Y-36384290D01*
X38794788Y-36378127D01*
X38794790Y-36378123D01*
X38807280Y-36353126D01*
X40417071Y-36353126D01*
X40421475Y-36368124D01*
X40422865Y-36369329D01*
X40430548Y-36371000D01*
X41127885Y-36371000D01*
X41143124Y-36366525D01*
X41144329Y-36365135D01*
X41146000Y-36357452D01*
X41146000Y-35685115D01*
X41141525Y-35669876D01*
X41140135Y-35668671D01*
X41132452Y-35667000D01*
X41104562Y-35667000D01*
X41098047Y-35667337D01*
X41005943Y-35676894D01*
X40992544Y-35679788D01*
X40843893Y-35729381D01*
X40830714Y-35735555D01*
X40697827Y-35817788D01*
X40686426Y-35826824D01*
X40576014Y-35937429D01*
X40567002Y-35948840D01*
X40484996Y-36081880D01*
X40478849Y-36095061D01*
X40429509Y-36243814D01*
X40426642Y-36257190D01*
X40417328Y-36348097D01*
X40417071Y-36353126D01*
X38807280Y-36353126D01*
X38864237Y-36239137D01*
X38864238Y-36239135D01*
X38867508Y-36232590D01*
X38895795Y-36112461D01*
X38904700Y-36074644D01*
X38904700Y-36074642D01*
X38906377Y-36067521D01*
X38906361Y-36048589D01*
X38906346Y-36032372D01*
X38926288Y-35964234D01*
X38979903Y-35917694D01*
X39032236Y-35906261D01*
X39036554Y-35906257D01*
X39068790Y-35906229D01*
X39206307Y-35873595D01*
X39226669Y-35868763D01*
X39226670Y-35868763D01*
X39233790Y-35867073D01*
X39240327Y-35863793D01*
X39240331Y-35863791D01*
X39379211Y-35794094D01*
X39379215Y-35794091D01*
X39385359Y-35791008D01*
X39390691Y-35786667D01*
X39390694Y-35786665D01*
X39460944Y-35729472D01*
X39460950Y-35729466D01*
X39463438Y-35727441D01*
X39841135Y-35349744D01*
X39905402Y-35270596D01*
X39908482Y-35264433D01*
X39908484Y-35264429D01*
X39977931Y-35125443D01*
X39977932Y-35125441D01*
X39981202Y-35118896D01*
X40020071Y-34953827D01*
X40020028Y-34904952D01*
X40039970Y-34836816D01*
X40056933Y-34815748D01*
X40373405Y-34499276D01*
X40435717Y-34465250D01*
X40506532Y-34470315D01*
G37*
%TD.AperFunction*%
%TA.AperFunction,Conductor*%
G36*
X54621055Y-35678502D02*
G01*
X54667548Y-35732158D01*
X54677652Y-35802432D01*
X54673932Y-35819651D01*
X54644438Y-35921169D01*
X54643934Y-35927574D01*
X54643933Y-35927579D01*
X54642381Y-35947302D01*
X54641500Y-35958498D01*
X54641500Y-37116502D01*
X54641693Y-37118950D01*
X54641693Y-37118958D01*
X54643495Y-37141849D01*
X54644438Y-37153831D01*
X54646232Y-37160007D01*
X54646233Y-37160011D01*
X54686497Y-37298602D01*
X54691500Y-37333754D01*
X54691500Y-37935726D01*
X54685093Y-37975393D01*
X54680177Y-37990214D01*
X54676851Y-38000243D01*
X54676151Y-38007076D01*
X54676150Y-38007080D01*
X54673917Y-38028879D01*
X54666500Y-38101268D01*
X54666500Y-38698732D01*
X54666837Y-38701978D01*
X54666837Y-38701982D01*
X54668572Y-38718699D01*
X54677113Y-38801019D01*
X54679295Y-38807559D01*
X54726977Y-38950477D01*
X54731244Y-38963268D01*
X54735096Y-38969492D01*
X54735096Y-38969493D01*
X54800807Y-39075681D01*
X54821248Y-39108713D01*
X54826430Y-39113886D01*
X54826434Y-39113891D01*
X54833414Y-39120859D01*
X54867493Y-39183141D01*
X54869547Y-39195432D01*
X54869788Y-39197498D01*
X54870222Y-39201882D01*
X54875468Y-39266371D01*
X54876140Y-39274637D01*
X54878396Y-39281601D01*
X54879587Y-39287560D01*
X54880971Y-39293415D01*
X54881818Y-39300681D01*
X54906735Y-39369327D01*
X54908152Y-39373455D01*
X54918349Y-39404930D01*
X54930649Y-39442899D01*
X54934445Y-39449154D01*
X54936951Y-39454628D01*
X54939670Y-39460058D01*
X54942167Y-39466937D01*
X54946180Y-39473057D01*
X54946180Y-39473058D01*
X54982186Y-39527976D01*
X54984523Y-39531680D01*
X55022405Y-39594107D01*
X55026121Y-39598315D01*
X55026122Y-39598316D01*
X55029803Y-39602484D01*
X55029776Y-39602508D01*
X55032429Y-39605500D01*
X55035132Y-39608733D01*
X55039144Y-39614852D01*
X55044456Y-39619884D01*
X55095383Y-39668128D01*
X55097825Y-39670506D01*
X55816230Y-40388911D01*
X55828616Y-40403323D01*
X55837149Y-40414918D01*
X55837154Y-40414923D01*
X55841492Y-40420818D01*
X55847070Y-40425557D01*
X55847073Y-40425560D01*
X55881768Y-40455035D01*
X55889284Y-40461965D01*
X55894980Y-40467661D01*
X55897841Y-40469924D01*
X55897846Y-40469929D01*
X55917266Y-40485293D01*
X55920667Y-40488082D01*
X55957391Y-40519281D01*
X55976285Y-40535333D01*
X55982805Y-40538662D01*
X55987852Y-40542028D01*
X55992976Y-40545193D01*
X55998717Y-40549735D01*
X56005348Y-40552834D01*
X56005351Y-40552836D01*
X56064830Y-40580634D01*
X56068776Y-40582562D01*
X56133808Y-40615769D01*
X56140914Y-40617508D01*
X56146564Y-40619609D01*
X56152321Y-40621524D01*
X56158950Y-40624622D01*
X56194614Y-40632040D01*
X56198261Y-40632799D01*
X56260881Y-40666255D01*
X56295473Y-40728254D01*
X56291054Y-40799113D01*
X56286801Y-40809400D01*
X56212880Y-40967924D01*
X56155885Y-41180629D01*
X56136693Y-41400000D01*
X56137172Y-41405475D01*
X56137172Y-41405476D01*
X56146908Y-41516761D01*
X56132919Y-41586365D01*
X56110482Y-41616837D01*
X55922724Y-41804595D01*
X55860412Y-41838621D01*
X55833629Y-41841500D01*
X54530707Y-41841500D01*
X54530704Y-41841501D01*
X54084500Y-41841501D01*
X54016379Y-41821499D01*
X53969886Y-41767843D01*
X53958500Y-41715501D01*
X53958499Y-40538496D01*
X53958499Y-40536022D01*
X53956634Y-40512317D01*
X53956179Y-40506526D01*
X53956178Y-40506523D01*
X53955674Y-40500111D01*
X53911018Y-40346407D01*
X53896456Y-40321784D01*
X53833576Y-40215457D01*
X53833573Y-40215453D01*
X53829542Y-40208637D01*
X53716363Y-40095458D01*
X53709547Y-40091427D01*
X53709543Y-40091424D01*
X53585414Y-40018016D01*
X53585415Y-40018016D01*
X53578593Y-40013982D01*
X53564846Y-40009988D01*
X53431072Y-39971122D01*
X53431069Y-39971121D01*
X53424889Y-39969326D01*
X53412238Y-39968330D01*
X53391438Y-39966693D01*
X53391425Y-39966692D01*
X53388979Y-39966500D01*
X53200115Y-39966500D01*
X53011022Y-39966501D01*
X53003234Y-39967114D01*
X52981526Y-39968821D01*
X52981523Y-39968822D01*
X52975111Y-39969326D01*
X52968937Y-39971120D01*
X52968930Y-39971121D01*
X52835153Y-40009988D01*
X52764847Y-40009988D01*
X52631075Y-39971123D01*
X52631073Y-39971123D01*
X52624889Y-39969326D01*
X52611408Y-39968265D01*
X52591437Y-39966693D01*
X52591426Y-39966693D01*
X52588979Y-39966500D01*
X52583027Y-39966500D01*
X52446801Y-39966501D01*
X52378681Y-39946499D01*
X52332188Y-39892844D01*
X52328362Y-39883491D01*
X52318276Y-39855704D01*
X52316848Y-39851545D01*
X52296607Y-39789064D01*
X52296606Y-39789062D01*
X52294351Y-39782101D01*
X52290555Y-39775846D01*
X52288049Y-39770372D01*
X52285330Y-39764942D01*
X52282833Y-39758063D01*
X52242809Y-39697016D01*
X52240472Y-39693312D01*
X52205509Y-39635693D01*
X52205505Y-39635688D01*
X52202595Y-39630892D01*
X52195197Y-39622516D01*
X52195223Y-39622493D01*
X52192574Y-39619503D01*
X52189866Y-39616264D01*
X52185856Y-39610148D01*
X52180549Y-39605121D01*
X52180546Y-39605117D01*
X52129617Y-39556872D01*
X52127175Y-39554494D01*
X51915437Y-39342756D01*
X51881411Y-39280444D01*
X51886476Y-39209629D01*
X51929023Y-39152793D01*
X51995543Y-39127982D01*
X52016061Y-39128190D01*
X52065519Y-39132734D01*
X52071309Y-39133000D01*
X52127885Y-39133000D01*
X52143124Y-39128525D01*
X52144329Y-39127135D01*
X52146000Y-39119452D01*
X52146000Y-39114884D01*
X52654000Y-39114884D01*
X52658475Y-39130123D01*
X52659865Y-39131328D01*
X52667548Y-39132999D01*
X52728705Y-39132999D01*
X52734454Y-39132736D01*
X52798315Y-39126868D01*
X52811351Y-39124257D01*
X52961243Y-39077285D01*
X52974988Y-39071079D01*
X53108574Y-38990176D01*
X53120443Y-38980869D01*
X53230869Y-38870443D01*
X53240176Y-38858574D01*
X53321079Y-38724988D01*
X53327285Y-38711243D01*
X53374256Y-38561356D01*
X53376869Y-38548306D01*
X53381913Y-38493414D01*
X53378525Y-38481876D01*
X53377135Y-38480671D01*
X53369452Y-38479000D01*
X52672115Y-38479000D01*
X52656876Y-38483475D01*
X52655671Y-38484865D01*
X52654000Y-38492548D01*
X52654000Y-39114884D01*
X52146000Y-39114884D01*
X52146000Y-38097000D01*
X52166002Y-38028879D01*
X52219658Y-37982386D01*
X52272000Y-37971000D01*
X53364884Y-37971000D01*
X53380123Y-37966525D01*
X53381328Y-37965135D01*
X53382291Y-37960706D01*
X53376868Y-37901685D01*
X53374257Y-37888649D01*
X53327285Y-37738757D01*
X53321079Y-37725012D01*
X53240176Y-37591426D01*
X53230869Y-37579557D01*
X53140761Y-37489449D01*
X53106735Y-37427137D01*
X53111800Y-37356322D01*
X53140761Y-37311259D01*
X53236639Y-37215381D01*
X53325472Y-37068699D01*
X53329179Y-37056872D01*
X53368658Y-36930892D01*
X53376753Y-36905062D01*
X53383500Y-36831635D01*
X53383499Y-36318366D01*
X53381964Y-36301651D01*
X53379974Y-36279996D01*
X53376753Y-36244938D01*
X53374754Y-36238559D01*
X53327744Y-36088550D01*
X53327743Y-36088548D01*
X53325472Y-36081301D01*
X53236639Y-35934619D01*
X53175615Y-35873595D01*
X53141589Y-35811283D01*
X53146654Y-35740468D01*
X53189201Y-35683632D01*
X53255721Y-35658821D01*
X53264710Y-35658500D01*
X54552934Y-35658500D01*
X54621055Y-35678502D01*
G37*
%TD.AperFunction*%
%TA.AperFunction,Conductor*%
G36*
X47334533Y-38142314D02*
G01*
X47391369Y-38184861D01*
X47416180Y-38251381D01*
X47416501Y-38260358D01*
X47416501Y-38481634D01*
X47416764Y-38484492D01*
X47416764Y-38484501D01*
X47417583Y-38493414D01*
X47423247Y-38555062D01*
X47425246Y-38561440D01*
X47425246Y-38561441D01*
X47469350Y-38702175D01*
X47474528Y-38718699D01*
X47563361Y-38865381D01*
X47604595Y-38906615D01*
X47638621Y-38968927D01*
X47641500Y-38995710D01*
X47641500Y-41269283D01*
X47641501Y-41269303D01*
X47641501Y-41349000D01*
X47621499Y-41417121D01*
X47567843Y-41463614D01*
X47515501Y-41475000D01*
X46860116Y-41475000D01*
X46844877Y-41479475D01*
X46843672Y-41480865D01*
X46842001Y-41488548D01*
X46842001Y-41715500D01*
X46821999Y-41783621D01*
X46768343Y-41830114D01*
X46716001Y-41841500D01*
X44966371Y-41841500D01*
X44898250Y-41821498D01*
X44877276Y-41804595D01*
X44689518Y-41616837D01*
X44655492Y-41554525D01*
X44653092Y-41516761D01*
X44662828Y-41405476D01*
X44662828Y-41405475D01*
X44663307Y-41400000D01*
X44644115Y-41180629D01*
X44587120Y-40967924D01*
X44581972Y-40956885D01*
X46842000Y-40956885D01*
X46846475Y-40972124D01*
X46847865Y-40973329D01*
X46855548Y-40975000D01*
X47331885Y-40975000D01*
X47347124Y-40970525D01*
X47348329Y-40969135D01*
X47350000Y-40961452D01*
X47350000Y-39995257D01*
X47346027Y-39981726D01*
X47338129Y-39980591D01*
X47229220Y-40012232D01*
X47214783Y-40018480D01*
X47090773Y-40091819D01*
X47078335Y-40101468D01*
X46976468Y-40203335D01*
X46966819Y-40215773D01*
X46893480Y-40339783D01*
X46887232Y-40354220D01*
X46846618Y-40494013D01*
X46844320Y-40506600D01*
X46842193Y-40533616D01*
X46842000Y-40538543D01*
X46842000Y-40956885D01*
X44581972Y-40956885D01*
X44540121Y-40867135D01*
X44496382Y-40773334D01*
X44496379Y-40773329D01*
X44494056Y-40768347D01*
X44490899Y-40763838D01*
X44370908Y-40592473D01*
X44370906Y-40592470D01*
X44367749Y-40587962D01*
X44212038Y-40432251D01*
X44207529Y-40429094D01*
X44203504Y-40425716D01*
X44164181Y-40366605D01*
X44158500Y-40329198D01*
X44158500Y-39059500D01*
X44178502Y-38991379D01*
X44232158Y-38944886D01*
X44284500Y-38933500D01*
X44594039Y-38933500D01*
X44662160Y-38953502D01*
X44683057Y-38970327D01*
X44692298Y-38979552D01*
X44698528Y-38983392D01*
X44698529Y-38983393D01*
X44805997Y-39049637D01*
X44837899Y-39069302D01*
X45000243Y-39123149D01*
X45007080Y-39123849D01*
X45007082Y-39123850D01*
X45046466Y-39127885D01*
X45101268Y-39133500D01*
X45698732Y-39133500D01*
X45701978Y-39133163D01*
X45701982Y-39133163D01*
X45736083Y-39129625D01*
X45801019Y-39122887D01*
X45937704Y-39077285D01*
X45956324Y-39071073D01*
X45956326Y-39071072D01*
X45963268Y-39068756D01*
X46005958Y-39042339D01*
X46102485Y-38982606D01*
X46108713Y-38978752D01*
X46113886Y-38973570D01*
X46113891Y-38973566D01*
X46120859Y-38966586D01*
X46183141Y-38932507D01*
X46195432Y-38930453D01*
X46197498Y-38930212D01*
X46201882Y-38929778D01*
X46267339Y-38924454D01*
X46267342Y-38924453D01*
X46274637Y-38923860D01*
X46281601Y-38921604D01*
X46287560Y-38920413D01*
X46293415Y-38919029D01*
X46300681Y-38918182D01*
X46369327Y-38893265D01*
X46373455Y-38891848D01*
X46435936Y-38871607D01*
X46435938Y-38871606D01*
X46442899Y-38869351D01*
X46449154Y-38865555D01*
X46454628Y-38863049D01*
X46460058Y-38860330D01*
X46466937Y-38857833D01*
X46527976Y-38817814D01*
X46531680Y-38815477D01*
X46594107Y-38777595D01*
X46602484Y-38770197D01*
X46602508Y-38770224D01*
X46605500Y-38767571D01*
X46608733Y-38764868D01*
X46614852Y-38760856D01*
X46668128Y-38704617D01*
X46670506Y-38702175D01*
X47201406Y-38171275D01*
X47263718Y-38137249D01*
X47334533Y-38142314D01*
G37*
%TD.AperFunction*%
%TA.AperFunction,Conductor*%
G36*
X59101750Y-31678502D02*
G01*
X59122724Y-31695405D01*
X60204595Y-32777276D01*
X60238621Y-32839588D01*
X60241500Y-32866371D01*
X60241500Y-37948801D01*
X60221498Y-38016922D01*
X60181335Y-38056234D01*
X60072260Y-38123075D01*
X59883927Y-38283927D01*
X59880719Y-38287683D01*
X59880717Y-38287685D01*
X59880313Y-38288158D01*
X59880114Y-38288288D01*
X59877211Y-38291191D01*
X59876601Y-38290581D01*
X59820864Y-38326969D01*
X59749869Y-38327477D01*
X59689869Y-38289523D01*
X59659914Y-38225155D01*
X59658500Y-38206330D01*
X59658500Y-37467069D01*
X59659933Y-37448118D01*
X59660562Y-37443988D01*
X59663199Y-37426651D01*
X59662374Y-37416500D01*
X59658915Y-37373982D01*
X59658500Y-37363767D01*
X59658500Y-37355707D01*
X59655211Y-37327493D01*
X59654778Y-37323118D01*
X59649454Y-37257661D01*
X59649453Y-37257658D01*
X59648860Y-37250363D01*
X59646604Y-37243399D01*
X59645413Y-37237440D01*
X59644029Y-37231585D01*
X59643182Y-37224319D01*
X59618265Y-37155673D01*
X59616848Y-37151545D01*
X59596607Y-37089064D01*
X59596606Y-37089062D01*
X59594351Y-37082101D01*
X59590555Y-37075846D01*
X59588049Y-37070372D01*
X59585330Y-37064942D01*
X59582833Y-37058063D01*
X59542809Y-36997016D01*
X59540472Y-36993312D01*
X59540168Y-36992810D01*
X59528229Y-36973135D01*
X59505509Y-36935693D01*
X59505505Y-36935688D01*
X59502595Y-36930892D01*
X59495197Y-36922516D01*
X59495223Y-36922493D01*
X59492574Y-36919503D01*
X59489866Y-36916264D01*
X59485856Y-36910148D01*
X59480549Y-36905121D01*
X59480546Y-36905117D01*
X59429617Y-36856872D01*
X59427175Y-36854494D01*
X58621270Y-36048589D01*
X58608884Y-36034177D01*
X58600351Y-36022582D01*
X58600346Y-36022577D01*
X58596008Y-36016682D01*
X58590430Y-36011943D01*
X58590427Y-36011940D01*
X58555732Y-35982465D01*
X58548216Y-35975535D01*
X58542521Y-35969840D01*
X58528185Y-35958498D01*
X58520249Y-35952219D01*
X58516845Y-35949428D01*
X58466797Y-35906909D01*
X58466795Y-35906908D01*
X58461215Y-35902167D01*
X58454699Y-35898839D01*
X58449650Y-35895472D01*
X58444521Y-35892305D01*
X58438784Y-35887766D01*
X58372625Y-35856845D01*
X58368725Y-35854939D01*
X58303692Y-35821731D01*
X58296584Y-35819992D01*
X58290941Y-35817893D01*
X58285178Y-35815976D01*
X58278550Y-35812878D01*
X58207083Y-35798013D01*
X58202799Y-35797043D01*
X58190748Y-35794094D01*
X58178136Y-35791008D01*
X58169456Y-35788884D01*
X58108041Y-35753264D01*
X58090951Y-35730635D01*
X58090263Y-35729472D01*
X58024453Y-35618193D01*
X57906807Y-35500547D01*
X57902998Y-35498294D01*
X57862345Y-35442004D01*
X57858494Y-35371112D01*
X57893582Y-35309391D01*
X57901276Y-35302724D01*
X57906807Y-35299453D01*
X58024453Y-35181807D01*
X58028489Y-35174983D01*
X58028491Y-35174980D01*
X58105108Y-35045427D01*
X58109145Y-35038601D01*
X58155562Y-34878831D01*
X58158500Y-34841502D01*
X58158500Y-33683498D01*
X58157447Y-33670115D01*
X58156067Y-33652579D01*
X58156066Y-33652574D01*
X58155562Y-33646169D01*
X58109145Y-33486399D01*
X58048882Y-33384500D01*
X58028491Y-33350020D01*
X58028489Y-33350017D01*
X58024453Y-33343193D01*
X57973005Y-33291745D01*
X57938979Y-33229433D01*
X57944044Y-33158618D01*
X57969760Y-33118564D01*
X57969448Y-33118317D01*
X57971965Y-33115131D01*
X57972926Y-33113633D01*
X57973985Y-33112572D01*
X57982998Y-33101160D01*
X58065004Y-32968120D01*
X58071151Y-32954939D01*
X58120491Y-32806186D01*
X58123358Y-32792810D01*
X58132672Y-32701903D01*
X58133000Y-32695478D01*
X58133000Y-32672115D01*
X58128525Y-32656876D01*
X58127135Y-32655671D01*
X58119452Y-32654000D01*
X57047000Y-32654000D01*
X56978879Y-32633998D01*
X56932386Y-32580342D01*
X56921000Y-32528000D01*
X56921000Y-32272000D01*
X56941002Y-32203879D01*
X56994658Y-32157386D01*
X57047000Y-32146000D01*
X58114885Y-32146000D01*
X58130124Y-32141525D01*
X58131329Y-32140135D01*
X58133000Y-32132452D01*
X58133000Y-32104562D01*
X58132663Y-32098047D01*
X58123106Y-32005943D01*
X58120212Y-31992544D01*
X58070618Y-31843889D01*
X58067836Y-31837951D01*
X58057052Y-31767778D01*
X58085917Y-31702915D01*
X58145268Y-31663954D01*
X58181937Y-31658500D01*
X59033629Y-31658500D01*
X59101750Y-31678502D01*
G37*
%TD.AperFunction*%
%TA.AperFunction,Conductor*%
G36*
X54685629Y-31678502D02*
G01*
X54732122Y-31732158D01*
X54742226Y-31802432D01*
X54732558Y-31834881D01*
X54730698Y-31837899D01*
X54676851Y-32000243D01*
X54676151Y-32007080D01*
X54676150Y-32007082D01*
X54673219Y-32035690D01*
X54666500Y-32101268D01*
X54666500Y-32698732D01*
X54666837Y-32701978D01*
X54666837Y-32701982D01*
X54673282Y-32764093D01*
X54677113Y-32801019D01*
X54679294Y-32807555D01*
X54679294Y-32807557D01*
X54685024Y-32824731D01*
X54691500Y-32864607D01*
X54691500Y-33466246D01*
X54686497Y-33501398D01*
X54646233Y-33639989D01*
X54646232Y-33639993D01*
X54644438Y-33646169D01*
X54643934Y-33652574D01*
X54643933Y-33652579D01*
X54642553Y-33670115D01*
X54641500Y-33683498D01*
X54641500Y-33946129D01*
X54621498Y-34014250D01*
X54604595Y-34035224D01*
X54535224Y-34104595D01*
X54472912Y-34138621D01*
X54446129Y-34141500D01*
X51640062Y-34141500D01*
X51571941Y-34121498D01*
X51525448Y-34067842D01*
X51515344Y-33997568D01*
X51525868Y-33962249D01*
X51584324Y-33836892D01*
X51588072Y-33826595D01*
X51642196Y-33624599D01*
X51644099Y-33613804D01*
X51662326Y-33405475D01*
X51662326Y-33394525D01*
X51644099Y-33186196D01*
X51642196Y-33175401D01*
X51588072Y-32973405D01*
X51584326Y-32963113D01*
X51495946Y-32773583D01*
X51490466Y-32764093D01*
X51461589Y-32722851D01*
X51451113Y-32714477D01*
X51437666Y-32721545D01*
X50759210Y-33400000D01*
X50489095Y-33670116D01*
X50426783Y-33704141D01*
X50355967Y-33699076D01*
X50310905Y-33670115D01*
X50040790Y-33400000D01*
X49361613Y-32720824D01*
X49349839Y-32714394D01*
X49337824Y-32723690D01*
X49309534Y-32764093D01*
X49304054Y-32773583D01*
X49215674Y-32963113D01*
X49211928Y-32973405D01*
X49157804Y-33175401D01*
X49155901Y-33186196D01*
X49137674Y-33394525D01*
X49137674Y-33405475D01*
X49155901Y-33613804D01*
X49157804Y-33624599D01*
X49211928Y-33826595D01*
X49215676Y-33836892D01*
X49274132Y-33962249D01*
X49284794Y-34032441D01*
X49255815Y-34097254D01*
X49196395Y-34136110D01*
X49159938Y-34141500D01*
X47967070Y-34141500D01*
X47948120Y-34140067D01*
X47933885Y-34137901D01*
X47933881Y-34137901D01*
X47926651Y-34136801D01*
X47919359Y-34137394D01*
X47919356Y-34137394D01*
X47873982Y-34141085D01*
X47863767Y-34141500D01*
X47855707Y-34141500D01*
X47852073Y-34141924D01*
X47852067Y-34141924D01*
X47839042Y-34143443D01*
X47827480Y-34144791D01*
X47823132Y-34145221D01*
X47801059Y-34147016D01*
X47757662Y-34150546D01*
X47757659Y-34150547D01*
X47750364Y-34151140D01*
X47743400Y-34153396D01*
X47737461Y-34154583D01*
X47731590Y-34155970D01*
X47724319Y-34156818D01*
X47717443Y-34159314D01*
X47717434Y-34159316D01*
X47655702Y-34181725D01*
X47651598Y-34183135D01*
X47582101Y-34205648D01*
X47575846Y-34209444D01*
X47570387Y-34211943D01*
X47564939Y-34214671D01*
X47558063Y-34217167D01*
X47497010Y-34257195D01*
X47493337Y-34259513D01*
X47430893Y-34297405D01*
X47422517Y-34304802D01*
X47422493Y-34304775D01*
X47419499Y-34307430D01*
X47416268Y-34310132D01*
X47410148Y-34314144D01*
X47405116Y-34319456D01*
X47356872Y-34370383D01*
X47354494Y-34372825D01*
X46411089Y-35316230D01*
X46396677Y-35328616D01*
X46385082Y-35337149D01*
X46385077Y-35337154D01*
X46379182Y-35341492D01*
X46374443Y-35347070D01*
X46374440Y-35347073D01*
X46344965Y-35381768D01*
X46338035Y-35389284D01*
X46332340Y-35394979D01*
X46330060Y-35397861D01*
X46314719Y-35417251D01*
X46311928Y-35420655D01*
X46293791Y-35442004D01*
X46264667Y-35476285D01*
X46261339Y-35482801D01*
X46257972Y-35487850D01*
X46254805Y-35492979D01*
X46250266Y-35498716D01*
X46219345Y-35564875D01*
X46217442Y-35568769D01*
X46184231Y-35633808D01*
X46182492Y-35640916D01*
X46180393Y-35646559D01*
X46178476Y-35652322D01*
X46175378Y-35658950D01*
X46173888Y-35666112D01*
X46171575Y-35673066D01*
X46169729Y-35672452D01*
X46140917Y-35726369D01*
X46078915Y-35760956D01*
X46008056Y-35756530D01*
X45984905Y-35745342D01*
X45968120Y-35734995D01*
X45954939Y-35728849D01*
X45806186Y-35679509D01*
X45792810Y-35676642D01*
X45701903Y-35667328D01*
X45695486Y-35667000D01*
X45672115Y-35667000D01*
X45656876Y-35671475D01*
X45655671Y-35672865D01*
X45654000Y-35680548D01*
X45654000Y-36753000D01*
X45633998Y-36821121D01*
X45580342Y-36867614D01*
X45528000Y-36879000D01*
X44435115Y-36879000D01*
X44419876Y-36883475D01*
X44418671Y-36884865D01*
X44417000Y-36892548D01*
X44417000Y-36895438D01*
X44417337Y-36901953D01*
X44426894Y-36994057D01*
X44429788Y-37007456D01*
X44479381Y-37156107D01*
X44485555Y-37169285D01*
X44519535Y-37224197D01*
X44538373Y-37292649D01*
X44517212Y-37360418D01*
X44462771Y-37405990D01*
X44412391Y-37416500D01*
X44284500Y-37416500D01*
X44216379Y-37396498D01*
X44169886Y-37342842D01*
X44158500Y-37290500D01*
X44158500Y-36353126D01*
X44417071Y-36353126D01*
X44421475Y-36368124D01*
X44422865Y-36369329D01*
X44430548Y-36371000D01*
X45127885Y-36371000D01*
X45143124Y-36366525D01*
X45144329Y-36365135D01*
X45146000Y-36357452D01*
X45146000Y-35685115D01*
X45141525Y-35669876D01*
X45140135Y-35668671D01*
X45132452Y-35667000D01*
X45104562Y-35667000D01*
X45098047Y-35667337D01*
X45005943Y-35676894D01*
X44992544Y-35679788D01*
X44843893Y-35729381D01*
X44830714Y-35735555D01*
X44697827Y-35817788D01*
X44686426Y-35826824D01*
X44576014Y-35937429D01*
X44567002Y-35948840D01*
X44484996Y-36081880D01*
X44478849Y-36095061D01*
X44429509Y-36243814D01*
X44426642Y-36257190D01*
X44417328Y-36348097D01*
X44417071Y-36353126D01*
X44158500Y-36353126D01*
X44158500Y-36342070D01*
X44159933Y-36323120D01*
X44162099Y-36308885D01*
X44162099Y-36308881D01*
X44163199Y-36301651D01*
X44158915Y-36248982D01*
X44158500Y-36238767D01*
X44158500Y-36230707D01*
X44155209Y-36202480D01*
X44154778Y-36198121D01*
X44149454Y-36132662D01*
X44149453Y-36132659D01*
X44148860Y-36125364D01*
X44146604Y-36118400D01*
X44145417Y-36112461D01*
X44144030Y-36106590D01*
X44143182Y-36099319D01*
X44140686Y-36092443D01*
X44140684Y-36092434D01*
X44118275Y-36030702D01*
X44116865Y-36026598D01*
X44094352Y-35957101D01*
X44090556Y-35950846D01*
X44088057Y-35945387D01*
X44085329Y-35939939D01*
X44082833Y-35933063D01*
X44042805Y-35872010D01*
X44040481Y-35868327D01*
X44033530Y-35856871D01*
X44018507Y-35832115D01*
X44005504Y-35810686D01*
X44005501Y-35810682D01*
X44002595Y-35805893D01*
X43998886Y-35801694D01*
X43998883Y-35801689D01*
X43995197Y-35797516D01*
X43995224Y-35797492D01*
X43992571Y-35794500D01*
X43989868Y-35791267D01*
X43985856Y-35785148D01*
X43929617Y-35731872D01*
X43927175Y-35729494D01*
X41644463Y-33446782D01*
X41610437Y-33384470D01*
X41615502Y-33313655D01*
X41658049Y-33256819D01*
X41724569Y-33232008D01*
X41768710Y-33236690D01*
X41833669Y-33255562D01*
X41840074Y-33256066D01*
X41840079Y-33256067D01*
X41868542Y-33258307D01*
X41868550Y-33258307D01*
X41870998Y-33258500D01*
X43028000Y-33258500D01*
X43096121Y-33278502D01*
X43142614Y-33332158D01*
X43154000Y-33384500D01*
X43154000Y-33616502D01*
X43154193Y-33618950D01*
X43154193Y-33618958D01*
X43156335Y-33646169D01*
X43156938Y-33653831D01*
X43165557Y-33683498D01*
X43193590Y-33779988D01*
X43203355Y-33813601D01*
X43207392Y-33820427D01*
X43284009Y-33949980D01*
X43284011Y-33949983D01*
X43288047Y-33956807D01*
X43405693Y-34074453D01*
X43412517Y-34078489D01*
X43412520Y-34078491D01*
X43490747Y-34124754D01*
X43548899Y-34159145D01*
X43556510Y-34161356D01*
X43556512Y-34161357D01*
X43563899Y-34163503D01*
X43708669Y-34205562D01*
X43715074Y-34206066D01*
X43715079Y-34206067D01*
X43743542Y-34208307D01*
X43743550Y-34208307D01*
X43745998Y-34208500D01*
X45054002Y-34208500D01*
X45056450Y-34208307D01*
X45056458Y-34208307D01*
X45084921Y-34206067D01*
X45084926Y-34206066D01*
X45091331Y-34205562D01*
X45097507Y-34203768D01*
X45097511Y-34203767D01*
X45236102Y-34163503D01*
X45271254Y-34158500D01*
X46157930Y-34158500D01*
X46176880Y-34159933D01*
X46191115Y-34162099D01*
X46191119Y-34162099D01*
X46198349Y-34163199D01*
X46205641Y-34162606D01*
X46205644Y-34162606D01*
X46251018Y-34158915D01*
X46261233Y-34158500D01*
X46269293Y-34158500D01*
X46283721Y-34156818D01*
X46297507Y-34155211D01*
X46301882Y-34154778D01*
X46367339Y-34149454D01*
X46367342Y-34149453D01*
X46374637Y-34148860D01*
X46381601Y-34146604D01*
X46387540Y-34145417D01*
X46393408Y-34144030D01*
X46400681Y-34143182D01*
X46407565Y-34140683D01*
X46414685Y-34139000D01*
X46414827Y-34139601D01*
X46449517Y-34133499D01*
X46731634Y-34133499D01*
X46734492Y-34133236D01*
X46734501Y-34133236D01*
X46770004Y-34129974D01*
X46805062Y-34126753D01*
X46875768Y-34104595D01*
X46961450Y-34077744D01*
X46961452Y-34077743D01*
X46968699Y-34075472D01*
X47115381Y-33986639D01*
X47236639Y-33865381D01*
X47325472Y-33718699D01*
X47335730Y-33685968D01*
X47357499Y-33616502D01*
X47376753Y-33555062D01*
X47383500Y-33481635D01*
X47383499Y-32968366D01*
X47383017Y-32963113D01*
X47377364Y-32901592D01*
X47376753Y-32894938D01*
X47367248Y-32864607D01*
X47327744Y-32738550D01*
X47327743Y-32738548D01*
X47325472Y-32731301D01*
X47236639Y-32584619D01*
X47200615Y-32548595D01*
X47166589Y-32486283D01*
X47171654Y-32415468D01*
X47214201Y-32358632D01*
X47240328Y-32348887D01*
X49714477Y-32348887D01*
X49721545Y-32362334D01*
X50387189Y-33027979D01*
X50401132Y-33035592D01*
X50402966Y-33035461D01*
X50409580Y-33031210D01*
X51079180Y-32361609D01*
X51085607Y-32349839D01*
X51076313Y-32337825D01*
X51035912Y-32309536D01*
X51026416Y-32304053D01*
X50836887Y-32215674D01*
X50826595Y-32211928D01*
X50624599Y-32157804D01*
X50613804Y-32155901D01*
X50405475Y-32137674D01*
X50394525Y-32137674D01*
X50186196Y-32155901D01*
X50175401Y-32157804D01*
X49973405Y-32211928D01*
X49963113Y-32215674D01*
X49773583Y-32304054D01*
X49764093Y-32309534D01*
X49722851Y-32338411D01*
X49714477Y-32348887D01*
X47240328Y-32348887D01*
X47280721Y-32333821D01*
X47289710Y-32333500D01*
X48657930Y-32333500D01*
X48676880Y-32334933D01*
X48691115Y-32337099D01*
X48691119Y-32337099D01*
X48698349Y-32338199D01*
X48705641Y-32337606D01*
X48705644Y-32337606D01*
X48751018Y-32333915D01*
X48761233Y-32333500D01*
X48769293Y-32333500D01*
X48782583Y-32331951D01*
X48797507Y-32330211D01*
X48801882Y-32329778D01*
X48867339Y-32324454D01*
X48867342Y-32324453D01*
X48874637Y-32323860D01*
X48881601Y-32321604D01*
X48887560Y-32320413D01*
X48893415Y-32319029D01*
X48900681Y-32318182D01*
X48969327Y-32293265D01*
X48973455Y-32291848D01*
X49035936Y-32271607D01*
X49035938Y-32271606D01*
X49042899Y-32269351D01*
X49049154Y-32265555D01*
X49054628Y-32263049D01*
X49060058Y-32260330D01*
X49066937Y-32257833D01*
X49073340Y-32253635D01*
X49127976Y-32217814D01*
X49131680Y-32215477D01*
X49194107Y-32177595D01*
X49202484Y-32170197D01*
X49202508Y-32170224D01*
X49205500Y-32167571D01*
X49208733Y-32164868D01*
X49214852Y-32160856D01*
X49268128Y-32104617D01*
X49270506Y-32102175D01*
X49677276Y-31695405D01*
X49739588Y-31661379D01*
X49766371Y-31658500D01*
X54617508Y-31658500D01*
X54685629Y-31678502D01*
G37*
%TD.AperFunction*%
%TA.AperFunction,Conductor*%
G36*
X56444395Y-33197108D02*
G01*
X56480853Y-33220499D01*
X56481683Y-33219448D01*
X56498840Y-33232998D01*
X56570786Y-33277346D01*
X56618279Y-33330118D01*
X56629703Y-33400190D01*
X56613124Y-33448744D01*
X56590855Y-33486399D01*
X56544438Y-33646169D01*
X56543934Y-33652574D01*
X56543933Y-33652579D01*
X56542553Y-33670115D01*
X56541500Y-33683498D01*
X56541500Y-34841502D01*
X56544438Y-34878831D01*
X56590855Y-35038601D01*
X56675547Y-35181807D01*
X56681156Y-35187416D01*
X56685399Y-35192886D01*
X56711346Y-35258971D01*
X56697445Y-35328594D01*
X56659554Y-35370116D01*
X56654000Y-35382370D01*
X56654000Y-35620158D01*
X56636453Y-35684297D01*
X56590855Y-35761399D01*
X56588644Y-35769010D01*
X56588643Y-35769012D01*
X56576332Y-35811388D01*
X56544438Y-35921169D01*
X56543934Y-35927574D01*
X56543933Y-35927579D01*
X56542381Y-35947302D01*
X56541500Y-35958498D01*
X56541500Y-36665500D01*
X56521498Y-36733621D01*
X56467842Y-36780114D01*
X56415500Y-36791500D01*
X56384500Y-36791500D01*
X56316379Y-36771498D01*
X56269886Y-36717842D01*
X56258500Y-36665500D01*
X56258500Y-35958498D01*
X56257619Y-35947302D01*
X56256067Y-35927579D01*
X56256066Y-35927574D01*
X56255562Y-35921169D01*
X56223668Y-35811388D01*
X56211357Y-35769012D01*
X56211356Y-35769010D01*
X56209145Y-35761399D01*
X56163547Y-35684297D01*
X56146000Y-35620158D01*
X56146000Y-35388122D01*
X56141526Y-35372884D01*
X56132118Y-35364732D01*
X56093734Y-35305006D01*
X56093734Y-35234010D01*
X56115071Y-35192280D01*
X56118845Y-35187415D01*
X56124453Y-35181807D01*
X56128489Y-35174983D01*
X56128491Y-35174980D01*
X56205108Y-35045427D01*
X56209145Y-35038601D01*
X56255562Y-34878831D01*
X56258500Y-34841502D01*
X56258500Y-33683498D01*
X56257447Y-33670115D01*
X56256067Y-33652579D01*
X56256066Y-33652574D01*
X56255562Y-33646169D01*
X56253768Y-33639993D01*
X56253767Y-33639989D01*
X56213503Y-33501398D01*
X56208500Y-33466246D01*
X56208500Y-33360968D01*
X56228502Y-33292847D01*
X56268197Y-33253824D01*
X56302485Y-33232606D01*
X56308713Y-33228752D01*
X56313886Y-33223570D01*
X56319623Y-33219023D01*
X56321055Y-33220830D01*
X56373575Y-33192098D01*
X56444395Y-33197108D01*
G37*
%TD.AperFunction*%
%TD*%
M02*
