%TF.GenerationSoftware,KiCad,Pcbnew,(6.0.8)*%
%TF.CreationDate,2022-10-28T15:06:34+02:00*%
%TF.ProjectId,eurorack_nvlp_1u,6575726f-7261-4636-9b5f-6e766c705f31,rev?*%
%TF.SameCoordinates,Original*%
%TF.FileFunction,Soldermask,Top*%
%TF.FilePolarity,Negative*%
%FSLAX46Y46*%
G04 Gerber Fmt 4.6, Leading zero omitted, Abs format (unit mm)*
G04 Created by KiCad (PCBNEW (6.0.8)) date 2022-10-28 15:06:34*
%MOMM*%
%LPD*%
G01*
G04 APERTURE LIST*
G04 Aperture macros list*
%AMRoundRect*
0 Rectangle with rounded corners*
0 $1 Rounding radius*
0 $2 $3 $4 $5 $6 $7 $8 $9 X,Y pos of 4 corners*
0 Add a 4 corners polygon primitive as box body*
4,1,4,$2,$3,$4,$5,$6,$7,$8,$9,$2,$3,0*
0 Add four circle primitives for the rounded corners*
1,1,$1+$1,$2,$3*
1,1,$1+$1,$4,$5*
1,1,$1+$1,$6,$7*
1,1,$1+$1,$8,$9*
0 Add four rect primitives between the rounded corners*
20,1,$1+$1,$2,$3,$4,$5,0*
20,1,$1+$1,$4,$5,$6,$7,0*
20,1,$1+$1,$6,$7,$8,$9,0*
20,1,$1+$1,$8,$9,$2,$3,0*%
G04 Aperture macros list end*
%ADD10C,0.300000*%
%ADD11RoundRect,0.250000X0.375000X0.625000X-0.375000X0.625000X-0.375000X-0.625000X0.375000X-0.625000X0*%
%ADD12RoundRect,0.218750X0.218750X0.381250X-0.218750X0.381250X-0.218750X-0.381250X0.218750X-0.381250X0*%
%ADD13C,3.200000*%
%ADD14RoundRect,0.225000X0.250000X-0.225000X0.250000X0.225000X-0.250000X0.225000X-0.250000X-0.225000X0*%
%ADD15RoundRect,0.225000X-0.250000X0.225000X-0.250000X-0.225000X0.250000X-0.225000X0.250000X0.225000X0*%
%ADD16R,1.830000X1.930000*%
%ADD17C,2.130000*%
%ADD18C,1.500000*%
%ADD19RoundRect,0.218750X-0.026517X0.335876X-0.335876X0.026517X0.026517X-0.335876X0.335876X-0.026517X0*%
%ADD20RoundRect,0.225000X-0.225000X-0.250000X0.225000X-0.250000X0.225000X0.250000X-0.225000X0.250000X0*%
%ADD21RoundRect,0.150000X0.587500X0.150000X-0.587500X0.150000X-0.587500X-0.150000X0.587500X-0.150000X0*%
%ADD22RoundRect,0.200000X-0.275000X0.200000X-0.275000X-0.200000X0.275000X-0.200000X0.275000X0.200000X0*%
%ADD23RoundRect,0.125000X-0.625000X-0.125000X0.625000X-0.125000X0.625000X0.125000X-0.625000X0.125000X0*%
%ADD24RoundRect,0.125000X-0.125000X-0.625000X0.125000X-0.625000X0.125000X0.625000X-0.125000X0.625000X0*%
%ADD25O,2.720000X3.240000*%
%ADD26R,1.800000X1.800000*%
%ADD27C,1.800000*%
%ADD28RoundRect,0.150000X0.150000X-0.512500X0.150000X0.512500X-0.150000X0.512500X-0.150000X-0.512500X0*%
%ADD29RoundRect,0.200000X0.275000X-0.200000X0.275000X0.200000X-0.275000X0.200000X-0.275000X-0.200000X0*%
%ADD30RoundRect,0.218750X-0.256250X0.218750X-0.256250X-0.218750X0.256250X-0.218750X0.256250X0.218750X0*%
%ADD31RoundRect,0.150000X-0.825000X-0.150000X0.825000X-0.150000X0.825000X0.150000X-0.825000X0.150000X0*%
%ADD32RoundRect,0.250000X-0.600000X-0.750000X0.600000X-0.750000X0.600000X0.750000X-0.600000X0.750000X0*%
%ADD33O,1.700000X2.000000*%
G04 APERTURE END LIST*
D10*
X40400000Y-27578571D02*
X40757142Y-29078571D01*
X41042857Y-28007142D01*
X41328571Y-29078571D01*
X41685714Y-27578571D01*
X42257142Y-29078571D02*
X42257142Y-27578571D01*
X42757142Y-27578571D02*
X43614285Y-27578571D01*
X43185714Y-29078571D02*
X43185714Y-27578571D01*
X44114285Y-29078571D02*
X44114285Y-27578571D01*
X44971428Y-29078571D01*
X44971428Y-27578571D01*
X45614285Y-29007142D02*
X45828571Y-29078571D01*
X46185714Y-29078571D01*
X46328571Y-29007142D01*
X46400000Y-28935714D01*
X46471428Y-28792857D01*
X46471428Y-28650000D01*
X46400000Y-28507142D01*
X46328571Y-28435714D01*
X46185714Y-28364285D01*
X45900000Y-28292857D01*
X45757142Y-28221428D01*
X45685714Y-28150000D01*
X45614285Y-28007142D01*
X45614285Y-27864285D01*
X45685714Y-27721428D01*
X45757142Y-27650000D01*
X45900000Y-27578571D01*
X46257142Y-27578571D01*
X46471428Y-27650000D01*
X48257142Y-28507142D02*
X49400000Y-28507142D01*
X51257142Y-29078571D02*
X51257142Y-27578571D01*
X52114285Y-29078571D01*
X52114285Y-27578571D01*
X52614285Y-27578571D02*
X53114285Y-29078571D01*
X53614285Y-27578571D01*
X54828571Y-29078571D02*
X54114285Y-29078571D01*
X54114285Y-27578571D01*
X55328571Y-29078571D02*
X55328571Y-27578571D01*
X55900000Y-27578571D01*
X56042857Y-27650000D01*
X56114285Y-27721428D01*
X56185714Y-27864285D01*
X56185714Y-28078571D01*
X56114285Y-28221428D01*
X56042857Y-28292857D01*
X55900000Y-28364285D01*
X55328571Y-28364285D01*
X58757142Y-29078571D02*
X57900000Y-29078571D01*
X58328571Y-29078571D02*
X58328571Y-27578571D01*
X58185714Y-27792857D01*
X58042857Y-27935714D01*
X57900000Y-28007142D01*
X59400000Y-27578571D02*
X59400000Y-28792857D01*
X59471428Y-28935714D01*
X59542857Y-29007142D01*
X59685714Y-29078571D01*
X59971428Y-29078571D01*
X60114285Y-29007142D01*
X60185714Y-28935714D01*
X60257142Y-28792857D01*
X60257142Y-27578571D01*
D11*
%TO.C,F101*%
X62900000Y-45400000D03*
X60100000Y-45400000D03*
%TD*%
D12*
%TO.C,FB101*%
X66562500Y-45400000D03*
X64437500Y-45400000D03*
%TD*%
D13*
%TO.C,H103*%
X67900000Y-62050000D03*
%TD*%
D14*
%TO.C,C105*%
X41400000Y-38175000D03*
X41400000Y-36625000D03*
%TD*%
D15*
%TO.C,C104*%
X57400000Y-50625000D03*
X57400000Y-52175000D03*
%TD*%
D16*
%TO.C,J101*%
X72400000Y-39400000D03*
D17*
X61000000Y-39400000D03*
X69300000Y-39400000D03*
%TD*%
D18*
%TO.C,TP103*%
X50400000Y-33400000D03*
%TD*%
D16*
%TO.C,J102*%
X72400000Y-51400000D03*
D17*
X61000000Y-51400000D03*
X69300000Y-51400000D03*
%TD*%
D19*
%TO.C,L101*%
X38956847Y-34843153D03*
X37843153Y-35956847D03*
%TD*%
D20*
%TO.C,C109*%
X34625000Y-53400000D03*
X36175000Y-53400000D03*
%TD*%
D18*
%TO.C,TP102*%
X57400000Y-41400000D03*
%TD*%
D14*
%TO.C,C111*%
X54600000Y-57175000D03*
X54600000Y-55625000D03*
%TD*%
D15*
%TO.C,C102*%
X42400000Y-46625000D03*
X42400000Y-48175000D03*
%TD*%
%TO.C,C106*%
X55400000Y-50625000D03*
X55400000Y-52175000D03*
%TD*%
D18*
%TO.C,TP101*%
X43400000Y-41400000D03*
%TD*%
D21*
%TO.C,Q101*%
X44400000Y-33400000D03*
X44400000Y-31500000D03*
X42525000Y-32450000D03*
%TD*%
D13*
%TO.C,H102*%
X67900000Y-28400000D03*
%TD*%
D18*
%TO.C,TP105*%
X43400000Y-44400000D03*
%TD*%
D22*
%TO.C,R103*%
X46400000Y-31575000D03*
X46400000Y-33225000D03*
%TD*%
D14*
%TO.C,C107*%
X45400000Y-38175000D03*
X45400000Y-36625000D03*
%TD*%
D15*
%TO.C,C110*%
X44600000Y-54625000D03*
X44600000Y-56175000D03*
%TD*%
D20*
%TO.C,C103*%
X55625000Y-38400000D03*
X57175000Y-38400000D03*
%TD*%
D23*
%TO.C,U101*%
X46225000Y-42600000D03*
X46225000Y-43400000D03*
X46225000Y-44200000D03*
X46225000Y-45000000D03*
X46225000Y-45800000D03*
X46225000Y-46600000D03*
X46225000Y-47400000D03*
X46225000Y-48200000D03*
D24*
X47600000Y-49575000D03*
X48400000Y-49575000D03*
X49200000Y-49575000D03*
X50000000Y-49575000D03*
X50800000Y-49575000D03*
X51600000Y-49575000D03*
X52400000Y-49575000D03*
X53200000Y-49575000D03*
D23*
X54575000Y-48200000D03*
X54575000Y-47400000D03*
X54575000Y-46600000D03*
X54575000Y-45800000D03*
X54575000Y-45000000D03*
X54575000Y-44200000D03*
X54575000Y-43400000D03*
X54575000Y-42600000D03*
D24*
X53200000Y-41225000D03*
X52400000Y-41225000D03*
X51600000Y-41225000D03*
X50800000Y-41225000D03*
X50000000Y-41225000D03*
X49200000Y-41225000D03*
X48400000Y-41225000D03*
X47600000Y-41225000D03*
%TD*%
D20*
%TO.C,C108*%
X55625000Y-32400000D03*
X57175000Y-32400000D03*
%TD*%
D15*
%TO.C,C101*%
X43900000Y-46625000D03*
X43900000Y-48175000D03*
%TD*%
D13*
%TO.C,H104*%
X32900000Y-62050000D03*
%TD*%
D25*
%TO.C,RV101*%
X39200000Y-43625000D03*
X29600000Y-43625000D03*
D26*
X31900000Y-51125000D03*
D27*
X34400000Y-51125000D03*
X36900000Y-51125000D03*
%TD*%
D28*
%TO.C,U103*%
X55450000Y-36537500D03*
X56400000Y-36537500D03*
X57350000Y-36537500D03*
X57350000Y-34262500D03*
X55450000Y-34262500D03*
%TD*%
D18*
%TO.C,TP104*%
X57400000Y-44400000D03*
%TD*%
D29*
%TO.C,R104*%
X40400000Y-33275000D03*
X40400000Y-31625000D03*
%TD*%
%TO.C,R101*%
X48400000Y-38225000D03*
X48400000Y-36575000D03*
%TD*%
D30*
%TO.C,D101*%
X50400000Y-36612500D03*
X50400000Y-38187500D03*
%TD*%
D31*
%TO.C,U102*%
X47125000Y-54495000D03*
X47125000Y-55765000D03*
X47125000Y-57035000D03*
X47125000Y-58305000D03*
X52075000Y-58305000D03*
X52075000Y-57035000D03*
X52075000Y-55765000D03*
X52075000Y-54495000D03*
%TD*%
D13*
%TO.C,H101*%
X32900000Y-28400000D03*
%TD*%
D22*
%TO.C,R102*%
X52400000Y-36575000D03*
X52400000Y-38225000D03*
%TD*%
D32*
%TO.C,J103*%
X68400000Y-45400000D03*
D33*
X70900000Y-45400000D03*
%TD*%
M02*
