%TF.GenerationSoftware,KiCad,Pcbnew,(6.0.8)*%
%TF.CreationDate,2022-10-28T15:06:34+02:00*%
%TF.ProjectId,eurorack_nvlp_1u,6575726f-7261-4636-9b5f-6e766c705f31,rev?*%
%TF.SameCoordinates,Original*%
%TF.FileFunction,Copper,L2,Bot*%
%TF.FilePolarity,Positive*%
%FSLAX46Y46*%
G04 Gerber Fmt 4.6, Leading zero omitted, Abs format (unit mm)*
G04 Created by KiCad (PCBNEW (6.0.8)) date 2022-10-28 15:06:34*
%MOMM*%
%LPD*%
G01*
G04 APERTURE LIST*
G04 Aperture macros list*
%AMRoundRect*
0 Rectangle with rounded corners*
0 $1 Rounding radius*
0 $2 $3 $4 $5 $6 $7 $8 $9 X,Y pos of 4 corners*
0 Add a 4 corners polygon primitive as box body*
4,1,4,$2,$3,$4,$5,$6,$7,$8,$9,$2,$3,0*
0 Add four circle primitives for the rounded corners*
1,1,$1+$1,$2,$3*
1,1,$1+$1,$4,$5*
1,1,$1+$1,$6,$7*
1,1,$1+$1,$8,$9*
0 Add four rect primitives between the rounded corners*
20,1,$1+$1,$2,$3,$4,$5,0*
20,1,$1+$1,$4,$5,$6,$7,0*
20,1,$1+$1,$6,$7,$8,$9,0*
20,1,$1+$1,$8,$9,$2,$3,0*%
G04 Aperture macros list end*
%TA.AperFunction,ComponentPad*%
%ADD10R,1.830000X1.930000*%
%TD*%
%TA.AperFunction,ComponentPad*%
%ADD11C,2.130000*%
%TD*%
%TA.AperFunction,ComponentPad*%
%ADD12O,2.720000X3.240000*%
%TD*%
%TA.AperFunction,ComponentPad*%
%ADD13R,1.800000X1.800000*%
%TD*%
%TA.AperFunction,ComponentPad*%
%ADD14C,1.800000*%
%TD*%
%TA.AperFunction,ComponentPad*%
%ADD15RoundRect,0.250000X-0.600000X-0.750000X0.600000X-0.750000X0.600000X0.750000X-0.600000X0.750000X0*%
%TD*%
%TA.AperFunction,ComponentPad*%
%ADD16O,1.700000X2.000000*%
%TD*%
%TA.AperFunction,ViaPad*%
%ADD17C,0.700000*%
%TD*%
G04 APERTURE END LIST*
D10*
%TO.P,J101,S*%
%TO.N,GND*%
X72400000Y-39400000D03*
D11*
%TO.P,J101,T*%
%TO.N,Net-(J101-PadT)*%
X61000000Y-39400000D03*
%TO.P,J101,TN*%
%TO.N,unconnected-(J101-PadTN)*%
X69300000Y-39400000D03*
%TD*%
D10*
%TO.P,J102,S*%
%TO.N,GND*%
X72400000Y-51400000D03*
D11*
%TO.P,J102,T*%
%TO.N,Net-(J102-PadT)*%
X61000000Y-51400000D03*
%TO.P,J102,TN*%
%TO.N,unconnected-(J102-PadTN)*%
X69300000Y-51400000D03*
%TD*%
D12*
%TO.P,RV101,*%
%TO.N,*%
X39200000Y-43625000D03*
X29600000Y-43625000D03*
D13*
%TO.P,RV101,1,1*%
%TO.N,+3.3VA*%
X31900000Y-51125000D03*
D14*
%TO.P,RV101,2,2*%
%TO.N,/POT_ENV*%
X34400000Y-51125000D03*
%TO.P,RV101,3,3*%
%TO.N,GND*%
X36900000Y-51125000D03*
%TD*%
D15*
%TO.P,J103,1,Pin_1*%
%TO.N,Net-(J103-Pad1)*%
X68400000Y-45400000D03*
D16*
%TO.P,J103,2,Pin_2*%
%TO.N,GND*%
X70900000Y-45400000D03*
%TD*%
D17*
%TO.N,GND*%
X46500000Y-41200000D03*
X39400000Y-28400000D03*
X45400000Y-35900000D03*
X52400000Y-38900000D03*
X59900000Y-36800000D03*
X60900000Y-60900000D03*
X55600000Y-55600000D03*
X49400000Y-32400000D03*
X43300000Y-31500000D03*
X57400000Y-52900000D03*
X42400000Y-48900000D03*
X48552980Y-62853752D03*
X33600000Y-49300000D03*
X55400000Y-52900000D03*
X61900000Y-28900000D03*
X57900000Y-38400000D03*
X54000000Y-36000000D03*
X55800000Y-49200000D03*
X53400000Y-50900000D03*
X57900000Y-32400000D03*
X44600000Y-39500000D03*
X48400000Y-35900000D03*
X36100000Y-40400000D03*
X56400000Y-35400000D03*
X48400000Y-26900000D03*
X44600000Y-56900000D03*
X55600000Y-41100000D03*
X43900000Y-48900000D03*
X56200000Y-45600000D03*
X29400000Y-33400000D03*
X28269205Y-56363576D03*
X61300000Y-53400000D03*
X51900000Y-53300000D03*
X42600000Y-33700000D03*
X40200000Y-41300000D03*
X58800000Y-42800000D03*
X61100000Y-49300000D03*
X37500000Y-45400000D03*
X58800000Y-51900000D03*
X54100000Y-32100000D03*
X40600000Y-35400000D03*
X38900000Y-59400000D03*
%TD*%
%TA.AperFunction,Conductor*%
%TO.N,GND*%
G36*
X73370018Y-25910000D02*
G01*
X73384851Y-25912310D01*
X73384855Y-25912310D01*
X73393724Y-25913691D01*
X73408981Y-25911696D01*
X73434302Y-25910953D01*
X73603285Y-25923039D01*
X73621064Y-25925596D01*
X73811392Y-25966999D01*
X73828641Y-25972063D01*
X74011150Y-26040136D01*
X74027502Y-26047604D01*
X74198458Y-26140952D01*
X74213582Y-26150672D01*
X74369514Y-26267402D01*
X74383100Y-26279175D01*
X74520825Y-26416900D01*
X74532598Y-26430486D01*
X74649328Y-26586418D01*
X74659048Y-26601542D01*
X74752396Y-26772498D01*
X74759864Y-26788850D01*
X74827937Y-26971359D01*
X74833001Y-26988607D01*
X74874404Y-27178936D01*
X74876962Y-27196721D01*
X74888540Y-27358601D01*
X74887793Y-27376565D01*
X74887692Y-27384845D01*
X74886309Y-27393724D01*
X74887474Y-27402630D01*
X74890436Y-27425283D01*
X74891500Y-27441621D01*
X74891500Y-63000633D01*
X74890000Y-63020018D01*
X74887690Y-63034851D01*
X74887690Y-63034855D01*
X74886309Y-63043724D01*
X74888136Y-63057693D01*
X74888304Y-63058976D01*
X74889047Y-63084305D01*
X74876962Y-63253279D01*
X74874404Y-63271064D01*
X74872986Y-63277586D01*
X74833001Y-63461392D01*
X74827937Y-63478641D01*
X74759864Y-63661150D01*
X74752396Y-63677502D01*
X74659048Y-63848458D01*
X74649328Y-63863582D01*
X74532598Y-64019514D01*
X74520825Y-64033100D01*
X74383100Y-64170825D01*
X74369514Y-64182598D01*
X74213582Y-64299328D01*
X74198458Y-64309048D01*
X74027502Y-64402396D01*
X74011150Y-64409864D01*
X73828641Y-64477937D01*
X73811393Y-64483001D01*
X73621064Y-64524404D01*
X73603285Y-64526961D01*
X73441395Y-64538540D01*
X73423435Y-64537793D01*
X73415155Y-64537692D01*
X73406276Y-64536309D01*
X73374714Y-64540436D01*
X73358379Y-64541500D01*
X27449367Y-64541500D01*
X27429982Y-64540000D01*
X27415149Y-64537690D01*
X27415145Y-64537690D01*
X27406276Y-64536309D01*
X27391019Y-64538304D01*
X27365698Y-64539047D01*
X27196715Y-64526961D01*
X27178936Y-64524404D01*
X26988607Y-64483001D01*
X26971359Y-64477937D01*
X26788850Y-64409864D01*
X26772498Y-64402396D01*
X26601542Y-64309048D01*
X26586418Y-64299328D01*
X26430486Y-64182598D01*
X26416900Y-64170825D01*
X26279175Y-64033100D01*
X26267402Y-64019514D01*
X26150672Y-63863582D01*
X26140952Y-63848458D01*
X26047604Y-63677502D01*
X26040136Y-63661150D01*
X25972063Y-63478641D01*
X25966999Y-63461392D01*
X25927014Y-63277586D01*
X25925596Y-63271064D01*
X25923038Y-63253278D01*
X25911719Y-63095012D01*
X25912805Y-63072245D01*
X25912334Y-63072203D01*
X25912770Y-63067345D01*
X25913576Y-63062552D01*
X25913729Y-63050000D01*
X25909773Y-63022376D01*
X25908500Y-63004514D01*
X25908500Y-62182703D01*
X30790743Y-62182703D01*
X30828268Y-62467734D01*
X30904129Y-62745036D01*
X30905813Y-62748984D01*
X31014807Y-63004514D01*
X31016923Y-63009476D01*
X31164561Y-63256161D01*
X31344313Y-63480528D01*
X31552851Y-63678423D01*
X31786317Y-63846186D01*
X31790112Y-63848195D01*
X31790113Y-63848196D01*
X31811869Y-63859715D01*
X32040392Y-63980712D01*
X32310373Y-64079511D01*
X32591264Y-64140755D01*
X32619841Y-64143004D01*
X32814282Y-64158307D01*
X32814291Y-64158307D01*
X32816739Y-64158500D01*
X32972271Y-64158500D01*
X32974407Y-64158354D01*
X32974418Y-64158354D01*
X33182548Y-64144165D01*
X33182554Y-64144164D01*
X33186825Y-64143873D01*
X33191020Y-64143004D01*
X33191022Y-64143004D01*
X33327584Y-64114723D01*
X33468342Y-64085574D01*
X33739343Y-63989607D01*
X33994812Y-63857750D01*
X33998313Y-63855289D01*
X33998317Y-63855287D01*
X34112417Y-63775096D01*
X34230023Y-63692441D01*
X34440622Y-63496740D01*
X34622713Y-63274268D01*
X34772927Y-63029142D01*
X34888483Y-62765898D01*
X34967244Y-62489406D01*
X35007751Y-62204784D01*
X35007845Y-62186951D01*
X35007867Y-62182703D01*
X65790743Y-62182703D01*
X65828268Y-62467734D01*
X65904129Y-62745036D01*
X65905813Y-62748984D01*
X66014807Y-63004514D01*
X66016923Y-63009476D01*
X66164561Y-63256161D01*
X66344313Y-63480528D01*
X66552851Y-63678423D01*
X66786317Y-63846186D01*
X66790112Y-63848195D01*
X66790113Y-63848196D01*
X66811869Y-63859715D01*
X67040392Y-63980712D01*
X67310373Y-64079511D01*
X67591264Y-64140755D01*
X67619841Y-64143004D01*
X67814282Y-64158307D01*
X67814291Y-64158307D01*
X67816739Y-64158500D01*
X67972271Y-64158500D01*
X67974407Y-64158354D01*
X67974418Y-64158354D01*
X68182548Y-64144165D01*
X68182554Y-64144164D01*
X68186825Y-64143873D01*
X68191020Y-64143004D01*
X68191022Y-64143004D01*
X68327584Y-64114723D01*
X68468342Y-64085574D01*
X68739343Y-63989607D01*
X68994812Y-63857750D01*
X68998313Y-63855289D01*
X68998317Y-63855287D01*
X69112417Y-63775096D01*
X69230023Y-63692441D01*
X69440622Y-63496740D01*
X69622713Y-63274268D01*
X69772927Y-63029142D01*
X69888483Y-62765898D01*
X69967244Y-62489406D01*
X70007751Y-62204784D01*
X70007845Y-62186951D01*
X70009235Y-61921583D01*
X70009235Y-61921576D01*
X70009257Y-61917297D01*
X69971732Y-61632266D01*
X69895871Y-61354964D01*
X69783077Y-61090524D01*
X69635439Y-60843839D01*
X69455687Y-60619472D01*
X69247149Y-60421577D01*
X69013683Y-60253814D01*
X68991843Y-60242250D01*
X68968654Y-60229972D01*
X68759608Y-60119288D01*
X68489627Y-60020489D01*
X68208736Y-59959245D01*
X68177685Y-59956801D01*
X67985718Y-59941693D01*
X67985709Y-59941693D01*
X67983261Y-59941500D01*
X67827729Y-59941500D01*
X67825593Y-59941646D01*
X67825582Y-59941646D01*
X67617452Y-59955835D01*
X67617446Y-59955836D01*
X67613175Y-59956127D01*
X67608980Y-59956996D01*
X67608978Y-59956996D01*
X67472416Y-59985277D01*
X67331658Y-60014426D01*
X67060657Y-60110393D01*
X66805188Y-60242250D01*
X66801687Y-60244711D01*
X66801683Y-60244713D01*
X66791594Y-60251804D01*
X66569977Y-60407559D01*
X66359378Y-60603260D01*
X66177287Y-60825732D01*
X66027073Y-61070858D01*
X65911517Y-61334102D01*
X65832756Y-61610594D01*
X65792249Y-61895216D01*
X65792227Y-61899505D01*
X65792226Y-61899512D01*
X65790765Y-62178417D01*
X65790743Y-62182703D01*
X35007867Y-62182703D01*
X35009235Y-61921583D01*
X35009235Y-61921576D01*
X35009257Y-61917297D01*
X34971732Y-61632266D01*
X34895871Y-61354964D01*
X34783077Y-61090524D01*
X34635439Y-60843839D01*
X34455687Y-60619472D01*
X34247149Y-60421577D01*
X34013683Y-60253814D01*
X33991843Y-60242250D01*
X33968654Y-60229972D01*
X33759608Y-60119288D01*
X33489627Y-60020489D01*
X33208736Y-59959245D01*
X33177685Y-59956801D01*
X32985718Y-59941693D01*
X32985709Y-59941693D01*
X32983261Y-59941500D01*
X32827729Y-59941500D01*
X32825593Y-59941646D01*
X32825582Y-59941646D01*
X32617452Y-59955835D01*
X32617446Y-59955836D01*
X32613175Y-59956127D01*
X32608980Y-59956996D01*
X32608978Y-59956996D01*
X32472416Y-59985277D01*
X32331658Y-60014426D01*
X32060657Y-60110393D01*
X31805188Y-60242250D01*
X31801687Y-60244711D01*
X31801683Y-60244713D01*
X31791594Y-60251804D01*
X31569977Y-60407559D01*
X31359378Y-60603260D01*
X31177287Y-60825732D01*
X31027073Y-61070858D01*
X30911517Y-61334102D01*
X30832756Y-61610594D01*
X30792249Y-61895216D01*
X30792227Y-61899505D01*
X30792226Y-61899512D01*
X30790765Y-62178417D01*
X30790743Y-62182703D01*
X25908500Y-62182703D01*
X25908500Y-52073134D01*
X30491500Y-52073134D01*
X30498255Y-52135316D01*
X30549385Y-52271705D01*
X30636739Y-52388261D01*
X30753295Y-52475615D01*
X30889684Y-52526745D01*
X30951866Y-52533500D01*
X32848134Y-52533500D01*
X32910316Y-52526745D01*
X33046705Y-52475615D01*
X33163261Y-52388261D01*
X33250615Y-52271705D01*
X33265686Y-52231504D01*
X33308328Y-52174739D01*
X33374890Y-52150040D01*
X33444239Y-52165248D01*
X33464150Y-52178788D01*
X33589349Y-52282730D01*
X33789322Y-52399584D01*
X33794147Y-52401426D01*
X33794148Y-52401427D01*
X33833584Y-52416486D01*
X34005694Y-52482209D01*
X34010760Y-52483240D01*
X34010761Y-52483240D01*
X34063846Y-52494040D01*
X34232656Y-52528385D01*
X34362089Y-52533131D01*
X34458949Y-52536683D01*
X34458953Y-52536683D01*
X34464113Y-52536872D01*
X34469233Y-52536216D01*
X34469235Y-52536216D01*
X34543166Y-52526745D01*
X34693847Y-52507442D01*
X34698795Y-52505957D01*
X34698802Y-52505956D01*
X34910747Y-52442369D01*
X34915690Y-52440886D01*
X34997161Y-52400974D01*
X35119049Y-52341262D01*
X35119052Y-52341260D01*
X35123684Y-52338991D01*
X35197406Y-52286406D01*
X36103423Y-52286406D01*
X36108704Y-52293461D01*
X36285080Y-52396527D01*
X36294363Y-52400974D01*
X36501003Y-52479883D01*
X36510901Y-52482759D01*
X36727653Y-52526857D01*
X36737883Y-52528076D01*
X36958914Y-52536182D01*
X36969223Y-52535714D01*
X37188623Y-52507608D01*
X37198688Y-52505468D01*
X37410557Y-52441905D01*
X37420152Y-52438144D01*
X37618778Y-52340838D01*
X37627636Y-52335559D01*
X37685097Y-52294572D01*
X37693497Y-52283874D01*
X37686510Y-52270721D01*
X36912811Y-51497021D01*
X36898868Y-51489408D01*
X36897034Y-51489539D01*
X36890420Y-51493790D01*
X36110180Y-52274031D01*
X36103423Y-52286406D01*
X35197406Y-52286406D01*
X35312243Y-52204494D01*
X35476303Y-52041005D01*
X35550714Y-51937451D01*
X35606709Y-51893803D01*
X35677412Y-51887357D01*
X35737572Y-51917543D01*
X35740555Y-51920242D01*
X35749330Y-51916459D01*
X36527979Y-51137811D01*
X36534356Y-51126132D01*
X37264408Y-51126132D01*
X37264539Y-51127966D01*
X37268790Y-51134580D01*
X38046307Y-51912096D01*
X38058313Y-51918652D01*
X38070052Y-51909684D01*
X38108010Y-51856859D01*
X38113321Y-51848020D01*
X38211318Y-51649737D01*
X38215117Y-51640142D01*
X38279415Y-51428517D01*
X38281594Y-51418436D01*
X38284021Y-51400000D01*
X59421634Y-51400000D01*
X59441066Y-51646911D01*
X59442220Y-51651718D01*
X59442221Y-51651724D01*
X59447117Y-51672115D01*
X59498885Y-51887742D01*
X59500778Y-51892313D01*
X59500779Y-51892315D01*
X59574262Y-52069717D01*
X59593666Y-52116563D01*
X59723075Y-52327740D01*
X59820978Y-52442369D01*
X59877117Y-52508099D01*
X59883927Y-52516073D01*
X60072260Y-52676925D01*
X60283437Y-52806334D01*
X60288007Y-52808227D01*
X60288011Y-52808229D01*
X60507685Y-52899221D01*
X60512258Y-52901115D01*
X60597170Y-52921501D01*
X60748276Y-52957779D01*
X60748282Y-52957780D01*
X60753089Y-52958934D01*
X61000000Y-52978366D01*
X61246911Y-52958934D01*
X61251718Y-52957780D01*
X61251724Y-52957779D01*
X61402830Y-52921501D01*
X61487742Y-52901115D01*
X61492315Y-52899221D01*
X61711989Y-52808229D01*
X61711993Y-52808227D01*
X61716563Y-52806334D01*
X61927740Y-52676925D01*
X62116073Y-52516073D01*
X62122884Y-52508099D01*
X62179022Y-52442369D01*
X62276925Y-52327740D01*
X62406334Y-52116563D01*
X62425739Y-52069717D01*
X62499221Y-51892315D01*
X62499222Y-51892313D01*
X62501115Y-51887742D01*
X62552883Y-51672115D01*
X62557779Y-51651724D01*
X62557780Y-51651718D01*
X62558934Y-51646911D01*
X62578366Y-51400000D01*
X67721634Y-51400000D01*
X67741066Y-51646911D01*
X67742220Y-51651718D01*
X67742221Y-51651724D01*
X67747117Y-51672115D01*
X67798885Y-51887742D01*
X67800778Y-51892313D01*
X67800779Y-51892315D01*
X67874262Y-52069717D01*
X67893666Y-52116563D01*
X68023075Y-52327740D01*
X68120978Y-52442369D01*
X68177117Y-52508099D01*
X68183927Y-52516073D01*
X68372260Y-52676925D01*
X68583437Y-52806334D01*
X68588007Y-52808227D01*
X68588011Y-52808229D01*
X68807685Y-52899221D01*
X68812258Y-52901115D01*
X68897170Y-52921501D01*
X69048276Y-52957779D01*
X69048282Y-52957780D01*
X69053089Y-52958934D01*
X69300000Y-52978366D01*
X69546911Y-52958934D01*
X69551718Y-52957780D01*
X69551724Y-52957779D01*
X69702830Y-52921501D01*
X69787742Y-52901115D01*
X69792315Y-52899221D01*
X70011989Y-52808229D01*
X70011993Y-52808227D01*
X70016563Y-52806334D01*
X70227740Y-52676925D01*
X70416073Y-52516073D01*
X70422884Y-52508099D01*
X70479022Y-52442369D01*
X70576925Y-52327740D01*
X70706334Y-52116563D01*
X70734592Y-52048342D01*
X70779141Y-51993062D01*
X70846504Y-51970641D01*
X70915295Y-51988199D01*
X70963674Y-52040162D01*
X70977001Y-52096561D01*
X70977001Y-52409669D01*
X70977371Y-52416490D01*
X70982895Y-52467352D01*
X70986521Y-52482604D01*
X71031676Y-52603054D01*
X71040214Y-52618649D01*
X71116715Y-52720724D01*
X71129276Y-52733285D01*
X71231351Y-52809786D01*
X71246946Y-52818324D01*
X71367394Y-52863478D01*
X71382649Y-52867105D01*
X71433514Y-52872631D01*
X71440328Y-52873000D01*
X72127885Y-52873000D01*
X72143124Y-52868525D01*
X72144329Y-52867135D01*
X72146000Y-52859452D01*
X72146000Y-52854884D01*
X72654000Y-52854884D01*
X72658475Y-52870123D01*
X72659865Y-52871328D01*
X72667548Y-52872999D01*
X73359669Y-52872999D01*
X73366490Y-52872629D01*
X73417352Y-52867105D01*
X73432604Y-52863479D01*
X73553054Y-52818324D01*
X73568649Y-52809786D01*
X73670724Y-52733285D01*
X73683285Y-52720724D01*
X73759786Y-52618649D01*
X73768324Y-52603054D01*
X73813478Y-52482606D01*
X73817105Y-52467351D01*
X73822631Y-52416486D01*
X73823000Y-52409672D01*
X73823000Y-51672115D01*
X73818525Y-51656876D01*
X73817135Y-51655671D01*
X73809452Y-51654000D01*
X72672115Y-51654000D01*
X72656876Y-51658475D01*
X72655671Y-51659865D01*
X72654000Y-51667548D01*
X72654000Y-52854884D01*
X72146000Y-52854884D01*
X72146000Y-51127885D01*
X72654000Y-51127885D01*
X72658475Y-51143124D01*
X72659865Y-51144329D01*
X72667548Y-51146000D01*
X73804884Y-51146000D01*
X73820123Y-51141525D01*
X73821328Y-51140135D01*
X73822999Y-51132452D01*
X73822999Y-50390331D01*
X73822629Y-50383510D01*
X73817105Y-50332648D01*
X73813479Y-50317396D01*
X73768324Y-50196946D01*
X73759786Y-50181351D01*
X73683285Y-50079276D01*
X73670724Y-50066715D01*
X73568649Y-49990214D01*
X73553054Y-49981676D01*
X73432606Y-49936522D01*
X73417351Y-49932895D01*
X73366486Y-49927369D01*
X73359672Y-49927000D01*
X72672115Y-49927000D01*
X72656876Y-49931475D01*
X72655671Y-49932865D01*
X72654000Y-49940548D01*
X72654000Y-51127885D01*
X72146000Y-51127885D01*
X72146000Y-49945116D01*
X72141525Y-49929877D01*
X72140135Y-49928672D01*
X72132452Y-49927001D01*
X71440331Y-49927001D01*
X71433510Y-49927371D01*
X71382648Y-49932895D01*
X71367396Y-49936521D01*
X71246946Y-49981676D01*
X71231351Y-49990214D01*
X71129276Y-50066715D01*
X71116715Y-50079276D01*
X71040214Y-50181351D01*
X71031676Y-50196946D01*
X70986522Y-50317394D01*
X70982895Y-50332649D01*
X70977369Y-50383514D01*
X70977000Y-50390328D01*
X70977000Y-50703438D01*
X70956998Y-50771559D01*
X70903342Y-50818052D01*
X70833068Y-50828156D01*
X70768488Y-50798662D01*
X70734591Y-50751656D01*
X70708229Y-50688011D01*
X70708227Y-50688007D01*
X70706334Y-50683437D01*
X70576925Y-50472260D01*
X70416073Y-50283927D01*
X70227740Y-50123075D01*
X70016563Y-49993666D01*
X70011993Y-49991773D01*
X70011989Y-49991771D01*
X69792315Y-49900779D01*
X69792313Y-49900778D01*
X69787742Y-49898885D01*
X69662926Y-49868919D01*
X69551724Y-49842221D01*
X69551718Y-49842220D01*
X69546911Y-49841066D01*
X69300000Y-49821634D01*
X69053089Y-49841066D01*
X69048282Y-49842220D01*
X69048276Y-49842221D01*
X68937074Y-49868919D01*
X68812258Y-49898885D01*
X68807687Y-49900778D01*
X68807685Y-49900779D01*
X68588011Y-49991771D01*
X68588007Y-49991773D01*
X68583437Y-49993666D01*
X68372260Y-50123075D01*
X68183927Y-50283927D01*
X68023075Y-50472260D01*
X67893666Y-50683437D01*
X67891773Y-50688007D01*
X67891771Y-50688011D01*
X67804211Y-50899400D01*
X67798885Y-50912258D01*
X67797730Y-50917070D01*
X67742221Y-51148276D01*
X67742220Y-51148282D01*
X67741066Y-51153089D01*
X67721634Y-51400000D01*
X62578366Y-51400000D01*
X62558934Y-51153089D01*
X62557780Y-51148282D01*
X62557779Y-51148276D01*
X62502270Y-50917070D01*
X62501115Y-50912258D01*
X62495789Y-50899400D01*
X62408229Y-50688011D01*
X62408227Y-50688007D01*
X62406334Y-50683437D01*
X62276925Y-50472260D01*
X62116073Y-50283927D01*
X61927740Y-50123075D01*
X61716563Y-49993666D01*
X61711993Y-49991773D01*
X61711989Y-49991771D01*
X61492315Y-49900779D01*
X61492313Y-49900778D01*
X61487742Y-49898885D01*
X61362926Y-49868919D01*
X61251724Y-49842221D01*
X61251718Y-49842220D01*
X61246911Y-49841066D01*
X61000000Y-49821634D01*
X60753089Y-49841066D01*
X60748282Y-49842220D01*
X60748276Y-49842221D01*
X60637074Y-49868919D01*
X60512258Y-49898885D01*
X60507687Y-49900778D01*
X60507685Y-49900779D01*
X60288011Y-49991771D01*
X60288007Y-49991773D01*
X60283437Y-49993666D01*
X60072260Y-50123075D01*
X59883927Y-50283927D01*
X59723075Y-50472260D01*
X59593666Y-50683437D01*
X59591773Y-50688007D01*
X59591771Y-50688011D01*
X59504211Y-50899400D01*
X59498885Y-50912258D01*
X59497730Y-50917070D01*
X59442221Y-51148276D01*
X59442220Y-51148282D01*
X59441066Y-51153089D01*
X59421634Y-51400000D01*
X38284021Y-51400000D01*
X38310702Y-51197338D01*
X38311221Y-51190663D01*
X38312744Y-51128364D01*
X38312550Y-51121646D01*
X38294279Y-50899400D01*
X38292596Y-50889238D01*
X38238710Y-50674708D01*
X38235389Y-50664953D01*
X38147193Y-50462118D01*
X38142315Y-50453020D01*
X38069224Y-50340038D01*
X38058538Y-50330835D01*
X38048973Y-50335238D01*
X37272021Y-51112189D01*
X37264408Y-51126132D01*
X36534356Y-51126132D01*
X36535592Y-51123868D01*
X36535461Y-51122034D01*
X36531210Y-51115420D01*
X35753862Y-50338073D01*
X35742331Y-50331776D01*
X35732877Y-50339183D01*
X35666918Y-50365450D01*
X35597229Y-50351887D01*
X35549377Y-50308440D01*
X35522571Y-50267004D01*
X35519764Y-50262665D01*
X35363887Y-50091358D01*
X35359836Y-50088159D01*
X35359832Y-50088155D01*
X35204790Y-49965711D01*
X36105508Y-49965711D01*
X36112251Y-49978040D01*
X36887189Y-50752979D01*
X36901132Y-50760592D01*
X36902966Y-50760461D01*
X36909580Y-50756210D01*
X37688994Y-49976795D01*
X37696011Y-49963944D01*
X37688237Y-49953274D01*
X37685902Y-49951430D01*
X37677320Y-49945729D01*
X37483678Y-49838833D01*
X37474272Y-49834606D01*
X37265772Y-49760772D01*
X37255809Y-49758140D01*
X37038047Y-49719350D01*
X37027796Y-49718381D01*
X36806616Y-49715679D01*
X36796332Y-49716399D01*
X36577693Y-49749855D01*
X36567666Y-49752244D01*
X36357426Y-49820961D01*
X36347916Y-49824958D01*
X36151725Y-49927089D01*
X36143007Y-49932578D01*
X36113961Y-49954386D01*
X36105508Y-49965711D01*
X35204790Y-49965711D01*
X35186177Y-49951011D01*
X35186172Y-49951008D01*
X35182123Y-49947810D01*
X35177607Y-49945317D01*
X35177604Y-49945315D01*
X34983879Y-49838373D01*
X34983875Y-49838371D01*
X34979355Y-49835876D01*
X34974486Y-49834152D01*
X34974482Y-49834150D01*
X34765903Y-49760288D01*
X34765899Y-49760287D01*
X34761028Y-49758562D01*
X34755935Y-49757655D01*
X34755932Y-49757654D01*
X34538095Y-49718851D01*
X34538089Y-49718850D01*
X34533006Y-49717945D01*
X34460096Y-49717054D01*
X34306581Y-49715179D01*
X34306579Y-49715179D01*
X34301411Y-49715116D01*
X34072464Y-49750150D01*
X33852314Y-49822106D01*
X33847726Y-49824494D01*
X33847722Y-49824496D01*
X33707041Y-49897730D01*
X33646872Y-49929052D01*
X33642739Y-49932155D01*
X33642736Y-49932157D01*
X33461655Y-50068117D01*
X33460976Y-50067213D01*
X33401730Y-50095131D01*
X33331341Y-50085869D01*
X33277132Y-50040022D01*
X33264325Y-50014866D01*
X33253768Y-49986705D01*
X33253767Y-49986703D01*
X33250615Y-49978295D01*
X33163261Y-49861739D01*
X33046705Y-49774385D01*
X32910316Y-49723255D01*
X32848134Y-49716500D01*
X30951866Y-49716500D01*
X30889684Y-49723255D01*
X30753295Y-49774385D01*
X30636739Y-49861739D01*
X30549385Y-49978295D01*
X30498255Y-50114684D01*
X30491500Y-50176866D01*
X30491500Y-52073134D01*
X25908500Y-52073134D01*
X25908500Y-46200400D01*
X67041500Y-46200400D01*
X67052474Y-46306166D01*
X67108450Y-46473946D01*
X67201522Y-46624348D01*
X67326697Y-46749305D01*
X67332927Y-46753145D01*
X67332928Y-46753146D01*
X67470090Y-46837694D01*
X67477262Y-46842115D01*
X67520701Y-46856523D01*
X67638611Y-46895632D01*
X67638613Y-46895632D01*
X67645139Y-46897797D01*
X67651975Y-46898497D01*
X67651978Y-46898498D01*
X67695031Y-46902909D01*
X67749600Y-46908500D01*
X69050400Y-46908500D01*
X69053646Y-46908163D01*
X69053650Y-46908163D01*
X69149308Y-46898238D01*
X69149312Y-46898237D01*
X69156166Y-46897526D01*
X69162702Y-46895345D01*
X69162704Y-46895345D01*
X69294806Y-46851272D01*
X69323946Y-46841550D01*
X69474348Y-46748478D01*
X69599305Y-46623303D01*
X69689353Y-46477220D01*
X69742124Y-46429727D01*
X69812196Y-46418303D01*
X69877320Y-46446577D01*
X69887782Y-46456364D01*
X69993234Y-46566906D01*
X70001186Y-46573941D01*
X70177525Y-46705141D01*
X70186562Y-46710745D01*
X70382484Y-46810357D01*
X70392335Y-46814357D01*
X70602240Y-46879534D01*
X70612624Y-46881817D01*
X70628043Y-46883861D01*
X70642207Y-46881665D01*
X70646000Y-46868478D01*
X70646000Y-46866192D01*
X71154000Y-46866192D01*
X71157973Y-46879723D01*
X71168580Y-46881248D01*
X71286421Y-46856523D01*
X71296617Y-46853463D01*
X71501029Y-46772737D01*
X71510561Y-46768006D01*
X71698462Y-46653984D01*
X71707052Y-46647720D01*
X71873052Y-46503673D01*
X71880472Y-46496042D01*
X72019826Y-46326089D01*
X72025850Y-46317322D01*
X72134576Y-46126318D01*
X72139041Y-46116654D01*
X72214031Y-45910059D01*
X72216802Y-45899792D01*
X72256123Y-45682345D01*
X72257056Y-45674116D01*
X72257268Y-45669624D01*
X72253525Y-45656876D01*
X72252135Y-45655671D01*
X72244452Y-45654000D01*
X71172115Y-45654000D01*
X71156876Y-45658475D01*
X71155671Y-45659865D01*
X71154000Y-45667548D01*
X71154000Y-46866192D01*
X70646000Y-46866192D01*
X70646000Y-45127885D01*
X71154000Y-45127885D01*
X71158475Y-45143124D01*
X71159865Y-45144329D01*
X71167548Y-45146000D01*
X72235970Y-45146000D01*
X72250648Y-45141690D01*
X72252711Y-45129807D01*
X72243876Y-45025675D01*
X72242086Y-45015203D01*
X72186870Y-44802465D01*
X72183335Y-44792425D01*
X72093063Y-44592030D01*
X72087894Y-44582744D01*
X71965150Y-44400425D01*
X71958481Y-44392130D01*
X71806772Y-44233100D01*
X71798814Y-44226059D01*
X71622475Y-44094859D01*
X71613438Y-44089255D01*
X71417516Y-43989643D01*
X71407665Y-43985643D01*
X71197760Y-43920466D01*
X71187376Y-43918183D01*
X71171957Y-43916139D01*
X71157793Y-43918335D01*
X71154000Y-43931522D01*
X71154000Y-45127885D01*
X70646000Y-45127885D01*
X70646000Y-43933808D01*
X70642027Y-43920277D01*
X70631420Y-43918752D01*
X70513579Y-43943477D01*
X70503383Y-43946537D01*
X70298971Y-44027263D01*
X70289439Y-44031994D01*
X70101538Y-44146016D01*
X70092948Y-44152280D01*
X69926948Y-44296327D01*
X69919530Y-44303956D01*
X69893609Y-44335569D01*
X69834949Y-44375564D01*
X69763979Y-44377496D01*
X69703230Y-44340752D01*
X69689030Y-44321982D01*
X69602332Y-44181880D01*
X69598478Y-44175652D01*
X69473303Y-44050695D01*
X69442965Y-44031994D01*
X69328968Y-43961725D01*
X69328966Y-43961724D01*
X69322738Y-43957885D01*
X69203498Y-43918335D01*
X69161389Y-43904368D01*
X69161387Y-43904368D01*
X69154861Y-43902203D01*
X69148025Y-43901503D01*
X69148022Y-43901502D01*
X69104969Y-43897091D01*
X69050400Y-43891500D01*
X67749600Y-43891500D01*
X67746354Y-43891837D01*
X67746350Y-43891837D01*
X67650692Y-43901762D01*
X67650688Y-43901763D01*
X67643834Y-43902474D01*
X67637298Y-43904655D01*
X67637296Y-43904655D01*
X67505194Y-43948728D01*
X67476054Y-43958450D01*
X67325652Y-44051522D01*
X67200695Y-44176697D01*
X67196855Y-44182927D01*
X67196854Y-44182928D01*
X67126954Y-44296327D01*
X67107885Y-44327262D01*
X67052203Y-44495139D01*
X67041500Y-44599600D01*
X67041500Y-46200400D01*
X25908500Y-46200400D01*
X25908500Y-43953884D01*
X27731500Y-43953884D01*
X27731665Y-43956152D01*
X27731665Y-43956164D01*
X27738305Y-44047668D01*
X27746125Y-44155451D01*
X27747109Y-44159906D01*
X27747109Y-44159909D01*
X27795149Y-44377496D01*
X27804585Y-44420237D01*
X27900655Y-44673810D01*
X28032324Y-44910859D01*
X28196833Y-45126417D01*
X28200099Y-45129610D01*
X28200101Y-45129612D01*
X28212456Y-45141690D01*
X28390736Y-45315970D01*
X28609972Y-45475547D01*
X28849947Y-45601804D01*
X28854248Y-45603323D01*
X28854253Y-45603325D01*
X28987087Y-45650233D01*
X29105634Y-45692096D01*
X29203653Y-45711415D01*
X29367206Y-45743652D01*
X29367212Y-45743653D01*
X29371678Y-45744533D01*
X29376232Y-45744760D01*
X29376234Y-45744760D01*
X29637936Y-45757789D01*
X29637942Y-45757789D01*
X29642505Y-45758016D01*
X29912441Y-45732262D01*
X29916870Y-45731178D01*
X29916877Y-45731177D01*
X30076584Y-45692096D01*
X30175832Y-45667810D01*
X30195448Y-45659865D01*
X30422931Y-45567725D01*
X30422932Y-45567725D01*
X30427160Y-45566012D01*
X30661161Y-45428999D01*
X30872932Y-45259641D01*
X30996012Y-45127885D01*
X31054921Y-45064824D01*
X31054923Y-45064821D01*
X31058037Y-45061488D01*
X31212598Y-44838688D01*
X31294624Y-44673810D01*
X31331346Y-44599997D01*
X31331347Y-44599994D01*
X31333379Y-44595910D01*
X31417847Y-44338240D01*
X31445896Y-44176697D01*
X31463579Y-44074856D01*
X31463580Y-44074848D01*
X31464235Y-44071075D01*
X31465441Y-44046854D01*
X31468422Y-43986971D01*
X31468422Y-43986963D01*
X31468500Y-43985400D01*
X31468500Y-43953884D01*
X37331500Y-43953884D01*
X37331665Y-43956152D01*
X37331665Y-43956164D01*
X37338305Y-44047668D01*
X37346125Y-44155451D01*
X37347109Y-44159906D01*
X37347109Y-44159909D01*
X37395149Y-44377496D01*
X37404585Y-44420237D01*
X37500655Y-44673810D01*
X37632324Y-44910859D01*
X37796833Y-45126417D01*
X37800099Y-45129610D01*
X37800101Y-45129612D01*
X37812456Y-45141690D01*
X37990736Y-45315970D01*
X38209972Y-45475547D01*
X38449947Y-45601804D01*
X38454248Y-45603323D01*
X38454253Y-45603325D01*
X38587087Y-45650233D01*
X38705634Y-45692096D01*
X38803653Y-45711415D01*
X38967206Y-45743652D01*
X38967212Y-45743653D01*
X38971678Y-45744533D01*
X38976232Y-45744760D01*
X38976234Y-45744760D01*
X39237936Y-45757789D01*
X39237942Y-45757789D01*
X39242505Y-45758016D01*
X39512441Y-45732262D01*
X39516870Y-45731178D01*
X39516877Y-45731177D01*
X39676584Y-45692096D01*
X39775832Y-45667810D01*
X39795448Y-45659865D01*
X40022931Y-45567725D01*
X40022932Y-45567725D01*
X40027160Y-45566012D01*
X40261161Y-45428999D01*
X40472932Y-45259641D01*
X40596012Y-45127885D01*
X40654921Y-45064824D01*
X40654923Y-45064821D01*
X40658037Y-45061488D01*
X40812598Y-44838688D01*
X40894624Y-44673810D01*
X40931346Y-44599997D01*
X40931347Y-44599994D01*
X40933379Y-44595910D01*
X41017847Y-44338240D01*
X41045896Y-44176697D01*
X41063579Y-44074856D01*
X41063580Y-44074848D01*
X41064235Y-44071075D01*
X41065441Y-44046854D01*
X41068422Y-43986971D01*
X41068422Y-43986963D01*
X41068500Y-43985400D01*
X41068500Y-43296116D01*
X41066328Y-43266170D01*
X41054205Y-43099100D01*
X41053875Y-43094549D01*
X41052891Y-43090091D01*
X40996400Y-42834223D01*
X40996399Y-42834219D01*
X40995415Y-42829763D01*
X40899345Y-42576190D01*
X40767676Y-42339141D01*
X40603167Y-42123583D01*
X40409264Y-41934030D01*
X40190028Y-41774453D01*
X39950053Y-41648196D01*
X39945752Y-41646677D01*
X39945747Y-41646675D01*
X39767998Y-41583906D01*
X39694366Y-41557904D01*
X39596347Y-41538585D01*
X39432794Y-41506348D01*
X39432788Y-41506347D01*
X39428322Y-41505467D01*
X39423768Y-41505240D01*
X39423766Y-41505240D01*
X39162064Y-41492211D01*
X39162058Y-41492211D01*
X39157495Y-41491984D01*
X38887559Y-41517738D01*
X38883130Y-41518822D01*
X38883123Y-41518823D01*
X38753069Y-41550648D01*
X38624168Y-41582190D01*
X38619933Y-41583905D01*
X38619931Y-41583906D01*
X38377069Y-41682275D01*
X38372840Y-41683988D01*
X38138839Y-41821001D01*
X37927068Y-41990359D01*
X37923947Y-41993700D01*
X37799224Y-42127215D01*
X37741963Y-42188512D01*
X37587402Y-42411312D01*
X37585374Y-42415388D01*
X37585373Y-42415390D01*
X37503252Y-42580460D01*
X37466621Y-42654090D01*
X37382153Y-42911760D01*
X37335765Y-43178925D01*
X37331500Y-43264600D01*
X37331500Y-43953884D01*
X31468500Y-43953884D01*
X31468500Y-43296116D01*
X31466328Y-43266170D01*
X31454205Y-43099100D01*
X31453875Y-43094549D01*
X31452891Y-43090091D01*
X31396400Y-42834223D01*
X31396399Y-42834219D01*
X31395415Y-42829763D01*
X31299345Y-42576190D01*
X31167676Y-42339141D01*
X31003167Y-42123583D01*
X30809264Y-41934030D01*
X30590028Y-41774453D01*
X30350053Y-41648196D01*
X30345752Y-41646677D01*
X30345747Y-41646675D01*
X30167998Y-41583906D01*
X30094366Y-41557904D01*
X29996347Y-41538585D01*
X29832794Y-41506348D01*
X29832788Y-41506347D01*
X29828322Y-41505467D01*
X29823768Y-41505240D01*
X29823766Y-41505240D01*
X29562064Y-41492211D01*
X29562058Y-41492211D01*
X29557495Y-41491984D01*
X29287559Y-41517738D01*
X29283130Y-41518822D01*
X29283123Y-41518823D01*
X29153069Y-41550648D01*
X29024168Y-41582190D01*
X29019933Y-41583905D01*
X29019931Y-41583906D01*
X28777069Y-41682275D01*
X28772840Y-41683988D01*
X28538839Y-41821001D01*
X28327068Y-41990359D01*
X28323947Y-41993700D01*
X28199224Y-42127215D01*
X28141963Y-42188512D01*
X27987402Y-42411312D01*
X27985374Y-42415388D01*
X27985373Y-42415390D01*
X27903252Y-42580460D01*
X27866621Y-42654090D01*
X27782153Y-42911760D01*
X27735765Y-43178925D01*
X27731500Y-43264600D01*
X27731500Y-43953884D01*
X25908500Y-43953884D01*
X25908500Y-39400000D01*
X59421634Y-39400000D01*
X59441066Y-39646911D01*
X59442220Y-39651718D01*
X59442221Y-39651724D01*
X59447117Y-39672115D01*
X59498885Y-39887742D01*
X59500778Y-39892313D01*
X59500779Y-39892315D01*
X59562020Y-40040162D01*
X59593666Y-40116563D01*
X59723075Y-40327740D01*
X59883927Y-40516073D01*
X60072260Y-40676925D01*
X60283437Y-40806334D01*
X60288007Y-40808227D01*
X60288011Y-40808229D01*
X60507685Y-40899221D01*
X60512258Y-40901115D01*
X60597170Y-40921501D01*
X60748276Y-40957779D01*
X60748282Y-40957780D01*
X60753089Y-40958934D01*
X61000000Y-40978366D01*
X61246911Y-40958934D01*
X61251718Y-40957780D01*
X61251724Y-40957779D01*
X61402830Y-40921501D01*
X61487742Y-40901115D01*
X61492315Y-40899221D01*
X61711989Y-40808229D01*
X61711993Y-40808227D01*
X61716563Y-40806334D01*
X61927740Y-40676925D01*
X62116073Y-40516073D01*
X62276925Y-40327740D01*
X62406334Y-40116563D01*
X62437981Y-40040162D01*
X62499221Y-39892315D01*
X62499222Y-39892313D01*
X62501115Y-39887742D01*
X62552883Y-39672115D01*
X62557779Y-39651724D01*
X62557780Y-39651718D01*
X62558934Y-39646911D01*
X62578366Y-39400000D01*
X67721634Y-39400000D01*
X67741066Y-39646911D01*
X67742220Y-39651718D01*
X67742221Y-39651724D01*
X67747117Y-39672115D01*
X67798885Y-39887742D01*
X67800778Y-39892313D01*
X67800779Y-39892315D01*
X67862020Y-40040162D01*
X67893666Y-40116563D01*
X68023075Y-40327740D01*
X68183927Y-40516073D01*
X68372260Y-40676925D01*
X68583437Y-40806334D01*
X68588007Y-40808227D01*
X68588011Y-40808229D01*
X68807685Y-40899221D01*
X68812258Y-40901115D01*
X68897170Y-40921501D01*
X69048276Y-40957779D01*
X69048282Y-40957780D01*
X69053089Y-40958934D01*
X69300000Y-40978366D01*
X69546911Y-40958934D01*
X69551718Y-40957780D01*
X69551724Y-40957779D01*
X69702830Y-40921501D01*
X69787742Y-40901115D01*
X69792315Y-40899221D01*
X70011989Y-40808229D01*
X70011993Y-40808227D01*
X70016563Y-40806334D01*
X70227740Y-40676925D01*
X70416073Y-40516073D01*
X70576925Y-40327740D01*
X70706334Y-40116563D01*
X70734592Y-40048342D01*
X70779141Y-39993062D01*
X70846504Y-39970641D01*
X70915295Y-39988199D01*
X70963674Y-40040162D01*
X70977001Y-40096561D01*
X70977001Y-40409669D01*
X70977371Y-40416490D01*
X70982895Y-40467352D01*
X70986521Y-40482604D01*
X71031676Y-40603054D01*
X71040214Y-40618649D01*
X71116715Y-40720724D01*
X71129276Y-40733285D01*
X71231351Y-40809786D01*
X71246946Y-40818324D01*
X71367394Y-40863478D01*
X71382649Y-40867105D01*
X71433514Y-40872631D01*
X71440328Y-40873000D01*
X72127885Y-40873000D01*
X72143124Y-40868525D01*
X72144329Y-40867135D01*
X72146000Y-40859452D01*
X72146000Y-40854884D01*
X72654000Y-40854884D01*
X72658475Y-40870123D01*
X72659865Y-40871328D01*
X72667548Y-40872999D01*
X73359669Y-40872999D01*
X73366490Y-40872629D01*
X73417352Y-40867105D01*
X73432604Y-40863479D01*
X73553054Y-40818324D01*
X73568649Y-40809786D01*
X73670724Y-40733285D01*
X73683285Y-40720724D01*
X73759786Y-40618649D01*
X73768324Y-40603054D01*
X73813478Y-40482606D01*
X73817105Y-40467351D01*
X73822631Y-40416486D01*
X73823000Y-40409672D01*
X73823000Y-39672115D01*
X73818525Y-39656876D01*
X73817135Y-39655671D01*
X73809452Y-39654000D01*
X72672115Y-39654000D01*
X72656876Y-39658475D01*
X72655671Y-39659865D01*
X72654000Y-39667548D01*
X72654000Y-40854884D01*
X72146000Y-40854884D01*
X72146000Y-39127885D01*
X72654000Y-39127885D01*
X72658475Y-39143124D01*
X72659865Y-39144329D01*
X72667548Y-39146000D01*
X73804884Y-39146000D01*
X73820123Y-39141525D01*
X73821328Y-39140135D01*
X73822999Y-39132452D01*
X73822999Y-38390331D01*
X73822629Y-38383510D01*
X73817105Y-38332648D01*
X73813479Y-38317396D01*
X73768324Y-38196946D01*
X73759786Y-38181351D01*
X73683285Y-38079276D01*
X73670724Y-38066715D01*
X73568649Y-37990214D01*
X73553054Y-37981676D01*
X73432606Y-37936522D01*
X73417351Y-37932895D01*
X73366486Y-37927369D01*
X73359672Y-37927000D01*
X72672115Y-37927000D01*
X72656876Y-37931475D01*
X72655671Y-37932865D01*
X72654000Y-37940548D01*
X72654000Y-39127885D01*
X72146000Y-39127885D01*
X72146000Y-37945116D01*
X72141525Y-37929877D01*
X72140135Y-37928672D01*
X72132452Y-37927001D01*
X71440331Y-37927001D01*
X71433510Y-37927371D01*
X71382648Y-37932895D01*
X71367396Y-37936521D01*
X71246946Y-37981676D01*
X71231351Y-37990214D01*
X71129276Y-38066715D01*
X71116715Y-38079276D01*
X71040214Y-38181351D01*
X71031676Y-38196946D01*
X70986522Y-38317394D01*
X70982895Y-38332649D01*
X70977369Y-38383514D01*
X70977000Y-38390328D01*
X70977000Y-38703438D01*
X70956998Y-38771559D01*
X70903342Y-38818052D01*
X70833068Y-38828156D01*
X70768488Y-38798662D01*
X70734591Y-38751656D01*
X70708229Y-38688011D01*
X70708227Y-38688007D01*
X70706334Y-38683437D01*
X70576925Y-38472260D01*
X70416073Y-38283927D01*
X70227740Y-38123075D01*
X70016563Y-37993666D01*
X70011993Y-37991773D01*
X70011989Y-37991771D01*
X69792315Y-37900779D01*
X69792313Y-37900778D01*
X69787742Y-37898885D01*
X69702830Y-37878499D01*
X69551724Y-37842221D01*
X69551718Y-37842220D01*
X69546911Y-37841066D01*
X69300000Y-37821634D01*
X69053089Y-37841066D01*
X69048282Y-37842220D01*
X69048276Y-37842221D01*
X68897170Y-37878499D01*
X68812258Y-37898885D01*
X68807687Y-37900778D01*
X68807685Y-37900779D01*
X68588011Y-37991771D01*
X68588007Y-37991773D01*
X68583437Y-37993666D01*
X68372260Y-38123075D01*
X68183927Y-38283927D01*
X68023075Y-38472260D01*
X67893666Y-38683437D01*
X67891773Y-38688007D01*
X67891771Y-38688011D01*
X67833721Y-38828156D01*
X67798885Y-38912258D01*
X67797730Y-38917070D01*
X67742221Y-39148276D01*
X67742220Y-39148282D01*
X67741066Y-39153089D01*
X67721634Y-39400000D01*
X62578366Y-39400000D01*
X62558934Y-39153089D01*
X62557780Y-39148282D01*
X62557779Y-39148276D01*
X62502270Y-38917070D01*
X62501115Y-38912258D01*
X62466279Y-38828156D01*
X62408229Y-38688011D01*
X62408227Y-38688007D01*
X62406334Y-38683437D01*
X62276925Y-38472260D01*
X62116073Y-38283927D01*
X61927740Y-38123075D01*
X61716563Y-37993666D01*
X61711993Y-37991773D01*
X61711989Y-37991771D01*
X61492315Y-37900779D01*
X61492313Y-37900778D01*
X61487742Y-37898885D01*
X61402830Y-37878499D01*
X61251724Y-37842221D01*
X61251718Y-37842220D01*
X61246911Y-37841066D01*
X61000000Y-37821634D01*
X60753089Y-37841066D01*
X60748282Y-37842220D01*
X60748276Y-37842221D01*
X60597170Y-37878499D01*
X60512258Y-37898885D01*
X60507687Y-37900778D01*
X60507685Y-37900779D01*
X60288011Y-37991771D01*
X60288007Y-37991773D01*
X60283437Y-37993666D01*
X60072260Y-38123075D01*
X59883927Y-38283927D01*
X59723075Y-38472260D01*
X59593666Y-38683437D01*
X59591773Y-38688007D01*
X59591771Y-38688011D01*
X59533721Y-38828156D01*
X59498885Y-38912258D01*
X59497730Y-38917070D01*
X59442221Y-39148276D01*
X59442220Y-39148282D01*
X59441066Y-39153089D01*
X59421634Y-39400000D01*
X25908500Y-39400000D01*
X25908500Y-28532703D01*
X30790743Y-28532703D01*
X30828268Y-28817734D01*
X30904129Y-29095036D01*
X31016923Y-29359476D01*
X31164561Y-29606161D01*
X31344313Y-29830528D01*
X31552851Y-30028423D01*
X31786317Y-30196186D01*
X31790112Y-30198195D01*
X31790113Y-30198196D01*
X31811869Y-30209715D01*
X32040392Y-30330712D01*
X32310373Y-30429511D01*
X32591264Y-30490755D01*
X32619841Y-30493004D01*
X32814282Y-30508307D01*
X32814291Y-30508307D01*
X32816739Y-30508500D01*
X32972271Y-30508500D01*
X32974407Y-30508354D01*
X32974418Y-30508354D01*
X33182548Y-30494165D01*
X33182554Y-30494164D01*
X33186825Y-30493873D01*
X33191020Y-30493004D01*
X33191022Y-30493004D01*
X33327584Y-30464723D01*
X33468342Y-30435574D01*
X33739343Y-30339607D01*
X33994812Y-30207750D01*
X33998313Y-30205289D01*
X33998317Y-30205287D01*
X34112417Y-30125096D01*
X34230023Y-30042441D01*
X34440622Y-29846740D01*
X34622713Y-29624268D01*
X34772927Y-29379142D01*
X34888483Y-29115898D01*
X34967244Y-28839406D01*
X35007751Y-28554784D01*
X35007845Y-28536951D01*
X35007867Y-28532703D01*
X65790743Y-28532703D01*
X65828268Y-28817734D01*
X65904129Y-29095036D01*
X66016923Y-29359476D01*
X66164561Y-29606161D01*
X66344313Y-29830528D01*
X66552851Y-30028423D01*
X66786317Y-30196186D01*
X66790112Y-30198195D01*
X66790113Y-30198196D01*
X66811869Y-30209715D01*
X67040392Y-30330712D01*
X67310373Y-30429511D01*
X67591264Y-30490755D01*
X67619841Y-30493004D01*
X67814282Y-30508307D01*
X67814291Y-30508307D01*
X67816739Y-30508500D01*
X67972271Y-30508500D01*
X67974407Y-30508354D01*
X67974418Y-30508354D01*
X68182548Y-30494165D01*
X68182554Y-30494164D01*
X68186825Y-30493873D01*
X68191020Y-30493004D01*
X68191022Y-30493004D01*
X68327584Y-30464723D01*
X68468342Y-30435574D01*
X68739343Y-30339607D01*
X68994812Y-30207750D01*
X68998313Y-30205289D01*
X68998317Y-30205287D01*
X69112417Y-30125096D01*
X69230023Y-30042441D01*
X69440622Y-29846740D01*
X69622713Y-29624268D01*
X69772927Y-29379142D01*
X69888483Y-29115898D01*
X69967244Y-28839406D01*
X70007751Y-28554784D01*
X70007845Y-28536951D01*
X70009235Y-28271583D01*
X70009235Y-28271576D01*
X70009257Y-28267297D01*
X69971732Y-27982266D01*
X69895871Y-27704964D01*
X69783077Y-27440524D01*
X69635439Y-27193839D01*
X69455687Y-26969472D01*
X69247149Y-26771577D01*
X69013683Y-26603814D01*
X68991843Y-26592250D01*
X68968654Y-26579972D01*
X68759608Y-26469288D01*
X68489627Y-26370489D01*
X68208736Y-26309245D01*
X68177685Y-26306801D01*
X67985718Y-26291693D01*
X67985709Y-26291693D01*
X67983261Y-26291500D01*
X67827729Y-26291500D01*
X67825593Y-26291646D01*
X67825582Y-26291646D01*
X67617452Y-26305835D01*
X67617446Y-26305836D01*
X67613175Y-26306127D01*
X67608980Y-26306996D01*
X67608978Y-26306996D01*
X67472417Y-26335276D01*
X67331658Y-26364426D01*
X67060657Y-26460393D01*
X66805188Y-26592250D01*
X66801687Y-26594711D01*
X66801683Y-26594713D01*
X66791594Y-26601804D01*
X66569977Y-26757559D01*
X66359378Y-26953260D01*
X66177287Y-27175732D01*
X66027073Y-27420858D01*
X66025347Y-27424791D01*
X66025346Y-27424792D01*
X66021559Y-27433420D01*
X65911517Y-27684102D01*
X65832756Y-27960594D01*
X65792249Y-28245216D01*
X65792227Y-28249505D01*
X65792226Y-28249512D01*
X65790765Y-28528417D01*
X65790743Y-28532703D01*
X35007867Y-28532703D01*
X35009235Y-28271583D01*
X35009235Y-28271576D01*
X35009257Y-28267297D01*
X34971732Y-27982266D01*
X34895871Y-27704964D01*
X34783077Y-27440524D01*
X34635439Y-27193839D01*
X34455687Y-26969472D01*
X34247149Y-26771577D01*
X34013683Y-26603814D01*
X33991843Y-26592250D01*
X33968654Y-26579972D01*
X33759608Y-26469288D01*
X33489627Y-26370489D01*
X33208736Y-26309245D01*
X33177685Y-26306801D01*
X32985718Y-26291693D01*
X32985709Y-26291693D01*
X32983261Y-26291500D01*
X32827729Y-26291500D01*
X32825593Y-26291646D01*
X32825582Y-26291646D01*
X32617452Y-26305835D01*
X32617446Y-26305836D01*
X32613175Y-26306127D01*
X32608980Y-26306996D01*
X32608978Y-26306996D01*
X32472417Y-26335276D01*
X32331658Y-26364426D01*
X32060657Y-26460393D01*
X31805188Y-26592250D01*
X31801687Y-26594711D01*
X31801683Y-26594713D01*
X31791594Y-26601804D01*
X31569977Y-26757559D01*
X31359378Y-26953260D01*
X31177287Y-27175732D01*
X31027073Y-27420858D01*
X31025347Y-27424791D01*
X31025346Y-27424792D01*
X31021559Y-27433420D01*
X30911517Y-27684102D01*
X30832756Y-27960594D01*
X30792249Y-28245216D01*
X30792227Y-28249505D01*
X30792226Y-28249512D01*
X30790765Y-28528417D01*
X30790743Y-28532703D01*
X25908500Y-28532703D01*
X25908500Y-27453250D01*
X25910246Y-27432345D01*
X25912770Y-27417344D01*
X25912770Y-27417341D01*
X25913576Y-27412552D01*
X25913729Y-27400000D01*
X25913040Y-27395186D01*
X25913039Y-27395176D01*
X25912157Y-27389017D01*
X25911206Y-27362172D01*
X25923038Y-27196723D01*
X25925596Y-27178934D01*
X25966999Y-26988607D01*
X25972063Y-26971359D01*
X26040136Y-26788850D01*
X26047604Y-26772498D01*
X26140952Y-26601542D01*
X26150672Y-26586418D01*
X26267402Y-26430486D01*
X26279175Y-26416900D01*
X26416900Y-26279175D01*
X26430486Y-26267402D01*
X26586418Y-26150672D01*
X26601542Y-26140952D01*
X26772498Y-26047604D01*
X26788850Y-26040136D01*
X26971359Y-25972063D01*
X26988608Y-25966999D01*
X27178936Y-25925596D01*
X27196715Y-25923039D01*
X27358605Y-25911460D01*
X27376565Y-25912207D01*
X27384845Y-25912308D01*
X27393724Y-25913691D01*
X27425286Y-25909564D01*
X27441621Y-25908500D01*
X73350633Y-25908500D01*
X73370018Y-25910000D01*
G37*
%TD.AperFunction*%
%TD*%
M02*
