%TF.GenerationSoftware,KiCad,Pcbnew,(6.0.8)*%
%TF.CreationDate,2022-10-28T15:06:34+02:00*%
%TF.ProjectId,eurorack_nvlp_1u,6575726f-7261-4636-9b5f-6e766c705f31,rev?*%
%TF.SameCoordinates,Original*%
%TF.FileFunction,Legend,Top*%
%TF.FilePolarity,Positive*%
%FSLAX46Y46*%
G04 Gerber Fmt 4.6, Leading zero omitted, Abs format (unit mm)*
G04 Created by KiCad (PCBNEW (6.0.8)) date 2022-10-28 15:06:34*
%MOMM*%
%LPD*%
G01*
G04 APERTURE LIST*
%ADD10C,0.300000*%
%ADD11C,0.200000*%
%ADD12C,0.100000*%
%ADD13C,0.150000*%
%ADD14C,0.120000*%
G04 APERTURE END LIST*
D10*
X45700000Y-54500000D02*
G75*
G03*
X45700000Y-54500000I-100000J0D01*
G01*
X45000000Y-42600000D02*
G75*
G03*
X45000000Y-42600000I-100000J0D01*
G01*
D11*
X60768095Y-57328571D02*
X61101428Y-57328571D01*
X61244285Y-57852380D02*
X60768095Y-57852380D01*
X60768095Y-56852380D01*
X61244285Y-56852380D01*
X61672857Y-57185714D02*
X61672857Y-57852380D01*
X61672857Y-57280952D02*
X61720476Y-57233333D01*
X61815714Y-57185714D01*
X61958571Y-57185714D01*
X62053809Y-57233333D01*
X62101428Y-57328571D01*
X62101428Y-57852380D01*
X62482380Y-57185714D02*
X62720476Y-57852380D01*
X62958571Y-57185714D01*
X63720476Y-57804761D02*
X63625238Y-57852380D01*
X63434761Y-57852380D01*
X63339523Y-57804761D01*
X63291904Y-57709523D01*
X63291904Y-57328571D01*
X63339523Y-57233333D01*
X63434761Y-57185714D01*
X63625238Y-57185714D01*
X63720476Y-57233333D01*
X63768095Y-57328571D01*
X63768095Y-57423809D01*
X63291904Y-57519047D01*
X64339523Y-57852380D02*
X64244285Y-57804761D01*
X64196666Y-57709523D01*
X64196666Y-56852380D01*
X64863333Y-57852380D02*
X64768095Y-57804761D01*
X64720476Y-57757142D01*
X64672857Y-57661904D01*
X64672857Y-57376190D01*
X64720476Y-57280952D01*
X64768095Y-57233333D01*
X64863333Y-57185714D01*
X65006190Y-57185714D01*
X65101428Y-57233333D01*
X65149047Y-57280952D01*
X65196666Y-57376190D01*
X65196666Y-57661904D01*
X65149047Y-57757142D01*
X65101428Y-57804761D01*
X65006190Y-57852380D01*
X64863333Y-57852380D01*
X65625238Y-57185714D02*
X65625238Y-58185714D01*
X65625238Y-57233333D02*
X65720476Y-57185714D01*
X65910952Y-57185714D01*
X66006190Y-57233333D01*
X66053809Y-57280952D01*
X66101428Y-57376190D01*
X66101428Y-57661904D01*
X66053809Y-57757142D01*
X66006190Y-57804761D01*
X65910952Y-57852380D01*
X65720476Y-57852380D01*
X65625238Y-57804761D01*
X66910952Y-57804761D02*
X66815714Y-57852380D01*
X66625238Y-57852380D01*
X66530000Y-57804761D01*
X66482380Y-57709523D01*
X66482380Y-57328571D01*
X66530000Y-57233333D01*
X66625238Y-57185714D01*
X66815714Y-57185714D01*
X66910952Y-57233333D01*
X66958571Y-57328571D01*
X66958571Y-57423809D01*
X66482380Y-57519047D01*
X68339523Y-56852380D02*
X68530000Y-56852380D01*
X68625238Y-56900000D01*
X68720476Y-56995238D01*
X68768095Y-57185714D01*
X68768095Y-57519047D01*
X68720476Y-57709523D01*
X68625238Y-57804761D01*
X68530000Y-57852380D01*
X68339523Y-57852380D01*
X68244285Y-57804761D01*
X68149047Y-57709523D01*
X68101428Y-57519047D01*
X68101428Y-57185714D01*
X68149047Y-56995238D01*
X68244285Y-56900000D01*
X68339523Y-56852380D01*
X69625238Y-57185714D02*
X69625238Y-57852380D01*
X69196666Y-57185714D02*
X69196666Y-57709523D01*
X69244285Y-57804761D01*
X69339523Y-57852380D01*
X69482380Y-57852380D01*
X69577619Y-57804761D01*
X69625238Y-57757142D01*
X69958571Y-57185714D02*
X70339523Y-57185714D01*
X70101428Y-56852380D02*
X70101428Y-57709523D01*
X70149047Y-57804761D01*
X70244285Y-57852380D01*
X70339523Y-57852380D01*
X29720476Y-37566666D02*
X30196666Y-37566666D01*
X29625238Y-37852380D02*
X29958571Y-36852380D01*
X30291904Y-37852380D01*
X30482380Y-37185714D02*
X30863333Y-37185714D01*
X30625238Y-36852380D02*
X30625238Y-37709523D01*
X30672857Y-37804761D01*
X30768095Y-37852380D01*
X30863333Y-37852380D01*
X31053809Y-37185714D02*
X31434761Y-37185714D01*
X31196666Y-36852380D02*
X31196666Y-37709523D01*
X31244285Y-37804761D01*
X31339523Y-37852380D01*
X31434761Y-37852380D01*
X32196666Y-37852380D02*
X32196666Y-37328571D01*
X32149047Y-37233333D01*
X32053809Y-37185714D01*
X31863333Y-37185714D01*
X31768095Y-37233333D01*
X32196666Y-37804761D02*
X32101428Y-37852380D01*
X31863333Y-37852380D01*
X31768095Y-37804761D01*
X31720476Y-37709523D01*
X31720476Y-37614285D01*
X31768095Y-37519047D01*
X31863333Y-37471428D01*
X32101428Y-37471428D01*
X32196666Y-37423809D01*
X33101428Y-37804761D02*
X33006190Y-37852380D01*
X32815714Y-37852380D01*
X32720476Y-37804761D01*
X32672857Y-37757142D01*
X32625238Y-37661904D01*
X32625238Y-37376190D01*
X32672857Y-37280952D01*
X32720476Y-37233333D01*
X32815714Y-37185714D01*
X33006190Y-37185714D01*
X33101428Y-37233333D01*
X33530000Y-37852380D02*
X33530000Y-36852380D01*
X33625238Y-37471428D02*
X33910952Y-37852380D01*
X33910952Y-37185714D02*
X33530000Y-37566666D01*
X35053809Y-36804761D02*
X34196666Y-38090476D01*
X35387142Y-37852380D02*
X35387142Y-36852380D01*
X35625238Y-36852380D01*
X35768095Y-36900000D01*
X35863333Y-36995238D01*
X35910952Y-37090476D01*
X35958571Y-37280952D01*
X35958571Y-37423809D01*
X35910952Y-37614285D01*
X35863333Y-37709523D01*
X35768095Y-37804761D01*
X35625238Y-37852380D01*
X35387142Y-37852380D01*
X36768095Y-37804761D02*
X36672857Y-37852380D01*
X36482380Y-37852380D01*
X36387142Y-37804761D01*
X36339523Y-37709523D01*
X36339523Y-37328571D01*
X36387142Y-37233333D01*
X36482380Y-37185714D01*
X36672857Y-37185714D01*
X36768095Y-37233333D01*
X36815714Y-37328571D01*
X36815714Y-37423809D01*
X36339523Y-37519047D01*
X37672857Y-37804761D02*
X37577619Y-37852380D01*
X37387142Y-37852380D01*
X37291904Y-37804761D01*
X37244285Y-37757142D01*
X37196666Y-37661904D01*
X37196666Y-37376190D01*
X37244285Y-37280952D01*
X37291904Y-37233333D01*
X37387142Y-37185714D01*
X37577619Y-37185714D01*
X37672857Y-37233333D01*
X38530000Y-37852380D02*
X38530000Y-37328571D01*
X38482380Y-37233333D01*
X38387142Y-37185714D01*
X38196666Y-37185714D01*
X38101428Y-37233333D01*
X38530000Y-37804761D02*
X38434761Y-37852380D01*
X38196666Y-37852380D01*
X38101428Y-37804761D01*
X38053809Y-37709523D01*
X38053809Y-37614285D01*
X38101428Y-37519047D01*
X38196666Y-37471428D01*
X38434761Y-37471428D01*
X38530000Y-37423809D01*
X38910952Y-37185714D02*
X39149047Y-37852380D01*
X39387142Y-37185714D02*
X39149047Y-37852380D01*
X39053809Y-38090476D01*
X39006190Y-38138095D01*
X38910952Y-38185714D01*
D12*
X42600000Y-39671428D02*
X42800000Y-40271428D01*
X43000000Y-39671428D01*
X43200000Y-40271428D02*
X43200000Y-39671428D01*
X43342857Y-39671428D01*
X43428571Y-39700000D01*
X43485714Y-39757142D01*
X43514285Y-39814285D01*
X43542857Y-39928571D01*
X43542857Y-40014285D01*
X43514285Y-40128571D01*
X43485714Y-40185714D01*
X43428571Y-40242857D01*
X43342857Y-40271428D01*
X43200000Y-40271428D01*
X43800000Y-40271428D02*
X43800000Y-39671428D01*
X43942857Y-39671428D01*
X44028571Y-39700000D01*
X44085714Y-39757142D01*
X44114285Y-39814285D01*
X44142857Y-39928571D01*
X44142857Y-40014285D01*
X44114285Y-40128571D01*
X44085714Y-40185714D01*
X44028571Y-40242857D01*
X43942857Y-40271428D01*
X43800000Y-40271428D01*
X56128571Y-43242857D02*
X56214285Y-43271428D01*
X56357142Y-43271428D01*
X56414285Y-43242857D01*
X56442857Y-43214285D01*
X56471428Y-43157142D01*
X56471428Y-43100000D01*
X56442857Y-43042857D01*
X56414285Y-43014285D01*
X56357142Y-42985714D01*
X56242857Y-42957142D01*
X56185714Y-42928571D01*
X56157142Y-42900000D01*
X56128571Y-42842857D01*
X56128571Y-42785714D01*
X56157142Y-42728571D01*
X56185714Y-42700000D01*
X56242857Y-42671428D01*
X56385714Y-42671428D01*
X56471428Y-42700000D01*
X56671428Y-42671428D02*
X56814285Y-43271428D01*
X56928571Y-42842857D01*
X57042857Y-43271428D01*
X57185714Y-42671428D01*
X57414285Y-43271428D02*
X57414285Y-42671428D01*
X57557142Y-42671428D01*
X57642857Y-42700000D01*
X57700000Y-42757142D01*
X57728571Y-42814285D01*
X57757142Y-42928571D01*
X57757142Y-43014285D01*
X57728571Y-43128571D01*
X57700000Y-43185714D01*
X57642857Y-43242857D01*
X57557142Y-43271428D01*
X57414285Y-43271428D01*
X58014285Y-43271428D02*
X58014285Y-42671428D01*
X58414285Y-42671428D02*
X58528571Y-42671428D01*
X58585714Y-42700000D01*
X58642857Y-42757142D01*
X58671428Y-42871428D01*
X58671428Y-43071428D01*
X58642857Y-43185714D01*
X58585714Y-43242857D01*
X58528571Y-43271428D01*
X58414285Y-43271428D01*
X58357142Y-43242857D01*
X58300000Y-43185714D01*
X58271428Y-43071428D01*
X58271428Y-42871428D01*
X58300000Y-42757142D01*
X58357142Y-42700000D01*
X58414285Y-42671428D01*
X49942857Y-31700000D02*
X49885714Y-31671428D01*
X49800000Y-31671428D01*
X49714285Y-31700000D01*
X49657142Y-31757142D01*
X49628571Y-31814285D01*
X49600000Y-31928571D01*
X49600000Y-32014285D01*
X49628571Y-32128571D01*
X49657142Y-32185714D01*
X49714285Y-32242857D01*
X49800000Y-32271428D01*
X49857142Y-32271428D01*
X49942857Y-32242857D01*
X49971428Y-32214285D01*
X49971428Y-32014285D01*
X49857142Y-32014285D01*
X50228571Y-32271428D02*
X50228571Y-31671428D01*
X50571428Y-32271428D01*
X50571428Y-31671428D01*
X50857142Y-32271428D02*
X50857142Y-31671428D01*
X51000000Y-31671428D01*
X51085714Y-31700000D01*
X51142857Y-31757142D01*
X51171428Y-31814285D01*
X51200000Y-31928571D01*
X51200000Y-32014285D01*
X51171428Y-32128571D01*
X51142857Y-32185714D01*
X51085714Y-32242857D01*
X51000000Y-32271428D01*
X50857142Y-32271428D01*
D11*
X61291904Y-32900000D02*
X61196666Y-32852380D01*
X61053809Y-32852380D01*
X60910952Y-32900000D01*
X60815714Y-32995238D01*
X60768095Y-33090476D01*
X60720476Y-33280952D01*
X60720476Y-33423809D01*
X60768095Y-33614285D01*
X60815714Y-33709523D01*
X60910952Y-33804761D01*
X61053809Y-33852380D01*
X61149047Y-33852380D01*
X61291904Y-33804761D01*
X61339523Y-33757142D01*
X61339523Y-33423809D01*
X61149047Y-33423809D01*
X62196666Y-33852380D02*
X62196666Y-33328571D01*
X62149047Y-33233333D01*
X62053809Y-33185714D01*
X61863333Y-33185714D01*
X61768095Y-33233333D01*
X62196666Y-33804761D02*
X62101428Y-33852380D01*
X61863333Y-33852380D01*
X61768095Y-33804761D01*
X61720476Y-33709523D01*
X61720476Y-33614285D01*
X61768095Y-33519047D01*
X61863333Y-33471428D01*
X62101428Y-33471428D01*
X62196666Y-33423809D01*
X62530000Y-33185714D02*
X62910952Y-33185714D01*
X62672857Y-32852380D02*
X62672857Y-33709523D01*
X62720476Y-33804761D01*
X62815714Y-33852380D01*
X62910952Y-33852380D01*
X63625238Y-33804761D02*
X63530000Y-33852380D01*
X63339523Y-33852380D01*
X63244285Y-33804761D01*
X63196666Y-33709523D01*
X63196666Y-33328571D01*
X63244285Y-33233333D01*
X63339523Y-33185714D01*
X63530000Y-33185714D01*
X63625238Y-33233333D01*
X63672857Y-33328571D01*
X63672857Y-33423809D01*
X63196666Y-33519047D01*
D12*
X56342857Y-40242857D02*
X56428571Y-40271428D01*
X56571428Y-40271428D01*
X56628571Y-40242857D01*
X56657142Y-40214285D01*
X56685714Y-40157142D01*
X56685714Y-40100000D01*
X56657142Y-40042857D01*
X56628571Y-40014285D01*
X56571428Y-39985714D01*
X56457142Y-39957142D01*
X56400000Y-39928571D01*
X56371428Y-39900000D01*
X56342857Y-39842857D01*
X56342857Y-39785714D01*
X56371428Y-39728571D01*
X56400000Y-39700000D01*
X56457142Y-39671428D01*
X56600000Y-39671428D01*
X56685714Y-39700000D01*
X56885714Y-39671428D02*
X57028571Y-40271428D01*
X57142857Y-39842857D01*
X57257142Y-40271428D01*
X57400000Y-39671428D01*
X57971428Y-40214285D02*
X57942857Y-40242857D01*
X57857142Y-40271428D01*
X57800000Y-40271428D01*
X57714285Y-40242857D01*
X57657142Y-40185714D01*
X57628571Y-40128571D01*
X57600000Y-40014285D01*
X57600000Y-39928571D01*
X57628571Y-39814285D01*
X57657142Y-39757142D01*
X57714285Y-39700000D01*
X57800000Y-39671428D01*
X57857142Y-39671428D01*
X57942857Y-39700000D01*
X57971428Y-39728571D01*
X58514285Y-40271428D02*
X58228571Y-40271428D01*
X58228571Y-39671428D01*
D13*
X50749047Y-38881428D02*
X51510952Y-38881428D01*
X51130000Y-39262380D02*
X51130000Y-38500476D01*
D12*
X42457142Y-42871428D02*
X42457142Y-43271428D01*
X42457142Y-42928571D02*
X42485714Y-42900000D01*
X42542857Y-42871428D01*
X42628571Y-42871428D01*
X42685714Y-42900000D01*
X42714285Y-42957142D01*
X42714285Y-43271428D01*
X43342857Y-43271428D02*
X43142857Y-42985714D01*
X43000000Y-43271428D02*
X43000000Y-42671428D01*
X43228571Y-42671428D01*
X43285714Y-42700000D01*
X43314285Y-42728571D01*
X43342857Y-42785714D01*
X43342857Y-42871428D01*
X43314285Y-42928571D01*
X43285714Y-42957142D01*
X43228571Y-42985714D01*
X43000000Y-42985714D01*
X43571428Y-43242857D02*
X43657142Y-43271428D01*
X43800000Y-43271428D01*
X43857142Y-43242857D01*
X43885714Y-43214285D01*
X43914285Y-43157142D01*
X43914285Y-43100000D01*
X43885714Y-43042857D01*
X43857142Y-43014285D01*
X43800000Y-42985714D01*
X43685714Y-42957142D01*
X43628571Y-42928571D01*
X43600000Y-42900000D01*
X43571428Y-42842857D01*
X43571428Y-42785714D01*
X43600000Y-42728571D01*
X43628571Y-42700000D01*
X43685714Y-42671428D01*
X43828571Y-42671428D01*
X43914285Y-42700000D01*
X44085714Y-42671428D02*
X44428571Y-42671428D01*
X44257142Y-43271428D02*
X44257142Y-42671428D01*
D14*
%TO.C,F101*%
X62102064Y-46310000D02*
X60897936Y-46310000D01*
X62102064Y-44490000D02*
X60897936Y-44490000D01*
%TO.C,FB101*%
X65899622Y-44840000D02*
X65100378Y-44840000D01*
X65899622Y-45960000D02*
X65100378Y-45960000D01*
%TO.C,C105*%
X40890000Y-37540580D02*
X40890000Y-37259420D01*
X41910000Y-37540580D02*
X41910000Y-37259420D01*
%TO.C,C104*%
X57910000Y-51259420D02*
X57910000Y-51540580D01*
X56890000Y-51259420D02*
X56890000Y-51540580D01*
%TO.C,J101*%
X59920000Y-43900000D02*
X59920000Y-40200000D01*
X70420000Y-34900000D02*
X59920000Y-34900000D01*
X70420000Y-43900000D02*
X70420000Y-40120000D01*
X73570000Y-38170000D02*
X73570000Y-39030000D01*
X73570000Y-38170000D02*
X72770000Y-38170000D01*
X70420000Y-43900000D02*
X59920000Y-43900000D01*
X59920000Y-38600000D02*
X59920000Y-34900000D01*
X70420000Y-38680000D02*
X70420000Y-34900000D01*
X67720000Y-39400000D02*
G75*
G03*
X67720000Y-39400000I-1800000J0D01*
G01*
%TO.C,TP103*%
X51350000Y-33400000D02*
G75*
G03*
X51350000Y-33400000I-950000J0D01*
G01*
%TO.C,J102*%
X73570000Y-50170000D02*
X72770000Y-50170000D01*
X73570000Y-50170000D02*
X73570000Y-51030000D01*
X70420000Y-55900000D02*
X70420000Y-52120000D01*
X70420000Y-46900000D02*
X59920000Y-46900000D01*
X70420000Y-55900000D02*
X59920000Y-55900000D01*
X59920000Y-50600000D02*
X59920000Y-46900000D01*
X59920000Y-55900000D02*
X59920000Y-52200000D01*
X70420000Y-50680000D02*
X70420000Y-46900000D01*
X67720000Y-51400000D02*
G75*
G03*
X67720000Y-51400000I-1800000J0D01*
G01*
%TO.C,L101*%
X38154478Y-34924273D02*
X37924273Y-35154478D01*
X38875727Y-35645522D02*
X38645522Y-35875727D01*
%TO.C,C109*%
X35259420Y-52890000D02*
X35540580Y-52890000D01*
X35259420Y-53910000D02*
X35540580Y-53910000D01*
%TO.C,TP102*%
X58350000Y-41400000D02*
G75*
G03*
X58350000Y-41400000I-950000J0D01*
G01*
%TO.C,C111*%
X54090000Y-56540580D02*
X54090000Y-56259420D01*
X55110000Y-56540580D02*
X55110000Y-56259420D01*
%TO.C,C102*%
X41890000Y-47259420D02*
X41890000Y-47540580D01*
X42910000Y-47259420D02*
X42910000Y-47540580D01*
%TO.C,C106*%
X55910000Y-51259420D02*
X55910000Y-51540580D01*
X54890000Y-51259420D02*
X54890000Y-51540580D01*
%TO.C,TP101*%
X44350000Y-41400000D02*
G75*
G03*
X44350000Y-41400000I-950000J0D01*
G01*
%TO.C,Q101*%
X43462500Y-30890000D02*
X42812500Y-30890000D01*
X43462500Y-34010000D02*
X45137500Y-34010000D01*
X43462500Y-34010000D02*
X42812500Y-34010000D01*
X43462500Y-30890000D02*
X44112500Y-30890000D01*
%TO.C,TP105*%
X44350000Y-44400000D02*
G75*
G03*
X44350000Y-44400000I-950000J0D01*
G01*
%TO.C,R103*%
X46922500Y-32162742D02*
X46922500Y-32637258D01*
X45877500Y-32162742D02*
X45877500Y-32637258D01*
%TO.C,C107*%
X44890000Y-37540580D02*
X44890000Y-37259420D01*
X45910000Y-37540580D02*
X45910000Y-37259420D01*
%TO.C,C110*%
X44090000Y-55259420D02*
X44090000Y-55540580D01*
X45110000Y-55259420D02*
X45110000Y-55540580D01*
%TO.C,C103*%
X56259420Y-38910000D02*
X56540580Y-38910000D01*
X56259420Y-37890000D02*
X56540580Y-37890000D01*
%TO.C,U101*%
X46790000Y-49010000D02*
X46790000Y-48710000D01*
X53710000Y-41790000D02*
X54010000Y-41790000D01*
X47090000Y-41790000D02*
X46790000Y-41790000D01*
X46790000Y-42090000D02*
X45475000Y-42090000D01*
X54010000Y-49010000D02*
X54010000Y-48710000D01*
X47090000Y-49010000D02*
X46790000Y-49010000D01*
X53710000Y-49010000D02*
X54010000Y-49010000D01*
X54010000Y-41790000D02*
X54010000Y-42090000D01*
X46790000Y-41790000D02*
X46790000Y-42090000D01*
%TO.C,C108*%
X56259420Y-31890000D02*
X56540580Y-31890000D01*
X56259420Y-32910000D02*
X56540580Y-32910000D01*
%TO.C,C101*%
X44410000Y-47259420D02*
X44410000Y-47540580D01*
X43390000Y-47259420D02*
X43390000Y-47540580D01*
%TO.C,RV101*%
X39270000Y-38655000D02*
X29530000Y-38655000D01*
X36060000Y-50245000D02*
X35230000Y-50245000D01*
X39270000Y-41715000D02*
X39270000Y-38655000D01*
X30710000Y-50245000D02*
X29530000Y-50245000D01*
X29520000Y-50245000D02*
X29520000Y-45525000D01*
X29530000Y-41715000D02*
X29530000Y-38655000D01*
X39270000Y-50245000D02*
X37780000Y-50245000D01*
X39270000Y-50245000D02*
X39270000Y-45525000D01*
X33610000Y-50245000D02*
X33080000Y-50245000D01*
%TO.C,U103*%
X57960000Y-35400000D02*
X57960000Y-34600000D01*
X54840000Y-35400000D02*
X54840000Y-37200000D01*
X57960000Y-35400000D02*
X57960000Y-36200000D01*
X54840000Y-35400000D02*
X54840000Y-34600000D01*
%TO.C,TP104*%
X58350000Y-44400000D02*
G75*
G03*
X58350000Y-44400000I-950000J0D01*
G01*
%TO.C,R104*%
X40922500Y-32687258D02*
X40922500Y-32212742D01*
X39877500Y-32687258D02*
X39877500Y-32212742D01*
%TO.C,R101*%
X48922500Y-37637258D02*
X48922500Y-37162742D01*
X47877500Y-37637258D02*
X47877500Y-37162742D01*
%TO.C,D101*%
X51135000Y-35915000D02*
X49665000Y-35915000D01*
X51135000Y-38200000D02*
X51135000Y-35915000D01*
X49665000Y-35915000D02*
X49665000Y-38200000D01*
%TO.C,U102*%
X49600000Y-58960000D02*
X51550000Y-58960000D01*
X49600000Y-53840000D02*
X51550000Y-53840000D01*
X49600000Y-58960000D02*
X47650000Y-58960000D01*
X49600000Y-53840000D02*
X46150000Y-53840000D01*
%TO.C,R102*%
X51877500Y-37162742D02*
X51877500Y-37637258D01*
X52922500Y-37162742D02*
X52922500Y-37637258D01*
%TD*%
M02*
